<?xml version="1.0" standalone="no"?>
<!DOCTYPE svg PUBLIC "-//W3C//DTD SVG 1.1//EN" "http://www.w3.org/Graphics/SVG/1.1/DTD/svg11.dtd" >
<svg xmlns="http://www.w3.org/2000/svg" xmlns:xlink="http://www.w3.org/1999/xlink" version="1.1" viewBox="0 0 256 256">
  <g transform="matrix(1 0 0 -1 0 204)">
   <path fill="currentColor"
d="M94 122q2 -2 1 -5q-2 -2 -4 -1q-6 1 -11 1h-3q-1 1 2 3q4 0 -20 9q-5 1 1 2q22 -2 34 -9zM103 100q-11 -19 -24 -30q-15 -14 -23 -24q-6 -6 -14 3q-2 3 2 2q3 -3 11 4q27 22 46 46l2 1q1 1 1 2q1 21 2 51q0 16 -7 27q-1 2 1 1q16 -15 14 -16q-3 -7 -3 -16
q-2 -81 -13 -110q-9 -30 -44 -53q-4 -2 -4 -1q-1 1 3 4q49 29 51 110q0 -1 -1 -1zM142 94q37 -23 56 -39q6 -7 5 -14q-1 -5 -4 -5q-2 -1 -5 3q-22 27 -52 53q-2 -26 -2 -55q-1 -35 25 -37q21 -3 54 -2q4 0 5 2q1 0 0 4q-4 15 -11 33q-5 8 2 1q8 -13 19 -33q1 -3 3 -5
q2 -3 1 -4q0 -2 -3 -3q-28 -1 -44 0q-17 0 -26 2q-30 4 -29 42q0 31 1 70q2 40 5 67q1 15 -2 22q-1 3 2 1q9 -13 8 -17q-5 -27 -7 -61q34 27 29 32q0 3 3 3q2 0 6 -1h5q4 -1 1 -5q-8 -7 -32 -24q-6 -5 -12 -9q0 -3 -1 -9v-12z" />
  </g>

</svg>
