<?xml version="1.0" encoding="UTF-8" standalone="no"?>
<!-- Created with Inkscape (http://www.inkscape.org/) -->

<svg
   xmlns:dc="http://purl.org/dc/elements/1.1/"
   xmlns:cc="http://creativecommons.org/ns#"
   xmlns:rdf="http://www.w3.org/1999/02/22-rdf-syntax-ns#"
   xmlns:svg="http://www.w3.org/2000/svg"
   xmlns="http://www.w3.org/2000/svg"
   xmlns:sodipodi="http://sodipodi.sourceforge.net/DTD/sodipodi-0.dtd"
   xmlns:inkscape="http://www.inkscape.org/namespaces/inkscape"
   width="512"
   height="512"
   viewBox="0 0 135.46666 135.46667"
   version="1.1"
   id="svg8"
   inkscape:version="0.92.4 (5da689c313, 2019-01-14)"
   sodipodi:docname="U+518D.svg">
  <defs
     id="defs2" />
  <sodipodi:namedview
     id="base"
     pagecolor="#ffffff"
     bordercolor="#666666"
     borderopacity="1.0"
     inkscape:pageopacity="0.0"
     inkscape:pageshadow="2"
     inkscape:zoom="1.33"
     inkscape:cx="243.83836"
     inkscape:cy="246.83351"
     inkscape:document-units="mm"
     inkscape:current-layer="svg8"
     showgrid="false"
     units="px"
     inkscape:window-width="1680"
     inkscape:window-height="971"
     inkscape:window-x="-9"
     inkscape:window-y="-9"
     inkscape:window-maximized="1" />
  <metadata
     id="metadata5">
    <rdf:RDF>
      <cc:Work
         rdf:about="">
        <dc:format>image/svg+xml</dc:format>
        <dc:type
           rdf:resource="http://purl.org/dc/dcmitype/StillImage" />
        <dc:title></dc:title>
      </cc:Work>
    </rdf:RDF>
  </metadata>
  <g
     inkscape:label="圖層 1"
     inkscape:groupmode="layer"
     id="layer1"
     transform="translate(0,-161.53332)" />
  <path
     style="fill:#000000;stroke:none;stroke-width:0.26458332px;stroke-linecap:butt;stroke-linejoin:miter;stroke-opacity:1"
     d="M 20.888158,29.633333 C 21.920283,33.359631 27.927864,32.896325 31.630638,34.009898 33.249629,34.496794 35.003688,35.549711 36.604008,35.004573 45.008022,32.141802 51.207055,29.138061 58.884711,27.643984 65.864293,26.285753 73.060713,26.168504 80.170739,26.251441 89.157491,26.356269 98.048405,28.240397 107.02694,28.638658 109.01434,28.726813 111.94042,30.325487 112.99499,28.638658 114.51997,26.199392 111.33511,22.82486 109.21523,20.880201 107.854,19.631481 105.86709,19.181839 104.04292,18.890852 96.305861,17.656654 88.375203,19.419312 80.568609,20.084461 69.455702,21.03132 58.373722,22.391808 47.346491,24.063158 40.813853,25.053282 34.347196,26.438359 27.850877,27.643985 25.728173,28.037929 23.318349,27.697526 21.484962,28.837594 21.203402,29.012678 20.799654,29.313806 20.888158,29.633333 Z"
     id="path4580"
     inkscape:connector-curvature="0"
     sodipodi:nodetypes="aasaaaaaaaaaaa" />
  <path
     style="fill:#000000;stroke:none;stroke-width:0.26458332px;stroke-linecap:butt;stroke-linejoin:miter;stroke-opacity:1"
     d="M 44.760337,45.747056 C 49.137611,48.79756 49.730063,50.13912 50.927317,53.107642 52.717451,57.546177 51.895656,62.645089 51.921991,67.430951 51.972065,76.53098 50.424287,85.58534 50.330512,94.685023 50.29427,98.201853 52.362362,102.11416 50.728382,105.22857 49.925011,106.75982 47.985077,108.58162 46.351816,108.01366 44.826611,107.48328 44.417969,105.01624 44.760337,103.43816 45.828067,98.516642 47.02338,94.217584 47.545426,89.512718 48.474432,81.140177 48.557268,72.661688 48.142231,64.247995 47.954607,60.444461 48.286529,56.392984 46.749686,52.908707 46.00951,51.230607 43.368988,50.554214 43.168858,48.731077 43.045851,47.610511 43.835473,45.102522 44.760337,45.747056 Z"
     id="path4582"
     inkscape:connector-curvature="0"
     sodipodi:nodetypes="saaaaasaaaas" />
  <path
     style="fill:#000000;stroke:none;stroke-width:0.26458332px;stroke-linecap:butt;stroke-linejoin:miter;stroke-opacity:1"
     d="M 51.126252,43.558772 C 49.840125,46.702688 57.492166,51.516166 57.492166,51.516166 63.122207,51.301971 66.701564,47.153 71.61654,45.945991 74.660332,45.198503 77.853546,44.586523 80.966476,44.951316 82.153802,45.090454 83.728827,45.122542 84.348369,46.144926 86.292402,49.35302 83.166203,53.556523 82.75689,57.285275 82.002153,64.160756 80.962242,71.060702 81.165413,77.974499 81.381656,85.333105 83.811421,91.091664 84.149434,99.857329 84.186285,100.81298 83.455597,101.9146 82.557958,102.24455 81.651729,102.57766 80.706529,101.69476 79.772869,101.44881 77.859865,100.94487 75.175013,98.461989 74.003759,100.05626 72.630202,101.9259 76.507493,103.96954 77.584585,106.02431 79.375773,109.44137 79.262351,114.26672 82.359023,116.56786 83.164463,117.16638 84.468472,117.45775 85.343044,116.96573 88.940189,114.94201 89.788066,109.71982 90.316414,105.62644 90.969546,100.5663 88.396971,95.588022 87.929198,90.507393 87.254117,83.175128 86.92859,75.777822 87.332393,68.425625 87.732511,61.140519 88.568294,53.825296 90.316414,46.741728 91.335919,42.610587 88.706322,39.163304 85.939849,39.580073 80.636798,40.378978 75.996927,40.806431 71.019735,41.370488 66.049964,41.933704 61.069396,42.398751 56.099625,42.961967 54.440561,43.149986 51.758441,42.013397 51.126252,43.558772 Z"
     id="path4584"
     inkscape:connector-curvature="0"
     sodipodi:nodetypes="asaaaaasaaaaaaaaassaaa" />
  <path
     style="fill:#000000;stroke:none;stroke-width:0.26458332px;stroke-linecap:butt;stroke-linejoin:miter;stroke-opacity:1"
     d="M 28.646617,66.834146 C 27.713711,69.391296 32.717006,71.016003 35.410401,71.409647 40.224917,72.113297 44.581148,68.066326 49.33584,67.033081 58.281418,65.089111 67.482309,64.575305 76.58991,63.65119 84.134219,62.885697 93.501982,62.73754 99.268482,61.860776 100.60561,61.657473 99.463383,58.802883 98.472743,57.88208 97.297988,56.790142 95.301831,57.318323 93.698308,57.285275 84.9167,57.104287 76.121131,58.143734 67.438909,59.473557 60.855411,60.481926 54.446351,62.411539 47.943296,63.850125 42.77453,64.993544 37.712142,66.941759 32.426378,67.232016 31.161403,67.30148 29.080811,65.643993 28.646617,66.834146 Z"
     id="path4586"
     inkscape:connector-curvature="0"
     sodipodi:nodetypes="aaaasaaaaaa" />
  <path
     style="fill:#000000;stroke:none;stroke-width:0.26458332px;stroke-linecap:butt;stroke-linejoin:miter;stroke-opacity:1"
     d="M 16.710526,88.716979 C 15.99046,90.02835 16.789759,91.910262 17.7052,93.093544 19.030001,94.805955 21.584411,97.133848 23.474311,96.077568 32.376884,91.101852 38.06376,89.884998 45.556077,87.324434 51.434358,85.31548 57.359864,83.325095 63.460211,82.152129 70.069367,80.88133 76.829254,79.85932 83.55263,80.16278 92.724997,80.576776 101.75825,82.887698 110.60777,85.335088 113.39805,86.106757 115.9827,89.122196 118.7641,88.319109 120.5354,87.807674 122.18994,85.785672 122.14599,83.942543 122.08992,81.591252 119.583,79.788478 117.57049,78.571303 114.48709,76.70645 110.6063,76.600274 107.02694,76.184084 99.583582,75.318608 92.025416,75.505081 84.547304,75.985149 74.861027,76.606973 65.261275,78.28271 55.701755,79.963845 43.545607,82.101622 32.959085,87.927062 19.495614,87.722304 18.509935,87.707313 17.184997,87.852881 16.710526,88.716979 Z"
     id="path4588"
     inkscape:connector-curvature="0"
     sodipodi:nodetypes="aasaaaaaaaaaasa" />
  <path
     style="fill:#000000;stroke:none;stroke-width:0.26458332px;stroke-linecap:butt;stroke-linejoin:miter;stroke-opacity:1"
     d="M 64.852756,30.230138 C 64.786363,28.226477 68.337643,32.26909 69.826126,33.612029 71.04909,34.715411 72.734726,35.767655 73.009084,37.391792 73.411137,39.771851 70.904569,41.790337 70.422931,44.155576 69.337213,49.487345 69.860072,55.027147 69.826126,60.468231 69.791779,65.973586 70.700457,71.495018 70.223996,76.979824 69.989897,79.674669 70.910106,83.477906 68.632519,84.937218 67.42723,85.70948 65.462508,84.959307 64.454886,83.942543 62.779052,82.251505 62.026921,79.208797 62.863406,76.979824 64.269802,73.232216 65.036534,69.76321 65.44956,66.038406 66.10003,60.172254 65.348625,54.234499 65.250625,48.333207 65.150405,42.298226 65.119645,38.284491 64.852756,30.230138 Z"
     id="path4590"
     inkscape:connector-curvature="0"
     sodipodi:nodetypes="saaaaaaasaas" />
</svg>
