<?xml version="1.0" encoding="UTF-8" standalone="no"?>
<svg
   xmlns:dc="http://purl.org/dc/elements/1.1/"
   xmlns:cc="http://creativecommons.org/ns#"
   xmlns:rdf="http://www.w3.org/1999/02/22-rdf-syntax-ns#"
   xmlns:svg="http://www.w3.org/2000/svg"
   xmlns="http://www.w3.org/2000/svg"
   id="svg8"
   version="1.1"
   viewBox="0 0 135.46666 135.46667"
   height="512"
   width="512">
  <defs
     id="defs2" />
  <metadata
     id="metadata5">
    <rdf:RDF>
      <cc:Work
         rdf:about="">
        <dc:format>image/svg+xml</dc:format>
        <dc:type
           rdf:resource="http://purl.org/dc/dcmitype/StillImage" />
        <dc:title></dc:title>
      </cc:Work>
    </rdf:RDF>
  </metadata>
  <g
     id="g4695" />
  <path
     id="path4736"
     d="m 24.651423,27.052032 c 0,0 4.913925,0.428929 6.066058,2.452237 1.327921,2.332016 3.534476,4.082712 4.517274,6.582315 1.466142,3.728919 -1.517021,8.59445 -2.32317,12.51931 -0.829736,4.039695 -1.751756,6.531551 -2.5813,11.099594 -0.380482,2.095198 -4.31437,-0.199714 -6.324188,-0.903457 -0.800845,-0.280418 -2.194106,-0.387194 -2.194106,-1.290651 0,-0.903454 0.332973,-4.098581 1.161586,-5.93699 0,0 1.03649,2.815518 2.194106,2.710365 2.147399,-0.195061 2.464335,-3.617697 3.097561,-5.678861 1.307446,-4.255761 2.260111,-8.948466 1.290651,-13.293701 -0.697285,-3.125313 -8.094812,-8.534968 -4.904472,-8.260161 z"
     style="fill:#000000;stroke:#000000;stroke-width:0.26458332px;stroke-linecap:butt;stroke-linejoin:miter;stroke-opacity:1;fill-opacity:1" />
  <path
     id="path4738"
     d="m 39.622966,15.048984 c 0.278469,3.165893 0.0366,3.985254 0.903456,6.840446 0.314701,1.036539 1.935976,2.452236 3.226626,2.968496 2.637858,1.055143 4.080134,1.721673 5.936991,3.871953 0.982122,1.137317 -0.262486,5.408582 1.032521,4.64634 0,0 2.553064,-3.08856 3.097562,-5.936991 C 54.437097,24.211645 50.065,22.131385 47.495934,20.08252 45.284957,18.319236 42.849291,16.845295 40.397357,15.436179 40.147136,15.292378 39.597679,14.761495 39.622966,15.048984 Z"
     style="fill:#000000;stroke:#000000;stroke-width:0.26458332px;stroke-linecap:butt;stroke-linejoin:miter;stroke-opacity:1;fill-opacity:1" />
  <path
     id="path4740"
     d="m 55.627031,6.2725609 c -0.989067,0.4046343 -2.567113,1.002597 -2.452235,2.0650406 0.297896,2.7550855 5.208582,2.1212965 7.356708,3.8719515 1.208427,0.98483 2.377021,2.171481 2.968495,3.613821 1.262064,3.077607 0.69916,5.192814 0.774389,8.518293 0.04286,1.894424 -1.795535,6.196605 -0.129065,7.098577 1.165548,0.630849 2.323172,-0.129066 3.226628,-2.323171 0.903455,-2.194105 1.691712,-6.380632 2.839429,-9.938008 0.490893,-1.521535 1.666327,-3.841103 1.419717,-5.420732 C 71.240918,11.259093 68.74714,9.4127941 66.597561,8.0794713 64.362624,6.6932032 61.601066,6.2613424 58.982723,6.0144307 57.86581,5.9091049 56.665367,5.8477704 55.627031,6.2725609 Z"
     style="fill:#000000;stroke:#000000;stroke-width:0.26458332px;stroke-linecap:butt;stroke-linejoin:miter;stroke-opacity:1;fill-opacity:1" />
  <path
     id="path4742"
     d="m 80.40752,9.6282519 c 1.621742,-0.4491958 3.014456,1.5778601 4.259146,2.7103661 1.451267,1.320463 3.348065,2.702332 3.613822,4.646341 0.245638,1.796844 -2.065042,5.033537 -2.065042,5.033537 -0.197977,0.791907 -5.372718,2.59385 -8.002031,4.001016 -1.529052,0.818324 -4.517276,3.355691 -4.517276,2.5813 0,-0.77439 1.290649,-4.517276 1.935974,-5.549796 0.645325,-1.03252 1.161585,-3.742886 3.226626,-4.775406 2.065041,-1.032521 1.099902,-2.738028 1.03252,-4.646342 -0.03055,-0.865255 0,-2.102701 0,-2.968496 0,-0.384798 0.145426,-0.9298048 0.516261,-1.0325201 z"
     style="fill:#000000;stroke:#000000;stroke-width:0.26458332px;stroke-linecap:butt;stroke-linejoin:miter;stroke-opacity:1;fill-opacity:1" />
  <path
     id="path4744"
     d="m 39.235771,35.828454 c -1.611172,0.780912 2.689367,3.662915 4.388213,3.097561 3.461411,-1.151912 5.933417,-2.589501 9.034552,-3.484755 9.435695,-2.723953 19.175119,-4.385301 28.910568,-5.678863 8.507703,-1.13043 17.298257,-3.634231 25.683946,-1.806909 1.0534,0.229546 2.41153,0.559214 2.83943,1.548781 0.81174,1.877239 -0.24208,4.36362 -1.54878,5.936991 -0.51643,0.62182 -1.96909,0.256168 -2.19411,1.03252 -0.31231,1.07752 1.80691,2.839432 1.80691,2.839432 0.15961,0.638461 1.9476,0.448927 2.83943,0.129064 2.23646,-0.802127 4.46944,-2.546267 5.29167,-4.775407 1.25202,-3.39432 6.49194,-4.550715 4.64634,-6.453251 -1.88468,-1.942816 -3.81966,-2.969046 -6.06606,-3.742887 -1.47334,-0.507538 -3.18567,-1.059202 -4.64634,-0.51626 -0.77042,0.286373 -1.01096,0.698418 -1.80691,0.903456 -4.9038,1.263229 -14.713412,1.677844 -15.229672,1.677844 -0.516261,0 -15.656516,1.836664 -23.489838,2.710368 -5.59049,0.623545 -11.290796,0.57079 -16.778454,1.806908 -4.712065,1.061413 -9.137734,2.573401 -13.680895,4.775407 z"
     style="fill:#000000;stroke:#000000;stroke-width:0.26458332px;stroke-linecap:butt;stroke-linejoin:miter;stroke-opacity:1;fill-opacity:1" />
  <path
     id="path4746"
     d="m 46.076219,40.60386 c -0.980893,-0.877643 2.91787,0.02009 4.259146,0.51626 2.036746,0.753441 4.022675,1.952064 5.420733,3.613822 1.302032,1.547619 2.124623,3.554031 2.452235,5.549797 0.384869,2.344571 -0.335676,4.742892 -0.645324,7.098578 -0.164997,1.255239 0.322966,2.927253 -0.645327,3.742885 -0.888407,0.748341 -3.355691,1.290651 -3.484756,0 -0.129065,-1.29065 -0.645326,-2.194105 -0.129066,-3.613822 0.516258,-1.419715 0.12957,-7.32553 -1.290648,-10.583333 -0.719824,-1.651187 -2.2297,-2.838028 -3.484758,-4.130079 -0.76424,-0.786766 -2.452235,-2.194108 -2.452235,-2.194108 z"
     style="fill:#000000;stroke:#000000;stroke-width:0.26458332px;stroke-linecap:butt;stroke-linejoin:miter;stroke-opacity:1;fill-opacity:1" />
  <path
     id="path4748"
     d="m 57.821139,41.507317 c 0,0 -0.280549,2.767545 0.516257,3.742886 1.067433,1.306606 3.091601,1.57096 4.775409,1.677844 3.073697,0.19511 7.872966,-0.77439 9.034553,-1.935975 1.161584,-1.161584 3.107383,-2.729298 4.775406,-2.194104 0.660536,0.211937 0.977795,1.115369 1.032521,1.806911 0.163262,2.063067 -2.065043,5.033536 -2.194108,5.807926 -0.129065,0.774388 -1.290651,4.775407 0,4.259146 1.290651,-0.51626 4.38821,-1.29065 4.517276,-2.194107 0.129065,-0.903454 1.677847,-4.259146 1.677847,-5.549797 0,-1.29065 3.355691,-3.226624 4.13008,-3.871949 0.774391,-0.645326 2.261718,-1.162008 2.194108,-2.194108 -0.152431,-2.326931 -3.597584,-2.983723 -5.549797,-4.259146 -0.822092,-0.53709 -1.614237,-1.590262 -2.581302,-1.419714 -1.801507,0.317708 -2.004077,3.261126 -3.613822,4.130082 -1.37597,0.742762 -4.001015,0.645324 -4.646339,0.645324 -0.645327,0 -5.033537,1.677847 -7.743905,1.548781 -2.710365,-0.129065 -6.377089,-0.383563 -6.324184,0 z"
     style="fill:#000000;stroke:#000000;stroke-width:0.26458332px;stroke-linecap:butt;stroke-linejoin:miter;stroke-opacity:1;fill-opacity:1" />
  <path
     id="path4750"
     d="m 56.659553,58.02764 c -1.040555,0 4.418836,-0.221389 6.582317,-0.645324 3.70011,-0.725038 7.165683,-2.386907 10.841464,-3.226625 2.63396,-0.601718 5.59762,-2.522973 8.002031,-1.290651 0.770492,0.394897 1.208181,1.458631 1.161585,2.323171 -0.03854,0.714985 -4.775406,1.806909 -4.775406,1.806909 -2.205465,1.10273 -6.005269,0.618474 -10.841463,2.194107 -1.665108,0.542493 -3.226626,0.903455 -5.549798,0.903455 -2.323171,0 -4.933214,3.228775 -7.098577,2.065041 -1.001191,-0.538071 -2.452235,-2.968496 -1.677845,-2.968496 0.77439,0 4.067624,0.171609 3.871952,-1.161587 -0.02499,-0.170262 -0.51626,0 -0.51626,0 z"
     style="fill:#000000;stroke:#000000;stroke-width:0.26458332px;stroke-linecap:butt;stroke-linejoin:miter;stroke-opacity:1;fill-opacity:1" />
  <path
     id="path4752"
     d="m 31.491869,64.739024 c 2.609473,-0.589024 5.124286,0.838836 7.356708,2.065039 1.468673,0.806699 2.933596,1.888445 3.742886,3.355692 1.117018,2.025159 0.741154,4.566192 1.161584,6.840447 0.358901,1.94142 1.261349,3.836133 1.161587,5.807927 -0.02957,0.58441 0.06849,1.656056 -0.51626,1.677845 -1.06182,0.03956 -0.516261,-1.419715 -1.161587,-2.968496 -0.645325,-1.54878 -2.710364,-5.549797 -3.097559,-6.324187 -0.387196,-0.774391 -2.323171,-5.291666 -4.517276,-6.453251 -2.194108,-1.161587 -3.180686,-1.120356 -4.001016,-2.452235 -0.27168,-0.441096 -0.634403,-1.434714 -0.129067,-1.548781 z"
     style="fill:#000000;stroke:#000000;stroke-width:0.26458332px;stroke-linecap:butt;stroke-linejoin:miter;stroke-opacity:1;fill-opacity:1" />
  <path
     id="path4754"
     d="m 46.979675,71.708536 c 0.152647,1.416721 2.727796,1.065045 3.742886,2.065041 0.494183,0.486835 0.528577,1.330187 1.032521,1.806911 0.698843,0.661097 2.194104,2.065037 2.581298,1.29065 0.387196,-0.774391 1.433941,-1.46122 2.323172,-1.935977 1.345003,-0.718091 2.903114,-0.945441 4.388212,-1.290651 1.233159,-0.286647 2.50021,-0.403241 3.742886,-0.645324 1.987852,-0.387248 3.988793,-0.73744 5.936991,-1.29065 0.746088,-0.211859 0.903456,-0.387195 2.194107,-0.774391 1.290648,-0.387195 4.121696,-0.595699 6.195121,-0.77439 1.802278,-0.155323 3.615637,-0.139977 5.420733,-0.25813 2.067773,-0.135347 2.659317,0.943486 4.13008,-0.516261 0.674541,-0.669489 2.043717,-0.83195 1.419716,-1.548779 -0.593863,-0.682208 -0.912775,-1.28335 -1.80691,-1.419716 -3.032756,-0.462647 -3.209335,-1.376514 -6.066058,-0.25813 -1.189079,0.465514 -3.884234,0.393647 -4.904472,1.161584 -1.326803,0.99869 -3.742886,1.419717 -4.775406,1.419717 -1.634824,0 -3.270523,0.849945 -4.904471,0.903455 -2.628549,0.08609 -4.951508,-0.05766 -7.485773,0.645326 -1.538916,0.426881 -3.484756,0.51626 -4.646341,1.161584 -1.161587,0.645325 -2.64909,0.907094 -4.001015,0.774391 -1.248288,-0.12253 -2.247709,-1.626944 -3.484759,-1.419715 -0.451041,0.07556 -1.08151,0.448761 -1.032518,0.903455 z"
     style="fill:#000000;stroke:#000000;stroke-width:0.26458332px;stroke-linecap:butt;stroke-linejoin:miter;stroke-opacity:1;fill-opacity:1" />
  <path
     id="path4756"
     d="m 20.521341,87.196341 c -2.411928,0.330264 5.033537,5.291666 5.033537,5.291666 2.946521,2.155908 7.478615,-1.773375 10.970528,-2.83943 10.621952,-3.242804 21.210417,-4.367175 32.26626,-5.420731 13.453409,-1.282031 27.141251,-3.815424 40.784554,-0.645326 2.26444,0.526155 6.45325,1.161584 6.96951,-0.258131 0.51626,-1.419714 0.35645,-2.574219 -0.25813,-3.613822 0,0 -2.73406,-2.292426 -4.38821,-2.839429 -1.26887,-0.419596 -2.66491,-0.288172 -4.00102,-0.25813 -14.971221,0.33662 -29.8036,2.99604 -44.656501,4.90447 -7.030344,0.90332 -14.041882,1.95666 -21.0376,3.097562 -6.987983,1.13964 -14.961098,1.660882 -21.682928,2.581301 z"
     style="fill:#000000;stroke:#000000;stroke-width:0.26458332px;stroke-linecap:butt;stroke-linejoin:miter;stroke-opacity:1;fill-opacity:1" />
  <path
     id="path4758"
     d="m 45.30183,94.682112 c 1.982882,-1.809308 5.862846,1.356669 6.324186,4.001018 0.167633,0.960855 1.511999,7.80175 1.548781,8.77642 0.305561,8.09696 0.768987,7.87812 1.548779,15.87501 0.187936,1.92731 0.645326,5.54979 0.129066,5.80792 -0.51626,0.25813 -1.161589,2.06504 -1.806911,0.3872 -0.645326,-1.67785 -3.484755,-3.87195 -3.484755,-5.42073 0,-1.54878 0.387194,-7.74391 -0.516261,-10.84147 -0.798319,-2.73709 -0.258128,-9.29269 -1.806911,-12.00305 -1.548779,-2.710367 -3.625405,-5.040773 -1.935974,-6.582318 z"
     style="fill:#000000;stroke:#000000;stroke-width:0.26458332px;stroke-linecap:butt;stroke-linejoin:miter;stroke-opacity:1;fill-opacity:1" />
  <path
     id="path4760"
     d="m 54.723577,93.391462 c -0.565973,1.725127 2.657398,2.678283 4.38821,3.226626 2.010039,0.636805 5.807927,0.387196 6.324187,-0.129064 0.51626,-0.51626 7.356708,-3.742885 8.131098,-3.484756 0.774391,0.258129 2.358009,-0.38195 3.226626,0.258128 0.93255,0.687189 0.25813,1.935977 1.29065,3.226628 1.032521,1.290651 -0.129065,10.970526 0.25813,12.519306 0.387195,1.54878 1.958512,6.6673 0.774391,9.67988 -0.256196,0.6518 -1.032523,2.06504 -1.548781,1.41972 -0.516262,-0.64533 -3.613819,-1.37671 -2.710365,-1.03253 0,0 1.112428,3.05175 1.806911,4.51728 1.410065,2.97558 4.517276,10.19614 4.775406,8.64736 0.25813,-1.54878 2.581302,-5.80793 2.581302,-8.00203 0,-2.19411 0.129063,-11.87399 -0.258131,-16.52033 -0.387196,-4.64634 -0.846923,-8.278822 0.387194,-12.132113 0.189251,-0.590901 1.806911,-1.032521 1.032521,-1.548781 -0.774391,-0.516261 -2.386886,-3.582088 -4.259146,-4.388209 -3.082396,-1.327158 -6.827202,-1.004139 -10.067073,-0.129067 -1.210896,0.327057 -0.903457,1.677847 -3.226626,1.935978 -2.323171,0.25813 -7.617383,1.612184 -11.48679,1.935974 -0.47159,0.03946 -1.272192,-0.449657 -1.419714,0 z"
     style="fill:#000000;stroke:#000000;stroke-width:0.26458332px;stroke-linecap:butt;stroke-linejoin:miter;stroke-opacity:1;fill-opacity:1" />
  <path
     id="path4762"
     d="m 55.110771,107.71768 c -0.09792,1.33285 2.452238,2.45224 3.355692,2.19411 0.903454,-0.25813 7.614838,-0.3872 8.389228,-0.64533 0.77439,-0.25813 4.130081,-2.32317 5.033537,-3.09756 0.903455,-0.77439 1.110814,-0.86026 0.25813,-1.80691 -0.868101,-0.96376 -1.284819,-1.12196 -2.581302,-1.16158 -1.611844,-0.0493 -4.388213,-1.41972 -4.775406,-0.7744 -0.387198,0.64533 -2.812248,2.24784 -4.388213,3.09757 -1.13919,0.61423 -2.42346,0.9117 -3.613819,1.41971 -0.566541,0.24178 -1.632715,0.16007 -1.677847,0.77439 z"
     style="fill:#000000;stroke:#000000;stroke-width:0.26458332px;stroke-linecap:butt;stroke-linejoin:miter;stroke-opacity:1;fill-opacity:1" />
  <path
     id="path4764"
     d="m 51.109755,120.10793 c 1.476624,-1.22211 3.762522,0.9435 5.678863,0.90345 3.905601,-0.0816 8.001513,-1.93968 8.905487,-2.06504 7.338791,-1.01774 5.4659,-1.14069 7.338791,-1.01774 0.740533,0.0486 1.980737,-0.0707 2.599217,-0.14386 1.473198,-0.17426 3.226626,-1.03251 3.484756,1e-5 0.25813,1.03252 2.194105,4.13009 0.51626,4.13009 -1.677844,0 -3.785477,-0.5098 -5.67886,-0.3872 -2.1891,0.14174 -4.316596,0.79372 -6.453254,1.29065 -2.774809,0.64535 -5.57207,1.2506 -8.260162,2.19411 -1.508537,0.52949 -3.613819,2.32317 -4.388211,1.93597 -0.774389,-0.38719 -3.484756,-1.03252 -3.871952,-2.5813 -0.387195,-1.54878 -0.965149,-3.35353 0.129065,-4.25914 z"
     style="fill:#000000;stroke:#000000;stroke-width:0.26458332px;stroke-linecap:butt;stroke-linejoin:miter;stroke-opacity:1;fill-opacity:1" />
</svg>
