<?xml version="1.0" encoding="UTF-8" standalone="no"?>
<!-- Created with Inkscape (http://www.inkscape.org/) -->

<svg
   xmlns:dc="http://purl.org/dc/elements/1.1/"
   xmlns:cc="http://creativecommons.org/ns#"
   xmlns:rdf="http://www.w3.org/1999/02/22-rdf-syntax-ns#"
   xmlns:svg="http://www.w3.org/2000/svg"
   xmlns="http://www.w3.org/2000/svg"
   xmlns:sodipodi="http://sodipodi.sourceforge.net/DTD/sodipodi-0.dtd"
   xmlns:inkscape="http://www.inkscape.org/namespaces/inkscape"
   width="512"
   height="512"
   viewBox="0 0 135.46666 135.46667"
   version="1.1"
   id="svg8"
   inkscape:version="0.92.4 (5da689c313, 2019-01-14)"
   sodipodi:docname="U+609A.svg">
  <defs
     id="defs2" />
  <sodipodi:namedview
     id="base"
     pagecolor="#ffffff"
     bordercolor="#666666"
     borderopacity="1.0"
     inkscape:pageopacity="0.0"
     inkscape:pageshadow="2"
     inkscape:zoom="1.33"
     inkscape:cx="243.83836"
     inkscape:cy="231.33689"
     inkscape:document-units="mm"
     inkscape:current-layer="svg8"
     showgrid="false"
     units="px"
     inkscape:window-width="1680"
     inkscape:window-height="971"
     inkscape:window-x="-9"
     inkscape:window-y="-9"
     inkscape:window-maximized="1" />
  <metadata
     id="metadata5">
    <rdf:RDF>
      <cc:Work
         rdf:about="">
        <dc:format>image/svg+xml</dc:format>
        <dc:type
           rdf:resource="http://purl.org/dc/dcmitype/StillImage" />
        <dc:title></dc:title>
      </cc:Work>
    </rdf:RDF>
  </metadata>
  <g
     inkscape:label="圖層 1"
     inkscape:groupmode="layer"
     id="layer1"
     transform="translate(0,-161.53332)" />
  <path
     style="fill:#000000;stroke:none;stroke-width:0.26458332px;stroke-linecap:butt;stroke-linejoin:miter;stroke-opacity:1"
     d="M 17.108396,55.096991 C 20.291353,60.468233 23.425635,58.790164 25.065789,61.860776 25.883482,63.391619 25.79789,65.302822 25.662594,67.033081 25.372878,70.738181 24.013112,74.307033 22.678571,77.775564 22.305853,78.744276 22.290784,80.300293 21.286028,80.560652 19.808228,80.943589 18.066896,79.394438 17.506266,77.974499 16.383685,75.131274 19.021551,72.042262 19.495614,69.022431 19.93973,66.193368 21.201986,63.183299 20.291353,60.468233 19.634619,58.51017 15.952713,57.951709 16.113722,55.892732 16.146824,55.469423 16.891933,54.73171 17.108396,55.096991 Z"
     id="path4648"
     inkscape:connector-curvature="0"
     sodipodi:nodetypes="saaaaaaaas" />
  <path
     style="fill:#000000;stroke:none;stroke-width:0.26458332px;stroke-linecap:butt;stroke-linejoin:miter;stroke-opacity:1"
     d="M 28.646617,30.429073 C 29.714188,35.702797 33.560798,39.540104 34.415727,44.553446 36.201514,55.025383 33.472921,65.779731 32.824248,76.383019 32.207168,86.469884 34.17581,97.15564 30.635964,106.62111 30.287548,107.55277 29.069173,108.03912 28.845552,109.00833 28.45084,110.71908 29.085544,112.59542 29.840225,114.18064 30.770867,116.13547 31.959267,119.82458 34.017857,119.15401 37.683495,117.95997 34.651713,111.4676 34.813597,107.61579 35.181193,98.869373 34.961642,90.106962 35.211467,81.356389 35.482318,71.869351 35.390896,62.345269 36.405073,52.908707 36.735917,49.830315 38.436071,46.822471 37.996553,43.757707 37.356646,39.295631 35.398021,34.617007 32.028508,31.622682 31.134913,30.828587 28.409431,29.25739 28.646617,30.429073 Z"
     id="path4650"
     inkscape:connector-curvature="0"
     sodipodi:nodetypes="saaaaaaaaaaas" />
  <path
     style="fill:#000000;stroke:none;stroke-width:0.26458332px;stroke-linecap:butt;stroke-linejoin:miter;stroke-opacity:1"
     d="M 43.566729,47.736404 C 48.341166,51.914036 47.110234,50.194504 48.341166,51.914036 49.760426,53.896649 51.981237,56.39439 51.126252,58.67782 50.190356,61.177342 46.068311,63.901176 43.964598,62.258646 42.51896,61.129926 45.299584,58.716037 45.158207,56.887406 45.031962,55.254503 44.124803,53.764229 43.367793,52.311905 42.373187,50.403753 37.640753,47.09575 39.786967,46.940663 39.786967,46.940663 43.263172,47.470792 43.566729,47.736404 Z"
     id="path4652"
     inkscape:connector-curvature="0"
     sodipodi:nodetypes="saaaaass" />
  <path
     style="fill:#000000;stroke:none;stroke-width:0.26458332px;stroke-linecap:butt;stroke-linejoin:miter;stroke-opacity:1"
     d="M 64.454886,43.558772 69.826126,48.134272 C 76.801945,46.413961 79.470642,45.338583 84.348369,44.155576 87.773581,43.324851 92.940835,45.025422 94.692982,41.967292 95.526953,40.51171 94.590428,37.965727 93.101503,37.192857 91.258112,36.235991 89.145175,38.466862 87.133458,38.983271 83.454971,39.927541 79.718534,40.632847 75.993108,41.370488 73.084039,41.946489 70.149044,42.385966 67.239975,42.961967 66.308618,43.146377 63.732133,42.943093 64.454886,43.558772 Z"
     id="path4654"
     inkscape:connector-curvature="0"
     sodipodi:nodetypes="scaaaaaas" />
  <path
     style="fill:#000000;stroke:none;stroke-width:0.26458332px;stroke-linecap:butt;stroke-linejoin:miter;stroke-opacity:1"
     d="M 61.470865,55.693796 C 60.499143,57.628531 63.978181,59.28967 65.648495,60.667166 66.701918,61.535917 67.93944,63.104429 69.229324,62.656515 79.184521,59.199559 86.45571,55.480846 94.494047,54.898056 98.245304,54.626085 91.708794,62.411263 92.703634,66.038409 92.977616,67.037337 93.657269,68.440526 94.692982,68.425627 95.873505,68.408645 96.162313,66.577038 96.881266,65.640539 98.092677,64.06257 99.001394,62.216611 100.46209,60.866103 102.82593,58.680577 111.50678,57.115643 108.61842,55.693797 103.17466,53.014013 104.91553,47.969239 101.25783,47.338534 99.912248,47.106512 98.786354,48.531786 97.677005,49.327882 96.876099,49.902632 96.369996,50.87548 95.488722,51.317231 89.571015,54.283566 82.555586,54.229654 75.993108,55.096992 72.302292,55.584793 68.575595,55.869368 64.852757,55.892732 63.723533,55.899819 61.977695,54.684678 61.470865,55.693796 Z"
     id="path4656"
     inkscape:connector-curvature="0"
     sodipodi:nodetypes="aassaaaasaaaaaa" />
  <path
     style="fill:#000000;stroke:none;stroke-width:0.26458332px;stroke-linecap:butt;stroke-linejoin:miter;stroke-opacity:1"
     d="M 53.513471,57.285275 C 55.318106,55.560456 59.865626,58.964482 61.868734,61.26397 63.871842,63.563458 63.969931,66.988474 64.057016,69.4203 64.144101,71.852126 64.861594,74.639377 63.261276,74.79154 61.660958,74.943703 62.729169,72.294219 61.868734,70.812844 61.008299,69.331469 58.977381,67.570215 57.890036,66.237341 56.802691,64.904467 55.303885,63.651189 55.303885,62.85545 55.303885,62.05971 51.708836,59.010094 53.513471,57.285275 Z"
     id="path4658"
     inkscape:connector-curvature="0"
     sodipodi:nodetypes="zzzzzzzz" />
  <path
     style="fill:#000000;stroke:none;stroke-width:0.26458332px;stroke-linecap:butt;stroke-linejoin:miter;stroke-opacity:1"
     d="M 61.6698,71.210714 C 60.741777,71.964287 60.043036,73.478389 60.47619,74.592605 60.88465,75.643299 62.342747,76.035513 63.460211,76.184084 71.688158,77.278017 79.540806,71.966166 87.730263,70.613909 90.952768,70.081804 95.904377,72.481258 97.478068,69.619235 97.835283,68.96958 97.046393,68.112261 96.483394,67.629886 95.161604,66.497382 93.247039,66.150061 91.510023,66.038406 83.436669,65.519451 75.628441,69.150566 67.637844,70.414974 65.655555,70.728645 63.22779,69.945594 61.6698,71.210714 Z"
     id="path4660"
     inkscape:connector-curvature="0"
     sodipodi:nodetypes="aaaaaaaaa" />
  <path
     style="fill:#000000;stroke:none;stroke-width:0.26458332px;stroke-linecap:butt;stroke-linejoin:miter;stroke-opacity:1"
     d="M 73.208019,14.514286 C 74.168593,13.163151 76.797398,13.601687 78.18139,14.514286 79.867816,15.626309 80.021217,18.139984 80.568608,20.084461 81.821421,24.534786 82.699562,29.18983 82.557958,33.810964 81.803151,58.443574 81.040983,83.374443 80.767543,106.02431 80.737656,108.49996 82.504333,111.02291 81.762218,113.3849 80.763437,116.56381 78.293863,121.2386 74.998434,120.74549 71.654422,120.24511 71.925585,114.71428 70.621865,111.59449 69.942504,109.96878 67.737228,108.0021 68.831454,106.62111 69.909282,105.26082 72.431513,107.95286 74.003759,107.21792 76.51964,106.04187 78.682384,103.03047 78.579259,100.2552 78.273801,92.034844 78.602391,84.340379 78.579259,76.383019 78.546103,64.977277 78.479026,53.57159 78.380324,42.166227 78.330397,36.396952 77.934633,31.611656 78.18139,24.858897 78.262791,22.631288 75.733759,21.113651 74.799499,19.089787 74.122706,17.623667 72.272359,15.830378 73.208019,14.514286 Z"
     id="path4662"
     inkscape:connector-curvature="0"
     sodipodi:nodetypes="aaassaaaaasaasaa" />
  <path
     style="fill:#000000;stroke:none;stroke-width:0.26458332px;stroke-linecap:butt;stroke-linejoin:miter;stroke-opacity:1"
     d="M 78.778194,73.9958 C 72.259132,81.999276 70.25452,85.842086 65.05169,90.905263 56.387489,99.336902 54.707079,101.44881 50.529448,105.02964 49.063306,106.28633 56.672424,104.94943 58.088971,103.63709 64.513484,97.685184 67.749528,92.478473 72.611215,86.926564 74.59206,84.664495 76.722976,82.528137 78.579259,80.16278 79.72627,78.701208 82.197562,77.393464 81.762218,75.58728 81.49807,74.491366 79.490128,73.121757 78.778194,73.9958 Z"
     id="path4664"
     inkscape:connector-curvature="0"
     sodipodi:nodetypes="ssssaaas" />
  <path
     style="fill:#000000;stroke:none;stroke-width:0.26458332px;stroke-linecap:butt;stroke-linejoin:miter;stroke-opacity:1"
     d="M 80.767542,75.189409 C 90.437275,81.30247 93.067916,87.260557 100.46209,91.502067 109.524,96.700239 115.64575,96.412393 129.90445,102.24455 137.40463,105.3123 115.54902,102.74029 106.03227,104.03497 103.88698,104.32682 102.51465,101.19554 100.85996,99.658396 97.252684,96.307356 94.067979,92.523771 90.515349,89.114848 86.517893,85.279094 82.948136,81.574502 78.18139,77.974498 76.935893,77.033858 79.448272,74.355387 80.767542,75.189409 Z"
     id="path4666"
     inkscape:connector-curvature="0"
     sodipodi:nodetypes="sassaass" />
</svg>
