<?xml version="1.0" encoding="UTF-8" standalone="no"?>
<!-- Created with Inkscape (http://www.inkscape.org/) -->

<svg
   xmlns:dc="http://purl.org/dc/elements/1.1/"
   xmlns:cc="http://creativecommons.org/ns#"
   xmlns:rdf="http://www.w3.org/1999/02/22-rdf-syntax-ns#"
   xmlns:svg="http://www.w3.org/2000/svg"
   xmlns="http://www.w3.org/2000/svg"
   xmlns:sodipodi="http://sodipodi.sourceforge.net/DTD/sodipodi-0.dtd"
   xmlns:inkscape="http://www.inkscape.org/namespaces/inkscape"
   width="512"
   height="512"
   viewBox="0 0 135.46666 135.46667"
   version="1.1"
   id="svg8"
   inkscape:version="0.92.4 (5da689c313, 2019-01-14)"
   sodipodi:docname="U+6050.svg">
  <defs
     id="defs2" />
  <sodipodi:namedview
     id="base"
     pagecolor="#ffffff"
     bordercolor="#666666"
     borderopacity="1.0"
     inkscape:pageopacity="0.0"
     inkscape:pageshadow="2"
     inkscape:zoom="1.33"
     inkscape:cx="243.83836"
     inkscape:cy="261.41208"
     inkscape:document-units="mm"
     inkscape:current-layer="svg8"
     showgrid="false"
     units="px"
     inkscape:window-width="1680"
     inkscape:window-height="971"
     inkscape:window-x="-9"
     inkscape:window-y="-9"
     inkscape:window-maximized="1" />
  <metadata
     id="metadata5">
    <rdf:RDF>
      <cc:Work
         rdf:about="">
        <dc:format>image/svg+xml</dc:format>
        <dc:type
           rdf:resource="http://purl.org/dc/dcmitype/StillImage" />
        <dc:title></dc:title>
      </cc:Work>
    </rdf:RDF>
  </metadata>
  <g
     inkscape:label="圖層 1"
     inkscape:groupmode="layer"
     id="layer1"
     transform="translate(0,-161.53332)" />
  <path
     style="fill:#000000;stroke:none;stroke-width:0.26458332px;stroke-linecap:butt;stroke-linejoin:miter;stroke-opacity:1"
     d="M 27.254073,35.402443 C 26.791601,35.785448 26.84509,36.630316 27.055138,37.192857 27.875894,39.390967 29.945588,41.42097 32.227443,41.967292 35.310127,42.705349 38.373311,40.389523 41.378446,39.381141 44.145297,38.452716 46.633856,36.517723 49.534775,36.198182 51.268674,36.00719 53.000412,37.35471 54.70708,36.993922 56.632759,36.586835 60.416783,35.636279 59.68045,33.810964 59.68045,33.810964 58.251789,28.985751 53.513471,26.649309 51.368271,25.591521 50.390766,30.389825 48.341166,31.622682 44.333978,34.033049 39.655027,35.438295 35.012532,35.999248 32.437469,36.310393 29.251743,33.748032 27.254073,35.402443 Z"
     id="path4779"
     inkscape:connector-curvature="0"
     sodipodi:nodetypes="aaaaaassaaa" />
  <path
     style="fill:#000000;stroke:none;stroke-width:0.26458332px;stroke-linecap:butt;stroke-linejoin:miter;stroke-opacity:1"
     d="M 47.744361,33.214159 C 46.02686,36.000956 46.952704,39.7132 46.550752,42.961966 46.222526,45.614846 44.804021,48.354227 45.556077,50.919361 46.138915,52.907324 48.681509,57.581554 49.534775,55.693796 52.501195,49.130913 52.874717,45.199315 53.712406,39.779008 54.118031,37.15439 54.607497,34.430433 54.110275,31.821617 53.960263,31.034538 53.886067,29.853285 53.115602,29.633332 51.046458,29.042632 48.873334,31.382301 47.744361,33.214159 Z"
     id="path4783"
     inkscape:connector-curvature="0"
     sodipodi:nodetypes="aaasaaaa" />
  <path
     style="fill:#000000;stroke:none;stroke-width:0.26458332px;stroke-linecap:butt;stroke-linejoin:miter;stroke-opacity:1"
     d="M 19.296679,59.672492 C 21.585744,59.469371 22.535338,65.954196 24.27005,64.44693 29.164018,60.194634 34.693552,60.320528 39.985902,58.478885 46.621227,56.16991 53.34386,54.114457 60.07832,52.11297 61.265789,51.760053 62.428036,50.980458 63.659146,51.118295 65.605146,51.336172 68.271108,52.027109 68.831454,53.903382 69.34939,55.637649 68.012091,59.070744 66.2453,58.67782 58.679052,56.995132 56.107187,57.288387 51.126252,58.081015 44.9101,59.070206 38.868017,61.491565 33.421052,64.645865 31.180128,65.943568 30.033962,69.408402 27.453008,69.619235 24.845953,69.8322 22.660717,67.359637 20.689223,65.640539 19.47935,64.585557 17.736896,63.465698 17.7052,61.860776 17.687391,60.959016 18.398273,59.752212 19.296679,59.672492 Z"
     id="path4785"
     inkscape:connector-curvature="0"
     sodipodi:nodetypes="asaaaasaaaaaa" />
  <path
     style="fill:#000000;stroke:none;stroke-width:0.26458332px;stroke-linecap:butt;stroke-linejoin:miter;stroke-opacity:1"
     d="M 66.64317,32.816292 C 73.514469,38.875011 76.037594,40.337222 76.58991,45.747056 77.132634,51.062932 78.215247,55.581096 76.58991,60.070362 76.237291,61.044314 75.623198,62.622333 74.600564,62.457581 72.278545,62.08349 72.520819,58.189526 72.014409,55.892731 71.284982,52.584453 72.494135,48.959197 71.417605,45.747056 70.353939,42.573295 66.538342,40.666969 65.84743,37.391792 65.527893,35.877069 65.482025,31.79246 66.64317,32.816292 Z"
     id="path4789"
     inkscape:connector-curvature="0"
     sodipodi:nodetypes="ssaaaaas" />
  <path
     style="fill:#000000;stroke:none;stroke-width:0.26458332px;stroke-linecap:butt;stroke-linejoin:miter;stroke-opacity:1"
     d="M 73.208019,29.235463 C 75.410129,33.453228 76.642869,36.829174 80.170738,38.187532 85.512062,40.244136 100.37573,29.302842 97.080198,35.20351 92.878221,42.727167 90.814777,44.820925 87.531328,49.526816 85.793326,52.017747 81.280786,53.980136 82.160088,56.887406 83.714932,62.02825 92.017395,61.380578 97.279133,62.457581 101.117,63.243138 104.76537,64.213274 109.01629,63.054385 111.18962,62.461891 106.57926,58.789074 104.44079,58.081015 99.331597,56.389333 84.573107,58.730814 88.526002,54.699123 95.173529,47.919087 95.989788,45.977021 99.666352,41.569423 102.41288,38.276792 108.58692,35.841774 107.82268,31.622682 107.1395,27.851156 101.53032,24.697451 97.875938,25.853571 96.970721,26.13995 97.623756,28.316648 96.682329,28.439723 89.298923,29.40497 84.503563,30.513456 78.380324,30.230138 76.626507,30.14899 72.395449,27.679125 73.208019,29.235463 Z"
     id="path4791"
     inkscape:connector-curvature="0"
     sodipodi:nodetypes="sasaaasssaaasas" />
  <path
     style="fill:#000000;stroke:none;stroke-width:0.26458332px;stroke-linecap:butt;stroke-linejoin:miter;stroke-opacity:1"
     d="M 27.850877,83.544674 C 29.699284,82.997821 31.196721,86.043109 31.630638,87.921239 32.448916,91.463004 32.279114,97.271333 28.845552,98.464787 27.279657,99.009068 25.345917,97.067826 24.866854,95.480763 24.236526,93.392585 26.538723,91.43301 27.055138,89.313784 27.514734,87.42773 25.989391,84.095396 27.850877,83.544674 Z"
     id="path4793"
     inkscape:connector-curvature="0"
     sodipodi:nodetypes="aaaaaa" />
  <path
     style="fill:#000000;stroke:none;stroke-width:0.26458332px;stroke-linecap:butt;stroke-linejoin:miter;stroke-opacity:1"
     d="M 45.953947,80.361715 C 49.781974,87.186635 49.709175,89.716107 52.916666,93.491414 55.613026,96.665105 58.957986,99.605128 62.863406,101.05094 70.214367,103.77231 78.509573,102.84677 86.337718,102.44348 90.028468,102.25334 95.148795,103.67291 97.279133,100.65307 98.133871,99.441444 96.831951,97.717726 96.483394,96.276503 95.571133,92.504462 92.902566,90.109522 93.101503,85.136151 93.167762,83.479685 95.813254,87.051006 97.080198,88.120174 101.05929,91.478113 104.13957,95.897651 108.41949,98.862657 110.7842,100.50086 118.17321,100.57011 116.17794,102.64242 116.17794,102.64242 110.97292,105.59149 108.61842,105.62644 101.7341,105.72864 96.56241,106.8895 90.515349,106.82005 80.796192,106.70843 70.612318,107.53667 61.470865,104.2339 57.301664,102.72758 53.494806,99.969502 50.529447,96.674373 48.30623,94.203918 46.533779,91.15224 45.755012,87.921239 45.16436,85.470703 44.720829,78.163211 45.953947,80.361715 Z"
     id="path4795"
     inkscape:connector-curvature="0"
     sodipodi:nodetypes="saaaaasaassaaaas" />
  <path
     style="fill:#000000;stroke:none;stroke-width:0.26458332px;stroke-linecap:butt;stroke-linejoin:miter;stroke-opacity:1"
     d="M 68.433584,71.807519 C 66.773349,72.290981 67.506654,75.333552 68.035714,76.979824 68.698127,79.04105 70.194646,81.170697 72.213345,81.953194 74.084633,82.678551 76.449698,82.171904 78.18139,81.157455 79.611807,80.319497 81.165413,77.178759 81.165413,77.178759 81.532115,76.062399 78.954049,78.070517 77.78352,78.173433 75.989011,78.331211 73.955399,78.506112 72.41228,77.576629 70.694987,76.542235 70.195778,74.234496 69.030389,72.603259 68.837651,72.333476 68.75192,71.714819 68.433584,71.807519 Z"
     id="path4797"
     inkscape:connector-curvature="0"
     sodipodi:nodetypes="aaaasaaaa" />
  <path
     style="fill:#000000;stroke:none;stroke-width:0.26458332px;stroke-linecap:butt;stroke-linejoin:miter;stroke-opacity:1"
     d="M 93.101503,74.39367 C 98.472743,71.210713 100.28045,71.523014 104.04292,71.608584 107.9227,71.696822 112.061,72.685705 115.18327,74.990475 117.75796,76.891038 121.24762,79.823649 120.55451,82.947869 120.38702,83.702834 119.33807,84.116192 118.56516,84.141478 115.95671,84.226816 113.92335,81.754259 111.60244,80.56065 109.28153,79.367041 107.07502,77.918246 104.63972,76.979824 102.71856,76.239519 100.68152,75.834949 98.671678,75.388345 96.83049,74.979218 91.47891,75.355206 93.101503,74.39367 Z"
     id="path4799"
     inkscape:connector-curvature="0"
     sodipodi:nodetypes="saaaaaaas" />
</svg>
