<?xml version="1.0" encoding="UTF-8" standalone="no"?>
<!-- Created with Inkscape (http://www.inkscape.org/) -->

<svg
   xmlns:dc="http://purl.org/dc/elements/1.1/"
   xmlns:cc="http://creativecommons.org/ns#"
   xmlns:rdf="http://www.w3.org/1999/02/22-rdf-syntax-ns#"
   xmlns:svg="http://www.w3.org/2000/svg"
   xmlns="http://www.w3.org/2000/svg"
   xmlns:sodipodi="http://sodipodi.sourceforge.net/DTD/sodipodi-0.dtd"
   xmlns:inkscape="http://www.inkscape.org/namespaces/inkscape"
   width="512"
   height="512"
   viewBox="0 0 135.46666 135.46667"
   version="1.1"
   id="svg8"
   inkscape:version="0.92.4 (5da689c313, 2019-01-14)"
   sodipodi:docname="U+6050.svg">
  <defs
     id="defs2" />
  <sodipodi:namedview
     id="base"
     pagecolor="#ffffff"
     bordercolor="#666666"
     borderopacity="1.0"
     inkscape:pageopacity="0.0"
     inkscape:pageshadow="2"
     inkscape:zoom="1.33"
     inkscape:cx="243.83836"
     inkscape:cy="351.63764"
     inkscape:document-units="mm"
     inkscape:current-layer="svg8"
     showgrid="false"
     units="px"
     inkscape:window-width="1680"
     inkscape:window-height="971"
     inkscape:window-x="-9"
     inkscape:window-y="-9"
     inkscape:window-maximized="1" />
  <metadata
     id="metadata5">
    <rdf:RDF>
      <cc:Work
         rdf:about="">
        <dc:format>image/svg+xml</dc:format>
        <dc:type
           rdf:resource="http://purl.org/dc/dcmitype/StillImage" />
        <dc:title></dc:title>
      </cc:Work>
    </rdf:RDF>
  </metadata>
  <g
     inkscape:label="圖層 1"
     inkscape:groupmode="layer"
     id="layer1"
     transform="translate(0,-161.53332)" />
  <path
     style="fill:#000000;stroke:none;stroke-width:0.26458332px;stroke-linecap:butt;stroke-linejoin:miter;stroke-opacity:1"
     d="M 28.447682,17.100438 C 28.492191,15.793326 29.611147,12.704426 30.437029,13.718546 34.195132,18.333209 36.618275,21.627832 39.389097,27.047179 41.036998,30.270248 38.21431,34.193815 37.797618,37.789662 35.331102,59.074499 34.280821,78.603536 32.426378,101.84668 32.124474,105.63067 39.100281,110.13281 36.206141,112.58916 34.41868,114.10624 31.432874,111.0925 30.039159,109.20727 28.871762,107.62817 28.484881,105.36852 28.845552,103.43816 30.981315,92.007259 31.09456,81.044854 31.829573,69.81817 32.753146,55.711394 33.194898,43.855507 33.619987,27.445049 33.719817,23.591133 28.316483,20.953414 28.447682,17.100438 Z"
     id="path4740"
     inkscape:connector-curvature="0"
     sodipodi:nodetypes="assasaasasa" />
  <path
     style="fill:#000000;stroke:none;stroke-width:0.26458332px;stroke-linecap:butt;stroke-linejoin:miter;stroke-opacity:1"
     d="M 20.490288,53.903382 C 22.686918,53.215282 24.322405,56.897148 25.065789,59.07569 26.353546,62.849556 25.567399,67.2412 24.27005,71.011779 23.540012,73.133541 22.732217,76.674591 20.490288,76.581954 17.523569,76.459369 15.845176,71.780576 16.113722,68.823495 16.207404,67.791919 17.648425,67.366987 18.10307,66.436276 19.473202,63.631459 19.577891,60.364158 20.092418,57.285275 20.279511,56.165728 19.407117,54.242688 20.490288,53.903382 Z"
     id="path4742"
     inkscape:connector-curvature="0"
     sodipodi:nodetypes="aaaaaaaa" />
  <path
     style="fill:#000000;stroke:none;stroke-width:0.26458332px;stroke-linecap:butt;stroke-linejoin:miter;stroke-opacity:1"
     d="M 41.776316,43.956641 C 40.049803,45.917165 43.699701,48.829632 44.959272,51.118296 45.650943,52.375075 46.008465,54.181832 47.346491,54.699122 48.366552,55.093484 49.958273,54.836016 50.529447,53.903382 51.453557,52.39446 50.193596,50.278683 49.33584,48.731078 48.517542,47.254666 47.204204,46.015844 45.755013,45.150251 44.566288,44.440233 42.691413,42.917512 41.776316,43.956641 Z"
     id="path4744"
     inkscape:connector-curvature="0"
     sodipodi:nodetypes="aaaaaaa" />
  <path
     style="fill:#000000;stroke:none;stroke-width:0.26458332px;stroke-linecap:butt;stroke-linejoin:miter;stroke-opacity:1"
     d="M 58.685776,30.031203 C 58.088971,26.649312 65.05169,34.407768 65.05169,34.407768 67.143495,39.170636 68.941901,44.171242 69.627191,49.327882 69.889406,51.300988 71.176448,54.344224 69.428259,55.295926 68.409463,55.850551 67.155541,54.421808 66.444235,53.505512 64.025578,50.389826 64.410155,45.873085 63.062341,42.166227 61.976337,39.179418 59.834892,36.542853 59.282581,33.413094 Z"
     id="path4748"
     inkscape:connector-curvature="0"
     sodipodi:nodetypes="ssaaaass" />
  <path
     style="fill:#000000;stroke:none;stroke-width:0.26458332px;stroke-linecap:butt;stroke-linejoin:miter;stroke-opacity:1"
     d="M 74.799499,18.095112 C 76.954448,17.032211 78.968011,20.718973 80.369674,22.670614 81.569446,24.341147 82.845935,26.403255 82.557958,28.439723 82.140145,31.394351 79.331031,33.526215 77.186715,35.601378 74.278414,38.415887 72.325508,39.644346 67.239975,42.564097 66.255604,43.129253 66.07016,40.014365 66.842105,39.182206 69.667648,36.136261 72.41743,33.282112 74.003759,29.633333 74.755756,27.903634 74.863328,25.944408 74.998434,24.063157 75.141015,22.077817 73.014381,18.975599 74.799499,18.095112 Z"
     id="path4750"
     inkscape:connector-curvature="0"
     sodipodi:nodetypes="aaaassaaa" />
  <path
     style="fill:#000000;stroke:none;stroke-width:0.26458332px;stroke-linecap:butt;stroke-linejoin:miter;stroke-opacity:1"
     d="M 83.353695,26.848244 C 82.359884,29.68138 86.636448,32.579092 89.520674,33.413094 94.85112,34.954444 100.36934,27.483719 105.6344,29.235463 106.03729,29.369508 106.5036,29.811939 106.43014,30.230138 104.84372,39.261662 98.178419,48.102197 96.881264,57.285275 96.698337,58.58029 99.692479,60.451421 100.26316,59.274625 103.91746,51.739134 105.16366,42.634092 110.60777,36.198182 111.68865,34.920394 115.66682,34.835816 114.7854,33.413094 112.23623,29.298406 106.62907,24.858897 106.62907,24.858897 100.36469,26.846571 95.736084,25.302133 90.316414,25.853571 87.983987,26.09089 84.129731,24.635936 83.353695,26.848244 Z"
     id="path4754"
     inkscape:connector-curvature="0"
     sodipodi:nodetypes="aaasssassaa" />
  <path
     style="fill:#000000;stroke:none;stroke-width:0.26458332px;stroke-linecap:butt;stroke-linejoin:miter;stroke-opacity:1"
     d="M 70.8208,40.972618 C 70.160239,42.475669 72.866303,43.772893 74.401629,44.354511 80.109691,46.516859 85.186805,44.689624 92.703633,43.757707 94.475562,43.538028 92.475379,39.078512 90.714284,38.784336 86.475015,38.076202 83.516888,39.009938 79.971804,39.580073 77.812275,39.927378 75.784926,40.981858 73.605889,41.171553 72.678668,41.252272 71.195269,40.120545 70.8208,40.972618 Z"
     id="path4756"
     inkscape:connector-curvature="0"
     sodipodi:nodetypes="aassaaa" />
  <path
     style="fill:#000000;stroke:none;stroke-width:0.26458332px;stroke-linecap:butt;stroke-linejoin:miter;stroke-opacity:1"
     d="M 63.460211,56.887406 C 61.611648,57.073529 64.78901,61.580865 66.64317,61.462906 76.323337,60.847067 82.608975,58.149556 90.714284,57.48421 93.754393,57.234654 97.657674,59.589201 99.865287,57.48421 100.87425,56.522147 101.44943,53.463987 100.06422,53.306577 91.311089,52.311904 87.05709,54.256173 80.568608,54.898056 74.855274,55.463256 69.997834,56.229163 63.460211,56.887406 Z"
     id="path4758"
     inkscape:connector-curvature="0"
     sodipodi:nodetypes="ssaasas" />
  <path
     style="fill:#000000;stroke:none;stroke-width:0.26458332px;stroke-linecap:butt;stroke-linejoin:miter;stroke-opacity:1"
     d="M 59.282581,71.011779 C 58.52002,72.563751 60.339369,75.443977 62.067669,75.388345 69.367906,75.153358 73.213873,73.836819 78.778194,73.001126 88.470385,71.545477 97.044877,71.046641 107.82268,68.425625 108.91994,68.158785 106.63177,66.369047 105.6344,65.839474 103.45477,64.682158 100.66999,64.453424 98.273808,65.043734 91.88867,66.61674 86.691836,68.275809 80.767543,69.221365 74.394146,70.238601 67.900814,70.255431 61.470865,70.812844 60.741166,70.876102 59.605579,70.35441 59.282581,71.011779 Z"
     id="path4760"
     inkscape:connector-curvature="0"
     sodipodi:nodetypes="asasasaaa" />
  <path
     style="fill:#000000;stroke:none;stroke-width:0.26458332px;stroke-linecap:butt;stroke-linejoin:miter;stroke-opacity:1"
     d="M 74.401629,75.985149 C 80.339605,76.693934 81.478184,76.955398 83.751564,79.36704 85.032457,80.725834 85.270159,82.872353 85.343044,84.738283 85.50447,88.870977 83.00895,92.745149 82.75689,96.873307 82.618949,99.132454 84.252588,101.55989 83.353695,103.63709 82.884801,104.72063 81.742175,105.95445 80.568608,105.82537 78.694978,105.61929 77.561237,103.24439 76.98778,101.44881 75.491489,96.763697 78.146833,91.643131 77.982455,86.72763 77.899708,84.253182 77.937263,81.653571 76.98778,79.36704 76.443543,78.056416 72.992502,75.816949 74.401629,75.985149 Z"
     id="path4762"
     inkscape:connector-curvature="0"
     sodipodi:nodetypes="saaaaaaaas" />
  <path
     style="fill:#000000;stroke:none;stroke-width:0.26458332px;stroke-linecap:butt;stroke-linejoin:miter;stroke-opacity:1"
     d="M 63.062341,89.512718 C 64.030883,88.594673 65.338252,91.58254 66.64317,91.303133 76.176453,89.261886 81.322822,86.334623 92.902568,83.146804 94.989965,82.572159 97.853254,86.097841 97.080198,88.120174 96.075655,90.748083 91.48376,88.762506 88.724937,89.313783 84.561235,90.145788 80.429501,91.185645 76.390977,92.496739 74.15395,93.222983 72.169607,94.883363 69.826126,95.082893 68.206337,95.220806 66.312645,95.114244 65.05169,94.088219 63.761696,93.038565 61.855316,90.656811 63.062341,89.512718 Z"
     id="path4764"
     inkscape:connector-curvature="0"
     sodipodi:nodetypes="assaaaaaa" />
  <path
     style="fill:#000000;stroke:none;stroke-width:0.26458332px;stroke-linecap:butt;stroke-linejoin:miter;stroke-opacity:1"
     d="M 52.916667,106.42218 C 60.675126,108.01366 60.886094,106.73141 64.852757,106.42219 75.091435,105.62404 86.247396,102.62782 95.289787,101.64775 96.521377,101.51426 97.690941,100.2749 98.870613,100.65307 100.98106,101.32961 102.65402,103.64448 103.04824,105.82538 103.23474,106.85713 102.93362,108.23947 102.05357,108.8094 99.25672,110.62065 95.434808,107.98071 92.106828,107.81473 87.073403,107.56369 81.975562,107.09331 76.987782,107.81473 70.965656,108.68575 67.983452,109.63674 59.481516,112.98703 57.779604,113.65769 56.788937,110.50811 55.50282,109.20727 54.612113,108.30636 52.916667,106.42218 52.916667,106.42218 Z"
     id="path4766"
     inkscape:connector-curvature="0"
     sodipodi:nodetypes="casaaaaasac" />
</svg>
