<?xml version="1.0" encoding="UTF-8" standalone="no"?>
<!-- Created with Inkscape (http://www.inkscape.org/) -->

<svg
   xmlns:dc="http://purl.org/dc/elements/1.1/"
   xmlns:cc="http://creativecommons.org/ns#"
   xmlns:rdf="http://www.w3.org/1999/02/22-rdf-syntax-ns#"
   xmlns:svg="http://www.w3.org/2000/svg"
   xmlns="http://www.w3.org/2000/svg"
   xmlns:sodipodi="http://sodipodi.sourceforge.net/DTD/sodipodi-0.dtd"
   xmlns:inkscape="http://www.inkscape.org/namespaces/inkscape"
   width="512"
   height="512"
   viewBox="0 0 135.46666 135.46667"
   version="1.1"
   id="svg8"
   inkscape:version="0.92.4 (5da689c313, 2019-01-14)"
   sodipodi:docname="U+61FC.svg">
  <defs
     id="defs2" />
  <sodipodi:namedview
     id="base"
     pagecolor="#ffffff"
     bordercolor="#666666"
     borderopacity="1.0"
     inkscape:pageopacity="0.0"
     inkscape:pageshadow="2"
     inkscape:zoom="1.33"
     inkscape:cx="243.83836"
     inkscape:cy="261.41208"
     inkscape:document-units="mm"
     inkscape:current-layer="svg8"
     showgrid="false"
     units="px"
     inkscape:window-width="1680"
     inkscape:window-height="971"
     inkscape:window-x="-9"
     inkscape:window-y="-9"
     inkscape:window-maximized="1" />
  <metadata
     id="metadata5">
    <rdf:RDF>
      <cc:Work
         rdf:about="">
        <dc:format>image/svg+xml</dc:format>
        <dc:type
           rdf:resource="http://purl.org/dc/dcmitype/StillImage" />
        <dc:title></dc:title>
      </cc:Work>
    </rdf:RDF>
  </metadata>
  <g
     inkscape:label="圖層 1"
     inkscape:groupmode="layer"
     id="layer1"
     transform="translate(0,-161.53332)" />
  <path
     style="fill:#000000;stroke:none;stroke-width:0.26458332px;stroke-linecap:butt;stroke-linejoin:miter;stroke-opacity:1"
     d="M 17.307331,58.081015 C 17.307331,58.081015 19.415691,63.018464 19.495614,65.640539 19.597073,68.96913 16.091189,72.288214 17.307331,75.388345 17.777531,76.586956 19.202782,77.567433 20.490288,77.576629 21.924791,77.586875 23.36204,76.436453 24.071115,75.18941 25.351099,72.938317 24.90464,69.983593 24.468985,67.430951 23.99871,64.675462 23.271313,61.640363 21.286027,59.672492 20.271559,58.666923 16.861097,56.724111 17.307331,58.081015 Z"
     id="path4679"
     inkscape:connector-curvature="0"
     sodipodi:nodetypes="saaaaaas" />
  <path
     style="fill:#000000;stroke:none;stroke-width:0.26458332px;stroke-linecap:butt;stroke-linejoin:miter;stroke-opacity:1"
     d="M 28.646617,26.251441 C 27.878872,26.137476 26.700283,26.309696 26.458333,27.047179 25.862084,28.864591 28.88757,30.063663 29.641292,31.821617 30.471735,33.758513 30.767101,35.898129 31.033833,37.988597 31.562854,42.134719 31.401409,46.341865 31.431703,50.521491 31.543222,65.907667 31.765415,81.329302 30.635964,96.674373 30.410158,99.742245 31.036798,103.19467 29.442357,105.82537 29.022809,106.51759 27.659397,106.43524 27.453008,107.21792 26.666469,110.2007 28.631508,114.27915 31.431703,115.57318 32.36618,116.00502 34.447036,115.8064 34.415727,114.77744 34.15662,106.26186 34.374812,97.522783 34.813596,86.926566 35.275618,75.76915 33.798837,64.351254 34.614662,53.107644 34.998123,47.822829 35.989494,42.592887 37.00188,37.391792 37.275381,35.986692 38.486551,34.559155 37.996554,33.21416 37.120374,30.809127 33.881276,30.169146 31.829574,28.638659 30.76653,27.845671 29.958475,26.446175 28.646617,26.251441 Z"
     id="path4681"
     inkscape:connector-curvature="0"
     sodipodi:nodetypes="aaaaaaaaassaaaaa" />
  <path
     style="fill:#000000;stroke:none;stroke-width:0.26458332px;stroke-linecap:butt;stroke-linejoin:miter;stroke-opacity:1"
     d="M 35.211467,50.919361 C 35.211467,50.919361 41.992706,50.120802 44.760337,51.7151 47.071623,53.046519 49.672996,55.634001 49.33584,58.27995 49.181286,59.492869 47.773474,60.664104 46.550752,60.667168 43.680916,60.67436 42.159996,56.970312 39.985902,55.096992 38.383875,53.716597 33.233836,51.668332 35.211467,50.919361 Z"
     id="path4685"
     inkscape:connector-curvature="0"
     sodipodi:nodetypes="saaaas" />
  <path
     style="fill:#000000;stroke:none;stroke-width:0.26458332px;stroke-linecap:butt;stroke-linejoin:miter;stroke-opacity:1"
     d="M 54.906015,25.853571 C 56.109313,24.482157 58.640441,26.52095 60.07832,27.643984 61.513348,28.764791 62.596549,30.459217 63.062341,32.219487 64.183962,36.458196 62.195962,40.965158 62.266604,45.349186 62.312742,48.212523 63.062341,53.903382 63.062341,53.903382 62.915799,54.417526 62.173416,54.878538 61.6698,54.699122 59.05965,53.769239 59.152091,49.671984 58.685776,46.940663 57.915425,42.428528 59.987768,37.701404 59.083646,33.214159 58.767125,31.643237 57.940324,30.198556 57.094297,28.837593 56.596728,28.037177 55.816184,27.440378 55.303885,26.649309 55.142686,26.400393 54.710428,26.076484 54.906015,25.853571 Z"
     id="path4687"
     inkscape:connector-curvature="0"
     sodipodi:nodetypes="aaaasaaaaaa" />
  <path
     style="fill:#000000;stroke:none;stroke-width:0.26458332px;stroke-linecap:butt;stroke-linejoin:miter;stroke-opacity:1"
     d="M 59.282581,21.874874 C 58.927271,23.188262 60.785131,24.40466 62.067669,24.858897 65.223501,25.976601 68.66812,23.570664 72.01441,23.466353 72.878588,23.439415 74.063634,22.987619 74.600564,23.665288 77.017626,26.715905 73.164827,31.3276 72.810149,35.203508 72.386979,39.827894 72.313043,44.4863 72.41228,49.128947 72.45206,50.989977 71.403467,53.479998 72.810149,54.699122 73.51349,55.308684 74.948718,55.169714 75.595238,54.500187 78.130358,51.874854 75.66418,47.193468 75.993108,43.558772 76.367539,39.421269 76.929678,35.290532 77.78352,31.224812 78.448125,28.060177 81.42154,24.932683 80.369674,21.874874 79.537053,19.454417 76.726169,17.728261 74.202694,17.299373 71.121775,16.775743 68.239327,19.171272 65.250625,20.084461 63.264335,20.691366 59.824958,19.870003 59.282581,21.874874 Z"
     id="path4689"
     inkscape:connector-curvature="0"
     sodipodi:nodetypes="aaaaaaaaaaaaaa" />
  <path
     style="fill:#000000;stroke:none;stroke-width:0.26458332px;stroke-linecap:butt;stroke-linejoin:miter;stroke-opacity:1"
     d="M 61.868734,33.015224 C 61.868734,33.015224 67.082736,29.560766 70.025061,29.633333 71.418759,29.667706 74.792198,30.439537 73.804824,31.423747 73.804824,31.423747 68.828215,34.336283 66.046365,34.805638 65.193816,34.94948 64.245709,34.967981 63.460211,34.606703 62.778618,34.293214 61.303816,33.508897 61.868734,33.015224 Z"
     id="path4691"
     inkscape:connector-curvature="0"
     sodipodi:nodetypes="sasaas" />
  <path
     style="fill:#000000;stroke:none;stroke-width:0.26458332px;stroke-linecap:butt;stroke-linejoin:miter;stroke-opacity:1"
     d="M 60.87406,42.564097 C 61.719678,40.863903 64.663906,42.030911 66.444235,41.370488 68.002255,40.792532 69.160135,39.043679 70.8208,38.983271 72.422234,38.925018 75.151022,39.370796 75.197368,40.972618 75.238545,42.395794 72.706727,42.357576 71.417604,42.961966 69.533254,43.845422 67.676953,44.88375 65.648495,45.349185 64.547851,45.60173 63.236497,46.126484 62.266604,45.548121 61.323846,44.985939 60.385247,43.546901 60.87406,42.564097 Z"
     id="path4693"
     inkscape:connector-curvature="0"
     sodipodi:nodetypes="aaaaaaaa" />
  <path
     style="fill:#000000;stroke:none;stroke-width:0.26458332px;stroke-linecap:butt;stroke-linejoin:miter;stroke-opacity:1"
     d="M 55.10495,57.48421 C 55.238651,59.661347 59.387345,60.770737 61.27193,59.672492 69.27028,55.011438 75.112845,49.926492 82.75689,42.763032 87.156002,38.640495 72.383212,48.920696 67.04104,51.7151 64.044936,53.282314 60.927458,54.606112 57.890036,56.091666 56.957638,56.547687 55.041328,56.448221 55.10495,57.48421 Z"
     id="path4695"
     inkscape:connector-curvature="0"
     sodipodi:nodetypes="assaaa" />
  <path
     style="fill:#000000;stroke:none;stroke-width:0.26458332px;stroke-linecap:butt;stroke-linejoin:miter;stroke-opacity:1"
     d="M 87.133458,21.27807 C 88.767876,19.934546 91.512663,22.791207 92.504698,24.659962 94.637864,28.678334 93.086442,33.939351 93.101503,38.585401 93.113334,42.234931 94.188092,44.136335 92.703633,49.526816 92.40073,50.626739 90.084622,48.666183 89.918544,47.537467 88.884861,40.512245 91.595119,34.808545 90.316414,28.638658 89.961137,26.92441 88.807407,25.477745 88.128133,23.864223 87.769764,23.012968 86.419964,21.864576 87.133458,21.27807 Z"
     id="path4697"
     inkscape:connector-curvature="0"
     sodipodi:nodetypes="asassaaa" />
  <path
     style="fill:#000000;stroke:none;stroke-width:0.26458332px;stroke-linecap:butt;stroke-linejoin:miter;stroke-opacity:1"
     d="M 90.117479,18.294047 C 88.434378,19.224231 92.374926,22.377422 94.295112,22.272744 99.997382,21.961887 103.80216,15.668493 107.62375,18.294047 108.33637,18.78364 107.82291,20.015602 107.82268,20.8802 107.82013,30.324659 107.04944,39.791096 105.6344,49.128947 105.41025,50.608118 104.354,52.036991 104.63972,53.505512 104.99455,55.329224 105.99299,58.403604 107.82268,58.081013 110.1195,57.676063 109.48503,53.645958 109.6131,51.317231 109.68674,49.978184 108.90969,48.762945 109.01629,47.338532 109.67005,38.603106 111.7487,30.669255 112.00031,21.67594 112.0385,20.311034 114.27018,19.431427 113.98966,18.095112 113.56189,16.0573 111.02022,14.880975 109.01629,14.315351 106.45083,13.591232 103.67592,14.604033 101.0589,15.11109 97.329917,15.833593 94.995206,15.598319 90.117479,18.294047 Z"
     id="path4699"
     inkscape:connector-curvature="0"
     sodipodi:nodetypes="ssaaaaaassaaas" />
  <path
     style="fill:#000000;stroke:none;stroke-width:0.26458332px;stroke-linecap:butt;stroke-linejoin:miter;stroke-opacity:1"
     d="M 91.510023,30.628008 C 95.444705,28.422517 97.757016,26.539295 101.0589,27.246114 103.03101,27.668274 107.44172,31.217976 105.43546,31.423747 97.677003,32.219487 100.27523,32.131454 97.677003,32.219487 95.753927,32.284644 93.423862,33.205586 91.907893,32.020552 91.527553,31.72324 91.08891,30.864053 91.510023,30.628008 Z"
     id="path4701"
     inkscape:connector-curvature="0"
     sodipodi:nodetypes="sasaas" />
  <path
     style="fill:#000000;stroke:none;stroke-width:0.26458332px;stroke-linecap:butt;stroke-linejoin:miter;stroke-opacity:1"
     d="M 91.311089,43.757707 C 90.500464,42.159937 93.207642,40.581944 94.692982,39.580073 96.762406,38.184234 99.414992,36.863589 101.85464,37.391792 103.32398,37.709917 106.57187,39.685122 105.23653,40.375813 99.467417,43.359837 101.558,42.796879 99.467417,43.359837 96.839037,44.067616 92.542657,46.185169 91.311089,43.757707 Z"
     id="path4703"
     inkscape:connector-curvature="0"
     sodipodi:nodetypes="aaasaa" />
  <path
     style="fill:#000000;stroke:none;stroke-width:0.26458332px;stroke-linecap:butt;stroke-linejoin:miter;stroke-opacity:1"
     d="M 82.75689,52.709775 C 82.775744,54.850233 86.785179,54.411258 88.923872,54.500187 95.277732,54.764387 98.326127,53.276662 107.62375,50.720426 110.09349,50.04141 103.01711,48.115748 100.46209,47.935337 97.269174,47.709884 94.201254,49.285167 91.112154,50.123621 88.298504,50.887311 82.73121,49.794438 82.75689,52.709775 Z"
     id="path4705"
     inkscape:connector-curvature="0"
     sodipodi:nodetypes="aasaaa" />
  <path
     style="fill:#000000;stroke:none;stroke-width:0.26458332px;stroke-linecap:butt;stroke-linejoin:miter;stroke-opacity:1"
     d="M 81.762216,56.688472 C 86.138782,62.258645 81.980989,63.152642 69.229322,72.802193 56.477655,82.451744 59.155159,80.418735 52.120926,85.534023 45.086693,90.649311 38.191162,95.616818 42.969926,91.104198 47.74869,86.591578 53.606237,80.885884 59.481516,75.388344 65.356795,69.890804 69.873065,66.173303 73.208019,62.258647 76.542973,58.343991 77.38565,51.118298 81.762216,56.688472 Z"
     id="path4707"
     inkscape:connector-curvature="0"
     sodipodi:nodetypes="zzzzzzz" />
  <path
     style="fill:#000000;stroke:none;stroke-width:0.26458332px;stroke-linecap:butt;stroke-linejoin:miter;stroke-opacity:1"
     d="M 68.632519,70.21604 C 67.386348,71.561751 69.739668,73.755231 69.826126,75.58728 69.87653,76.655334 69.518917,77.704846 69.428259,78.770238 68.190065,93.321269 69.548699,105.76318 67.438909,122.5359 67.172018,124.65767 72.736117,127.83985 73.009084,125.71886 74.26902,115.92899 72.543955,107.5502 72.611215,98.464787 72.661308,91.698263 73.291242,84.939631 73.208019,78.173433 73.177799,75.716507 74.46958,72.624939 72.810149,70.812844 71.860135,69.775431 69.588288,69.183927 68.632519,70.21604 Z"
     id="path4709"
     inkscape:connector-curvature="0"
     sodipodi:nodetypes="aaassaaaa" />
  <path
     style="fill:#000000;stroke:none;stroke-width:0.26458332px;stroke-linecap:butt;stroke-linejoin:miter;stroke-opacity:1"
     d="M 81.762218,65.441604 C 81.715257,66.289507 82.819567,66.77076 83.353695,67.430951 85.132059,69.629038 85.901052,73.854957 88.724937,73.9958 89.848885,74.051858 90.835188,72.699313 91.112154,71.608584 91.57174,69.79867 90.668452,67.710302 89.520674,66.237341 88.241472,64.595722 86.214309,62.794457 84.149434,63.054385 83.0329,63.194935 81.82445,64.317981 81.762218,65.441604 Z"
     id="path4711"
     inkscape:connector-curvature="0"
     sodipodi:nodetypes="aaaaaaa" />
  <path
     style="fill:#000000;stroke:none;stroke-width:0.26458332px;stroke-linecap:butt;stroke-linejoin:miter;stroke-opacity:1"
     d="M 73.009084,79.565975 C 73.350192,81.420969 76.694615,80.634635 78.579259,80.56065 83.304247,80.375162 87.656025,77.839968 92.305764,76.979824 97.619896,75.996775 100.77424,76.929589 108.41948,75.18941 108.97569,75.062808 109.48813,74.362485 109.41416,73.796868 109.15761,71.835306 106.70165,69.351686 104.83865,70.017105 97.175542,72.754188 94.941955,73.11774 89.918544,74.39367 85.645139,75.479101 84.746239,75.985149 76.987781,77.17876 76.459378,77.260053 72.729368,78.04484 73.009084,79.565975 Z"
     id="path4713"
     inkscape:connector-curvature="0"
     sodipodi:nodetypes="aaasasasa" />
  <path
     style="fill:#000000;stroke:none;stroke-width:0.26458332px;stroke-linecap:butt;stroke-linejoin:miter;stroke-opacity:1"
     d="M 86.337718,77.576629 C 88.060037,75.46359 92.593592,77.888235 94.096177,80.16278 95.893119,82.88291 93.54689,86.659839 93.300438,89.910588 92.797917,96.538953 93.990892,104.4758 91.907893,109.80407 91.61716,110.54776 90.119882,110.53079 89.520674,110.00301 87.229482,107.98495 89.235832,103.90313 89.122807,100.852 88.88213,94.354875 90.308371,87.608886 88.526002,81.356389 88.126893,79.956326 85.417917,78.705093 86.337718,77.576629 Z"
     id="path4715"
     inkscape:connector-curvature="0"
     sodipodi:nodetypes="aaasaaaa" />
  <path
     style="fill:#000000;stroke:none;stroke-width:0.26458332px;stroke-linecap:butt;stroke-linejoin:miter;stroke-opacity:1"
     d="M 76.390975,88.915914 C 76.968111,90.514631 79.471633,90.564583 81.165413,90.706328 88.098842,91.286557 94.847473,88.161907 101.6557,86.72763 103.11963,86.419227 105.47782,87.122484 106.03227,85.732958 106.29809,85.066764 105.45386,84.311332 104.83866,83.942543 102.4957,82.53803 99.405728,82.93419 96.682329,83.146804 92.721767,83.456002 89.026811,85.290419 85.144109,86.130825 82.51228,86.700481 77.186715,87.523369 77.186715,87.523369 76.658312,87.604678 76.209444,88.413055 76.390975,88.915914 Z"
     id="path4717"
     inkscape:connector-curvature="0"
     sodipodi:nodetypes="aaaaaaasa" />
  <path
     style="fill:#000000;stroke:none;stroke-width:0.26458332px;stroke-linecap:butt;stroke-linejoin:miter;stroke-opacity:1"
     d="M 75.595238,97.470112 C 73.531555,97.389348 78.136544,102.00462 80.170739,101.64774 91.510025,99.658396 92.459966,101.32759 100.46209,99.061591 101.68104,98.716416 104.83866,96.873309 104.83866,96.873309 100.06422,95.679699 100.9186,94.285591 98.671679,94.08822 94.650317,93.734981 90.930729,96.500863 86.934524,97.072243 83.190513,97.607564 81.476312,97.700272 75.595238,97.470112 Z"
     id="path4721"
     inkscape:connector-curvature="0"
     sodipodi:nodetypes="ssssaas" />
  <path
     style="fill:#000000;stroke:none;stroke-width:0.26458332px;stroke-linecap:butt;stroke-linejoin:miter;stroke-opacity:1"
     d="M 69.428259,110.40088 C 67.411481,110.40731 71.879772,113.97717 73.804824,114.57851 79.892374,116.48012 86.326268,111.53457 92.703633,111.59449 98.023641,111.64448 103.11654,113.01772 108.41949,114.37957 109.78044,114.72908 112.05929,114.35067 112.39818,112.98703 112.98668,110.61901 109.61696,108.68738 107.42481,107.61579 105.33205,106.59278 102.79082,106.96248 100.46209,107.01898 94.508705,107.16343 88.679692,108.78646 82.75689,109.4062 78.325849,109.86984 74.709853,110.38404 69.428259,110.40088 Z"
     id="path4725"
     inkscape:connector-curvature="0"
     sodipodi:nodetypes="saasaaaas" />
</svg>
