<?xml version="1.0" encoding="UTF-8" standalone="no"?>
<!-- Created with Inkscape (http://www.inkscape.org/) -->

<svg
   xmlns:dc="http://purl.org/dc/elements/1.1/"
   xmlns:cc="http://creativecommons.org/ns#"
   xmlns:rdf="http://www.w3.org/1999/02/22-rdf-syntax-ns#"
   xmlns:svg="http://www.w3.org/2000/svg"
   xmlns="http://www.w3.org/2000/svg"
   xmlns:sodipodi="http://sodipodi.sourceforge.net/DTD/sodipodi-0.dtd"
   xmlns:inkscape="http://www.inkscape.org/namespaces/inkscape"
   width="512"
   height="512"
   viewBox="0 0 135.46666 135.46667"
   version="1.1"
   id="svg8"
   inkscape:version="0.92.4 (5da689c313, 2019-01-14)"
   sodipodi:docname="U+62DC.svg">
  <defs
     id="defs2" />
  <sodipodi:namedview
     id="base"
     pagecolor="#ffffff"
     bordercolor="#666666"
     borderopacity="1.0"
     inkscape:pageopacity="0.0"
     inkscape:pageshadow="2"
     inkscape:zoom="1.33"
     inkscape:cx="243.83836"
     inkscape:cy="241.21635"
     inkscape:document-units="mm"
     inkscape:current-layer="svg8"
     showgrid="false"
     units="px"
     inkscape:window-width="1680"
     inkscape:window-height="971"
     inkscape:window-x="-9"
     inkscape:window-y="-9"
     inkscape:window-maximized="1" />
  <metadata
     id="metadata5">
    <rdf:RDF>
      <cc:Work
         rdf:about="">
        <dc:format>image/svg+xml</dc:format>
        <dc:type
           rdf:resource="http://purl.org/dc/dcmitype/StillImage" />
        <dc:title></dc:title>
      </cc:Work>
    </rdf:RDF>
  </metadata>
  <g
     inkscape:label="圖層 1"
     inkscape:groupmode="layer"
     id="layer1"
     transform="translate(0,-161.53332)" />
  <path
     style="fill:#000000;stroke:none;stroke-width:0.26458332px;stroke-linecap:butt;stroke-linejoin:miter;stroke-opacity:1"
     d="M 45.755012,3.9707394 C 44.694912,5.6953862 49.027131,7.1206037 48.93797,9.143045 48.781427,12.693923 45.333882,15.459932 42.572056,17.697243 40.473982,19.396859 35.398463,18.385506 35.211467,21.079135 35.075157,23.042647 38.573465,25.392332 40.184837,24.262093 45.159363,20.772888 46.718028,19.443259 50.529449,18.294048 52.565042,17.680281 54.957437,18.770703 56.895363,17.896178 58.348494,17.240426 60.172657,16.10509 60.277256,14.514286 60.441723,12.012968 57.377017,10.410949 55.701754,8.5462406 54.416571,7.1157247 53.264762,5.3850066 51.524123,4.5675439 50.496711,4.0850367 49.271618,4.2831334 48.142231,4.1696742 47.347732,4.0898581 46.173153,3.2904771 45.755012,3.9707394 Z"
     id="path4605"
     inkscape:connector-curvature="0"
     sodipodi:nodetypes="aaaasaaaaaaa" />
  <path
     style="fill:#000000;stroke:none;stroke-width:0.26458332px;stroke-linecap:butt;stroke-linejoin:miter;stroke-opacity:1"
     d="M 35.211467,21.67594 C 37.312321,19.577641 41.020477,23.812842 42.969926,26.052506 44.514096,27.826556 45.107309,30.308608 45.556077,32.617357 47.011186,40.103371 46.763893,47.935766 45.755012,55.494861 44.524441,64.714972 42.56819,73.502359 39.389097,80.759585 37.946886,84.051862 34.157327,85.95311 30.834898,87.324434 28.91898,88.115224 26.224498,89.488807 24.66792,88.120174 24.518522,87.988814 24.58273,87.703141 24.66792,87.523369 25.878696,84.968338 29.364534,84.27436 31.232768,82.152129 34.126295,78.865212 36.565272,75.076101 38.195488,71.011779 40.993848,64.035133 42.497706,56.441984 42.770991,48.930012 42.936356,44.384506 42.089196,39.813784 40.980576,35.402443 40.065014,31.759305 38.590366,28.262927 37.001878,24.858897 36.487107,23.755776 34.350169,22.53619 35.211467,21.67594 Z"
     id="path4607"
     inkscape:connector-curvature="0"
     sodipodi:nodetypes="aaassaaaaaaaaa" />
  <path
     style="fill:#000000;stroke:none;stroke-width:0.26458332px;stroke-linecap:butt;stroke-linejoin:miter;stroke-opacity:1"
     d="M 17.108396,43.160902 C 17.375808,46.091948 22.752294,45.788155 25.662594,45.349184 28.046671,44.989585 29.63646,42.571118 31.829573,41.569423 37.018305,39.199492 42.701103,38.109903 48.142231,36.397117 51.323112,35.395823 57.691102,33.413095 57.691102,33.413095 59.603561,33.444669 60.609275,31.999984 60.277255,30.826942 59.887404,29.449581 57.531083,29.826415 56.099625,29.832268 50.840527,29.853771 45.797068,32.029599 40.781642,33.612029 34.475193,35.601793 28.369341,38.193195 22.280701,40.773683 20.532365,41.514663 16.93587,41.26988 17.108396,43.160902 Z"
     id="path4609"
     inkscape:connector-curvature="0"
     sodipodi:nodetypes="aaaasaaaaa" />
  <path
     style="fill:#000000;stroke:none;stroke-width:0.26458332px;stroke-linecap:butt;stroke-linejoin:miter;stroke-opacity:1"
     d="M 8.9520674,62.258646 C 8.4025353,64.397464 12.017887,67.747764 13.925438,66.635211 19.062251,63.639234 22.267094,61.94813 26.657268,60.070362 35.815781,56.153076 45.10015,52.074272 54.906015,50.322556 57.974785,49.774352 62.645361,52.79268 64.255951,50.123621 65.175246,48.600171 63.480073,46.103897 61.868734,45.349186 59.77124,44.366772 57.34499,46.351731 55.10495,46.940663 47.757968,48.872268 40.393174,50.799549 33.222117,53.306577 26.79385,55.553923 20.820622,59.025896 14.323308,61.065036 12.573378,61.61424 9.4084805,60.482254 8.9520674,62.258646 Z"
     id="path4611"
     inkscape:connector-curvature="0"
     sodipodi:nodetypes="asaaaaaaaa" />
  <path
     style="fill:#000000;stroke:none;stroke-width:0.26458332px;stroke-linecap:butt;stroke-linejoin:miter;stroke-opacity:1"
     d="M 71.019735,6.7558271 C 69.638533,8.6115512 72.345426,11.543682 74.202694,12.922807 75.664585,14.008342 77.753332,13.887167 79.573934,13.917481 83.127768,13.976655 86.60912,12.895786 90.117479,12.326003 94.701596,11.581508 99.308114,10.935943 103.84398,9.9387844 104.84941,9.7177529 106.43736,10.095478 106.82801,9.1430451 107.32432,7.9330046 105.97396,6.4104806 104.83866,5.7611529 101.90301,4.0821197 98.064358,5.494651 94.692982,5.7611529 91.747766,5.9939675 88.871105,6.7845877 85.93985,7.1536967 83.098578,7.5114749 80.246293,8.0819665 77.385652,7.9494361 75.229015,7.8495215 72.30877,5.0239337 71.019735,6.7558271 Z"
     id="path4613"
     inkscape:connector-curvature="0"
     sodipodi:nodetypes="aaaaaaaaaaa" />
  <path
     style="fill:#000000;stroke:none;stroke-width:0.26458332px;stroke-linecap:butt;stroke-linejoin:miter;stroke-opacity:1"
     d="M 80.170739,12.524937 C 83.583024,10.013801 89.406341,13.21555 92.305763,16.304699 94.033824,18.145837 94.024272,21.141241 94.096177,23.665288 94.190252,26.967571 92.624375,30.124871 92.305763,33.413094 90.642872,50.574887 92.087525,67.898142 91.708958,85.136153 91.349155,101.51976 90.765933,115.15696 90.117479,134.27306 90.083459,135.27596 88.008702,135.16176 87.133458,134.67093 84.414467,133.14614 84.508664,129.01223 83.353695,126.11673 82.988462,125.20109 82.027466,122.40328 82.359023,123.33164 83.353695,126.11673 86.497787,129.75759 86.735588,127.70821 88.844996,109.52919 88.495523,87.267691 88.724937,67.033081 88.873796,53.903556 88.506401,42.981237 88.327067,27.643984 88.292743,24.708445 87.237581,21.685282 85.541979,19.288722 84.231926,17.437096 81.167279,17.148654 80.170739,15.11109 79.791996,14.336696 79.476431,13.035885 80.170739,12.524937 Z"
     id="path4623"
     inkscape:connector-curvature="0"
     sodipodi:nodetypes="aaaaasaassasaaa" />
  <path
     style="fill:#000000;stroke:none;stroke-width:0.26458332px;stroke-linecap:butt;stroke-linejoin:miter;stroke-opacity:1"
     d="M 65.250625,25.654636 C 65.250625,25.654636 71.296635,34.122849 74.600564,31.622681 78.01251,29.040773 79.172573,28.604463 81.762217,27.842919 89.871932,25.45807 98.581722,26.019691 107.02694,25.654636 111.06817,25.479949 115.12389,25.891352 119.16197,25.654635 120.29509,25.58821 122.16221,26.325754 122.54386,25.256767 123.44265,22.739292 119.50981,20.332365 116.97368,19.487656 113.02262,18.171677 108.76288,20.891997 104.63972,21.477005 94.387171,22.931672 84.123348,24.385627 73.804824,25.256767 70.96046,25.496902 62.911144,24.019125 65.250625,25.654636 Z"
     id="path4625"
     inkscape:connector-curvature="0"
     sodipodi:nodetypes="ssaaaaaaas" />
  <path
     style="fill:#000000;stroke:none;stroke-width:0.26458332px;stroke-linecap:butt;stroke-linejoin:miter;stroke-opacity:1"
     d="M 73.605889,43.160902 C 71.532057,43.807004 77.056356,47.0172 79.176064,46.542793 89.837137,44.156761 93.717874,42.639375 106.03227,42.564097 108.62601,42.548242 102.69915,37.296639 100.26316,38.187531 94.698914,40.222488 91.880783,39.215071 87.730263,39.977945 82.983584,40.850395 79.954505,41.182991 73.605889,43.160902 Z"
     id="path4631"
     inkscape:connector-curvature="0"
     sodipodi:nodetypes="ssssas" />
  <path
     style="fill:#000000;stroke:none;stroke-width:0.26458332px;stroke-linecap:butt;stroke-linejoin:miter;stroke-opacity:1"
     d="M 60.07832,60.070362 C 60.07832,60.070362 63.670281,66.55082 66.444235,65.839474 75.435916,63.533671 81.037543,60.080681 88.724937,58.876755 97.110866,57.563431 105.71023,58.270631 114.1886,58.67782 117.38509,58.831337 120.81169,60.969001 123.73747,59.672492 124.86517,59.17277 126.10675,57.908585 125.92575,56.688471 125.63383,54.720659 123.04523,53.716404 121.15132,53.107642 115.27882,51.220042 108.7823,52.835639 102.65037,53.505512 92.50199,54.614155 82.70661,57.956416 72.611215,59.473557 70.040363,59.859906 67.451284,60.190584 64.852756,60.269297 63.260627,60.317525 59.0086,58.89015 60.07832,60.070362 Z"
     id="path4633"
     inkscape:connector-curvature="0"
     sodipodi:nodetypes="ssaaaaaaaas" />
  <path
     style="fill:#000000;stroke:none;stroke-width:0.26458332px;stroke-linecap:butt;stroke-linejoin:miter;stroke-opacity:1"
     d="M 98.273808,67.232016 C 101.11728,73.361674 103.85618,77.212718 109.21522,79.76491 111.35213,80.782594 110.0131,75.6192 109.21523,73.796865 108.27417,71.647505 106.07541,70.194731 104.04292,69.02243 102.29873,68.016421 97.376938,65.298636 98.273808,67.232016 Z"
     id="path4635"
     inkscape:connector-curvature="0"
     sodipodi:nodetypes="ssaas" />
</svg>
