<?xml version="1.0" encoding="UTF-8" standalone="no"?>
<svg
   xmlns:dc="http://purl.org/dc/elements/1.1/"
   xmlns:cc="http://creativecommons.org/ns#"
   xmlns:rdf="http://www.w3.org/1999/02/22-rdf-syntax-ns#"
   xmlns:svg="http://www.w3.org/2000/svg"
   xmlns="http://www.w3.org/2000/svg"
   id="svg8"
   version="1.1"
   viewBox="0 0 135.46666 135.46667"
   height="512"
   width="512">
  <defs
     id="defs2" />
  <metadata
     id="metadata5">
    <rdf:RDF>
      <cc:Work
         rdf:about="">
        <dc:format>image/svg+xml</dc:format>
        <dc:type
           rdf:resource="http://purl.org/dc/dcmitype/StillImage" />
        <dc:title></dc:title>
      </cc:Work>
    </rdf:RDF>
  </metadata>
  <path
     id="path4681"
     d="m 50.335365,4.7237806 c 3.396424,0.7035108 6.465155,2.8326191 9.034552,5.1626015 2.148767,1.9485459 4.404839,4.2668339 5.033536,7.0985769 0.417006,1.878253 -0.89523,3.759778 -1.032518,5.678862 -0.331771,4.637675 0.408831,8.965898 0.516258,13.939023 0.01708,0.790759 -0.88727,1.702025 -1.677845,1.677847 C 60.71663,38.235039 58.891117,36.376887 59.240853,34.925 59.941317,32.017108 58.283399,27.170346 57.692072,23.309146 57.348378,21.064924 57.327884,18.723515 56.530488,16.597764 55.221845,13.109098 52.766112,10.162595 50.722561,7.046951 50.231574,6.2983813 48.806507,5.6692613 49.17378,4.8528454 49.333608,4.4975625 49.953885,4.6447635 50.335365,4.7237806 Z"
     style="fill:#000000;stroke:#000000;stroke-width:0.26458332px;stroke-linecap:butt;stroke-linejoin:miter;stroke-opacity:1;fill-opacity:1" />
  <path
     id="path4683"
     d="m 40.139228,23.438211 c 2.007256,2.547678 3.613821,4.775408 3.613821,4.775408 0.910305,0.39026 3.687574,1.410026 4.646341,1.161584 2.421217,-0.627401 4.383872,-2.827121 6.711381,-3.742886 1.418822,-0.558239 3.048228,-0.176042 4.388212,-0.903455 0.697179,-0.378465 1.841954,-0.756275 1.806911,-1.548781 -0.0327,-0.73945 -1.090403,-1.104984 -1.806911,-1.29065 -1.844227,-0.477887 -3.788199,0.410941 -5.678863,0.645325 -2.886247,0.357806 -5.804454,1.775067 -8.647356,1.161585 -1.1902,-0.256838 -1.883642,-2.030544 -3.097561,-1.935976 -0.851376,0.06632 -2.464464,1.00707 -1.935975,1.677846 z"
     style="fill:#000000;stroke:#000000;stroke-width:0.26458332px;stroke-linecap:butt;stroke-linejoin:miter;stroke-opacity:1;fill-opacity:1" />
  <path
     id="path4685"
     d="m 42.978657,45.379269 c 0.01198,1.909466 0.95283,3.840655 2.194107,5.291667 0.58995,0.689633 1.422712,1.306544 2.323172,1.419714 2.902953,0.364844 5.74913,-1.320292 8.389225,-2.581301 2.293383,-1.095406 4.026961,-3.171822 6.324187,-4.259146 2.029898,-0.960792 4.446098,-0.928536 6.453254,-1.935975 1.676443,-0.841447 4.517276,-3.355692 4.517276,-3.355692 0.452048,-0.963526 -2.035521,-0.843676 -3.097561,-0.77439 -3.045338,0.198673 -5.646052,2.324293 -8.518293,3.355691 -1.703,0.611533 -3.403744,1.252877 -5.162602,1.677845 -2.626246,0.634543 -5.302659,1.405531 -8.002032,1.290651 -0.886113,-0.03771 -1.729757,-0.397354 -2.581302,-0.645324 -0.783726,-0.228221 -1.582661,-1.117839 -2.323171,-0.774391 -0.420348,0.194957 -0.519168,0.827302 -0.51626,1.290651 z"
     style="fill:#000000;stroke:#000000;stroke-width:0.26458332px;stroke-linecap:butt;stroke-linejoin:miter;stroke-opacity:1;fill-opacity:1" />
  <g
     id="g4695" />
  <path
     id="path4697"
     d="m 69.95325,30.923984 c 2.582771,1.536723 5.732314,1.98834 8.260165,3.613822 1.928809,1.24028 2.400852,2.716781 4.817086,3.850178 0.407303,0.191057 0.986049,1.423777 1.378034,1.699618 3.484756,2.452235 -4.809067,3.968212 -6.066058,5.291665 -2.034834,2.142424 -2.432128,2.5145 -3.742884,5.162602 -0.310679,0.627661 -0.903454,2.065041 -0.387197,2.065041 0.51626,0 4.259147,-3.742885 4.259147,-3.742885 0,0.658106 2.839431,-2.323172 4.517278,-3.226628 1.677845,-0.903455 4.13008,-1.935975 4.13008,-1.935975 0,0 0.358564,3.133489 1.419717,4.13008 1.300965,1.221813 4.365286,1.103758 5.93699,0.258132 1.833079,-0.986254 2.151227,-3.866596 1.935975,-5.936993 -0.169407,-1.629434 -1.290649,-3.484755 -2.452235,-4.259146 -1.161585,-0.77439 -8.081193,-5.277372 -12.519308,-7.098578 -2.143345,-0.879534 -4.396983,-1.701758 -6.711384,-1.806908 -2.006632,-0.09117 -5.450883,-0.916477 -5.93699,1.032518 -0.118707,0.475942 0.740035,0.65264 1.161584,0.903457 z"
     style="fill:#000000;stroke:#000000;stroke-width:0.26458332px;stroke-linecap:butt;stroke-linejoin:miter;stroke-opacity:1;fill-opacity:1" />
  <path
     id="path4699"
     d="m 68.40447,49.638414 c 0,0 4.993788,-0.465388 6.453253,1.161586 1.23829,1.380414 0.277601,3.698608 0.387194,5.549796 0.470917,7.954496 1.858798,15.939169 1.161587,23.877032 -0.474849,5.406231 -2.715167,10.057222 -3.613822,15.874999 -0.16154,1.045792 -1.808082,1.656557 -2.839432,1.419718 -1.375416,-0.315851 -1.656748,-2.289514 -2.581299,-3.355692 -1.614462,-1.861774 -3.290174,-3.689574 -5.162603,-5.291667 -1.523813,-1.30381 -5.248451,-1.509001 -4.90447,-3.484755 0.191573,-1.100356 2.111113,-0.959267 3.226626,-0.903457 2.122459,0.106189 3.81509,2.206356 5.936991,2.323171 1.156643,0.06368 2.476351,-0.149373 3.355691,-0.903454 1.535267,-1.316574 2.004139,-3.577585 2.452235,-5.549797 0.61986,-2.728201 0.115415,-5.595138 0.258131,-8.389228 0.154013,-3.01526 0.920244,-6.027905 0.645326,-9.034553 C 72.961343,60.542106 72.187492,58.220132 71.372967,55.962602 70.582619,53.77208 66.112636,49.22546 68.40447,49.638414 Z"
     style="fill:#000000;stroke:#000000;stroke-width:0.26458332px;stroke-linecap:butt;stroke-linejoin:miter;stroke-opacity:1;fill-opacity:1" />
  <path
     id="path4701"
     d="m 58.853657,59.189228 c -0.695207,1.757515 2.072681,3.374511 3.742888,4.259146 1.22605,0.649384 3.87195,1.806911 4.13008,0.51626 0.25813,-1.290651 3.68449,-1.839095 5.549796,-2.710365 2.774375,-1.295889 5.4025,-2.529261 8.389229,-3.742889 0.712981,-0.289713 1.43712,-1.410382 1.03252,-2.065038 -0.814242,-1.317472 -3.107979,-0.179336 -4.646342,0 -4.830072,0.563069 -9.399849,2.560377 -14.197153,3.355689 -1.321861,0.219142 -3.50816,-0.858769 -4.001018,0.387197 z"
     style="fill:#000000;stroke:#000000;stroke-width:0.26458332px;stroke-linecap:butt;stroke-linejoin:miter;stroke-opacity:1;fill-opacity:1" />
  <path
     id="path4703"
     d="m 56.014228,74.547967 c -0.244186,0.942346 1.151523,1.728696 2.065041,2.065041 3.037586,1.118399 4.081204,0.268388 7.098575,-0.903455 0.914501,-0.35516 3.976528,-1.359461 4.904473,-1.677846 1.139406,-0.390939 4.354493,-1.270302 5.549798,-1.419715 2.774814,-0.346852 3.691536,0.600456 6.195119,-0.645326 0.739882,-0.368165 2.08108,-0.735199 1.935977,-1.548781 -0.238871,-1.339331 -2.514409,-1.201529 -3.871952,-1.290651 -2.492117,-0.163607 -4.916321,0.888747 -7.356707,1.419717 -2.854883,0.621155 -5.671544,1.407612 -8.518293,2.065039 -1.759574,0.406355 -3.540673,0.719718 -5.291666,1.161587 -0.911046,0.229906 -2.474673,-0.135176 -2.710365,0.77439 z"
     style="fill:#000000;stroke:#000000;stroke-width:0.26458332px;stroke-linecap:butt;stroke-linejoin:miter;stroke-opacity:1;fill-opacity:1" />
  <path
     id="path4707"
     d="m 24.135162,68.352844 c 1.567144,-1.501503 4.154499,1.602682 6.324187,1.548781 5.116374,-0.127105 9.69126,-3.402614 14.713415,-4.38821 2.163359,-0.424558 4.708562,0.516315 6.582318,-0.645327 0.689907,-0.42771 0.488952,-1.937798 1.290648,-2.065041 2.050988,-0.325526 4.310083,1.977161 4.775409,4.001016 0.306366,1.332485 -0.759432,2.730027 -1.677848,3.742888 -0.232989,0.256948 -0.787786,0.189264 -0.903454,0.516261 -2.849696,8.056163 -5.485618,13.803352 -9.808942,19.746949 -4.742384,6.51971 -10.383229,12.756839 -17.294717,16.907519 -3.289316,1.97539 -7.146431,3.17161 -10.970528,3.48476 -2.686309,0.21998 -7.6516511,1.51084 -8.0020323,-1.16159 -0.042593,-0.32486 3.2997543,0.0934 3.6138213,10e-6 2.637368,-0.78379 2.875493,-0.76203 5.420732,-1.80692 7.26429,-2.9822 13.704639,-7.97455 19.359755,-13.422763 2.168768,-2.089422 3.805984,-4.685629 5.420731,-7.227642 3.343481,-5.263469 7.152961,-10.499747 8.776425,-16.520323 0.291437,-1.080787 0.800865,-2.460305 0.129063,-3.355692 -0.638737,-0.851319 -2.034183,-0.818622 -3.097561,-0.774391 -2.134128,0.08877 -4.067032,1.312525 -6.066057,2.065041 -3.267538,1.230036 -9.679877,4.001016 -9.679877,4.001016 -0.516261,0.129065 -2.109364,2.772943 -3.613822,2.710366 -2.070408,-0.08612 -3.615313,-2.332585 -4.64634,-4.13008 -0.545737,-0.951439 -1.43732,-2.467807 -0.645326,-3.226628 z"
     style="fill:#000000;stroke:#000000;stroke-width:0.26458332px;stroke-linecap:butt;stroke-linejoin:miter;stroke-opacity:1;fill-opacity:1" />
  <path
     id="path4711"
     d="m 104.15549,46.282723 c 2.59832,-1.136928 6.95468,0.543233 7.87296,3.226626 0.53042,1.549971 -1.4324,2.977078 -2.45223,4.259146 -1.57286,1.977307 -3.79991,3.340102 -5.5498,5.162603 -1.64826,1.716649 -2.97454,3.727002 -4.646339,5.42073 -1.006447,1.019645 -1.9499,3.48949 -3.226628,2.839431 -1.655662,-0.842998 0,-5.033536 0.51626,-5.549796 0.516261,-0.516261 3.340597,-5.031552 4.646347,-7.743902 1.17507,-2.440881 0.35762,-6.528888 2.83943,-7.614838 z"
     style="fill:#000000;stroke:#000000;stroke-width:0.26458332px;stroke-linecap:butt;stroke-linejoin:miter;stroke-opacity:1;fill-opacity:1" />
  <path
     id="path4713"
     d="m 90.732722,61.512397 c 2.452236,-10e-7 2.452236,-10e-7 2.452236,-10e-7 4.489266,-2e-6 4.979175,4.486969 7.485772,6.711384 3.16935,2.812556 6.43975,5.512329 9.55081,8.389228 3.30588,3.057052 6.12095,6.663419 9.67988,9.421747 1.83119,1.419248 3.81266,2.689313 5.93699,3.613822 2.62262,1.141363 5.51137,1.687532 8.26017,2.323171 1.86136,0.430425 -1.8611,3.456353 -3.3557,4.64634 -1.64402,1.308951 -3.79654,1.843531 -5.80792,2.452235 -0.88027,0.266398 -2.0671,1.173557 -2.71037,0.51626 -1.97474,-2.017802 -2.96849,-3.871947 -4.38821,-5.033536 -1.41971,-1.161583 -8.77642,-9.292681 -9.67988,-10.970527 -0.90345,-1.677843 -6.06605,-9.292683 -6.84044,-10.067073 -0.77439,-0.774391 -5.302811,-5.292377 -8.131102,-7.743902 -1.365768,-1.18383 -3.356852,-1.789601 -4.259146,-3.355692 -0.303732,-0.527181 1.198491,-0.903455 1.80691,-0.903456 z"
     style="fill:#000000;stroke:#000000;stroke-width:0.26458332px;stroke-linecap:butt;stroke-linejoin:miter;stroke-opacity:1;fill-opacity:1" />
  <path
     id="path4715"
     d="m 32.653454,114.81626 c -0.934989,1.13228 -0.669126,2.94711 -0.387194,4.38821 0.343561,1.75612 1.104404,3.5984 2.452235,4.77541 1.168379,1.0203 4.001017,2.06504 4.388212,1.54878 0.387195,-0.51626 1.419714,-2.19411 1.032521,-2.83943 -0.387198,-0.64533 -1.858804,-3.43265 -2.968498,-5.03354 -0.819129,-1.18171 -1.339543,-2.9218 -2.710365,-3.35569 -0.597204,-0.18903 -1.408059,0.0333 -1.806911,0.51626 z"
     style="fill:#000000;stroke:#000000;stroke-width:0.26458332px;stroke-linecap:butt;stroke-linejoin:miter;stroke-opacity:1;fill-opacity:1" />
  <path
     id="path4717"
     d="m 52.142276,112.62215 c -1.815746,-0.59099 1.079545,3.7412 2.194104,5.29167 1.566191,2.17874 3.394583,5.54286 6.066057,5.29167 1.525231,-0.14341 2.664145,-2.09192 2.839432,-3.61382 0.162966,-1.41492 -0.746872,-2.92071 -1.806911,-3.87196 -1.488479,-1.33572 -3.780316,-1.30728 -5.67886,-1.93597 -1.201163,-0.39775 -3.613822,-1.16159 -3.613822,-1.16159 z"
     style="fill:#000000;stroke:#000000;stroke-width:0.26458332px;stroke-linecap:butt;stroke-linejoin:miter;stroke-opacity:1;fill-opacity:1" />
  <path
     id="path4719"
     d="m 73.308942,111.07337 c 2.025556,1.98677 2.213235,3.37533 3.742886,4.64634 1.465682,1.21786 4.517276,2.71037 5.033536,2.71037 0.51626,0 1.737538,-1.39775 2.323171,-2.32317 0.684012,-1.08088 0,0 1.290651,-3.61382 0.379814,-1.06348 -2.100701,1.11936 -3.226625,1.03252 -1.055061,-0.0814 -2.710367,-0.3872 -2.839432,-1.41972 -0.129065,-1.03252 -1.03252,-2.45223 -1.677844,-2.45223 -0.645327,0 -2.752435,-0.38984 -3.871953,0.25813 -0.402752,0.23311 -1.106609,0.83572 -0.77439,1.16158 z"
     style="fill:#000000;stroke:#000000;stroke-width:0.26458332px;stroke-linecap:butt;stroke-linejoin:miter;stroke-opacity:1;fill-opacity:1" />
  <path
     id="path4721"
     d="m 93.701218,104.49106 c 3.101289,5.04188 9.163622,10.58333 9.292682,11.09959 0.12907,0.51626 2.97372,4.04088 5.1626,5.03354 1.49351,0.67731 4.90447,1.16158 4.90447,0.38719 0,-0.77439 -0.82167,-3.18465 -1.54878,-4.64634 -1.18521,-2.38258 -2.40979,-4.95754 -4.51727,-6.58232 -1.91832,-1.47895 -4.62181,-1.48017 -6.84045,-2.45223 -1.956434,-0.85718 -3.569579,-2.63188 -5.678862,-2.9685 -0.258421,-0.0412 -0.911496,-0.0938 -0.77439,0.12907 z"
     style="fill:#000000;stroke:#000000;stroke-width:0.26458332px;stroke-linecap:butt;stroke-linejoin:miter;stroke-opacity:1;fill-opacity:1" />
  <path
     id="path4723"
     d="m 41.429879,99.070323 c 1.92549,2.033467 3.248868,2.747737 5.1626,3.613817 1.654095,0.74857 3.48692,1.48886 5.291666,1.29066 3.385162,-0.37176 5.899771,-3.54526 9.163619,-4.517281 4.444268,-1.323567 9.201657,-1.161217 13.809959,-1.677844 6.274919,-0.703467 12.573293,-2.680324 18.843495,-1.935978 3.98596,0.47318 7.107392,1.776818 11.357722,4.001016 2.34511,1.227197 7.87297,-0.51626 7.87297,-1.03252 0,-0.516258 3.74289,-1.806906 2.71036,-2.581299 -1.03252,-0.774388 -7.93757,-2.291788 -11.74491,-3.871952 -3.78509,-1.57093 -6.830562,-5.57295 -10.970532,-5.549797 -1.385383,0.0077 -0.744259,2.854001 -1.806911,3.742886 -1.473179,1.232282 -3.87195,1.29065 -5.549797,1.548781 -1.677845,0.25813 -10.103003,0.655273 -15.10061,1.419714 -4.695918,0.718294 -9.294786,1.969169 -13.939022,2.968498 -2.969855,0.639042 -5.905942,1.455213 -8.905489,1.935975 -2.050048,0.328578 -7.622652,-0.862261 -6.19512,0.645324 z"
     style="fill:#000000;stroke:#000000;stroke-width:0.26458332px;stroke-linecap:butt;stroke-linejoin:miter;stroke-opacity:1;fill-opacity:1" />
</svg>
