<?xml version="1.0" encoding="UTF-8" standalone="no"?>
<!-- Created with Inkscape (http://www.inkscape.org/) -->

<svg
   xmlns:dc="http://purl.org/dc/elements/1.1/"
   xmlns:cc="http://creativecommons.org/ns#"
   xmlns:rdf="http://www.w3.org/1999/02/22-rdf-syntax-ns#"
   xmlns:svg="http://www.w3.org/2000/svg"
   xmlns="http://www.w3.org/2000/svg"
   xmlns:sodipodi="http://sodipodi.sourceforge.net/DTD/sodipodi-0.dtd"
   xmlns:inkscape="http://www.inkscape.org/namespaces/inkscape"
   width="512"
   height="512"
   viewBox="0 0 135.46666 135.46667"
   version="1.1"
   id="svg8"
   inkscape:version="0.92.4 (5da689c313, 2019-01-14)"
   sodipodi:docname="U+7252.svg">
  <defs
     id="defs2" />
  <sodipodi:namedview
     id="base"
     pagecolor="#ffffff"
     bordercolor="#666666"
     borderopacity="1.0"
     inkscape:pageopacity="0.0"
     inkscape:pageshadow="2"
     inkscape:zoom="1.33"
     inkscape:cx="343.02163"
     inkscape:cy="231.33689"
     inkscape:document-units="mm"
     inkscape:current-layer="svg8"
     showgrid="false"
     units="px"
     inkscape:window-width="1680"
     inkscape:window-height="971"
     inkscape:window-x="-9"
     inkscape:window-y="-9"
     inkscape:window-maximized="1" />
  <metadata
     id="metadata5">
    <rdf:RDF>
      <cc:Work
         rdf:about="">
        <dc:format>image/svg+xml</dc:format>
        <dc:type
           rdf:resource="http://purl.org/dc/dcmitype/StillImage" />
        <dc:title></dc:title>
      </cc:Work>
    </rdf:RDF>
  </metadata>
  <g
     inkscape:label="圖層 1"
     inkscape:groupmode="layer"
     id="layer1"
     transform="translate(0,-161.53332)" />
  <path
     style="fill:#000000;stroke:#000000;stroke-width:0.26458332px;stroke-linecap:butt;stroke-linejoin:miter;stroke-opacity:1"
     d="M 32.028508,23.267418 C 39.786967,30.429073 40.582707,30.628008 40.582707,31.821617 40.582707,33.015224 34.415727,44.354511 34.614662,45.747056 34.813597,47.139597 36.604008,48.333207 36.604008,48.333207 36.604008,48.333207 38.593357,48.731077 33.222117,50.720426 27.850877,52.709775 25.463659,52.11297 25.264724,50.919361 25.065789,49.725751 26.458333,48.532142 28.845552,44.951316 31.232768,41.370488 35.012532,39.977943 34.614662,35.402443 34.216792,30.826942 32.426378,27.842919 32.227443,25.853571 32.028508,23.864223 32.028508,23.267418 32.028508,23.267418 Z"
     id="path4843"
     inkscape:connector-curvature="0" />
  <path
     style="fill:#000000;stroke:#000000;stroke-width:0.26458332px;stroke-linecap:butt;stroke-linejoin:miter;stroke-opacity:1"
     d="M 13.925438,55.892731 C 18.898809,53.903382 19.694549,54.699122 19.694549,54.699122 19.694549,54.699122 18.50094,55.096991 17.7052,61.065036 16.909461,67.033081 17.904135,74.990475 17.108396,81.953194 16.312656,88.915914 19.097744,99.459459 17.108396,102.44348 15.119047,105.42751 15.516917,109.60514 13.726504,107.01898 11.93609,104.43283 11.140351,106.02431 12.135025,99.459459 13.129699,92.894609 15.317982,85.732958 14.721178,78.969173 14.124373,72.205389 14.124373,64.44693 13.925438,60.269297 13.726504,56.091666 13.925438,55.892731 13.925438,55.892731 Z"
     id="path4845"
     inkscape:connector-curvature="0" />
  <path
     style="fill:#000000;stroke:#000000;stroke-width:0.26458332px;stroke-linecap:butt;stroke-linejoin:miter;stroke-opacity:1"
     d="M 15.715852,70.017105 C 15.715852,74.592605 14.721178,76.581954 17.7052,76.581954 20.689223,76.581954 28.049812,72.205389 30.039159,71.011779 32.028508,69.81817 34.017857,70.017105 33.619987,72.603259 33.222117,75.18941 33.619987,83.146804 32.227443,90.109523 30.834898,97.072242 29.243422,99.061592 31.630638,101.84668 34.017857,104.63177 34.415727,105.42751 35.012532,104.63177 35.609336,103.83603 37.001878,102.24455 36.802943,95.480763 36.604008,88.716979 35.609336,82.947869 36.604008,76.979824 37.598683,71.011779 42.373121,68.425625 39.786967,67.629886 37.200813,66.834146 34.415727,67.430951 31.630638,68.027756 28.845552,68.62456 21.286027,70.21604 20.092418,70.613909 18.898809,71.011779 15.715852,70.017105 15.715852,70.017105 Z"
     id="path4847"
     inkscape:connector-curvature="0" />
  <path
     style="fill:#000000;stroke:#000000;stroke-width:0.26458332px;stroke-linecap:butt;stroke-linejoin:miter;stroke-opacity:1"
     d="M 49.534775,40.176878 C 55.701755,42.365162 60.87406,43.558772 62.664474,43.956641 64.454886,44.354511 68.234649,45.945991 69.826126,43.160902 71.417605,40.375813 82.557958,39.381141 82.557958,39.381141 82.557958,39.381141 89.122807,38.585401 98.472743,37.789662 107.82268,36.993922 105.23653,36.993921 112.79605,37.192857 118.97371,37.355428 113.59179,31.224812 113.59179,31.224812 111.24088,29.069812 106.03227,33.413094 102.65037,33.810964 99.268482,34.208833 83.15476,37.192857 76.390975,38.187532 69.627191,39.182206 62.067669,41.967293 59.68045,41.370488 57.293231,40.773683 49.534775,40.176878 49.534775,40.176878 Z"
     id="path4849"
     inkscape:connector-curvature="0"
     sodipodi:nodetypes="csscssssssc" />
  <path
     style="fill:#000000;stroke:#000000;stroke-width:0.26458332px;stroke-linecap:butt;stroke-linejoin:miter;stroke-opacity:1"
     d="M 57.094297,27.047179 C 57.890036,30.031203 60.47619,32.418422 61.6698,36.397117 62.863406,40.375813 64.852756,44.553446 65.648495,46.940663 66.444235,49.327882 66.046365,53.903382 67.438909,56.290601 68.831454,58.67782 70.025061,62.457581 70.025061,57.88208 70.025061,53.306577 69.627191,49.128947 69.826126,46.940663 70.025061,44.752381 72.41228,42.961967 69.627191,38.983271 66.842105,35.004573 66.444235,33.810964 64.454886,31.025877 62.465539,28.240789 60.277255,27.246114 58.884711,27.047179 57.492166,26.848244 57.094297,27.047179 57.094297,27.047179 Z"
     id="path4851"
     inkscape:connector-curvature="0" />
  <path
     style="fill:#000000;stroke:#000000;stroke-width:0.26458332px;stroke-linecap:butt;stroke-linejoin:miter;stroke-opacity:1"
     d="M 71.019735,20.8802 C 73.605889,25.455701 75.993108,27.047179 76.98778,31.423747 77.982455,35.800313 77.584585,38.585401 78.579259,42.365162 79.573934,46.144926 78.778194,49.526816 80.568608,50.919361 82.359023,52.311905 83.950499,53.704447 83.950499,49.725751 83.950499,45.747056 84.149434,43.956641 83.353695,39.182206 82.557958,34.407768 82.75689,31.423747 81.762218,28.837593 80.767543,26.251441 80.767543,23.466353 77.38565,22.471679 74.003759,21.477005 71.019735,20.8802 71.019735,20.8802 Z"
     id="path4853"
     inkscape:connector-curvature="0" />
  <path
     style="fill:#000000;stroke:#000000;stroke-width:0.26458332px;stroke-linecap:butt;stroke-linejoin:miter;stroke-opacity:1"
     d="M 96.284459,14.116416 C 97.279133,19.487656 98.671678,20.482331 97.677003,24.461027 96.682329,28.439723 95.488722,31.622682 94.494047,35.203508 93.499373,38.784336 92.305763,40.574748 91.907893,44.752381 91.510023,48.930012 90.714284,50.720426 93.499373,51.914035 96.284459,53.107642 97.478068,51.317231 98.472743,47.139597 99.467417,42.961967 99.666352,40.176878 101.25783,35.999248 102.84931,31.821617 103.44611,30.826942 104.63972,26.848244 105.83333,22.869549 106.82801,21.874874 103.84398,19.089787 100.85996,16.304699 96.284459,14.116416 96.284459,14.116416 Z"
     id="path4855"
     inkscape:connector-curvature="0" />
  <path
     style="fill:#000000;stroke:#000000;stroke-width:0.26458332px;stroke-linecap:butt;stroke-linejoin:miter;stroke-opacity:1"
     d="M 57.890036,59.672492 C 57.691101,61.661841 57.094297,66.436276 59.879385,65.043734 62.664474,63.65119 68.234649,60.866101 69.428259,60.269297 70.621865,59.672492 79.573934,60.269297 83.751564,59.07569 87.929198,57.88208 96.085524,58.081015 99.666352,58.081015 103.24718,58.081015 105.23653,61.462906 106.43014,57.88208 107.62375,54.301252 106.03227,52.709775 102.84931,53.306577 99.666352,53.903382 95.886592,54.500187 90.913219,55.295926 85.939849,56.091666 82.557958,57.48421 76.788845,57.683145 71.019735,57.88208 72.213345,56.887406 67.438909,58.081015 62.664474,59.274625 57.890036,59.672492 57.890036,59.672492 Z"
     id="path4857"
     inkscape:connector-curvature="0" />
  <path
     style="fill:#000000;stroke:#000000;stroke-width:0.26458332px;stroke-linecap:butt;stroke-linejoin:miter;stroke-opacity:1"
     d="M 46.550751,74.79154 C 46.550751,77.178759 46.749686,81.953194 50.728382,80.56065 54.70708,79.168108 59.68045,76.780889 60.675125,75.985149 61.6698,75.18941 73.605889,73.9958 78.579259,72.802191 83.55263,71.608584 100.85996,70.21604 105.83333,70.017105 110.8067,69.81817 117.37155,72.205389 122.74279,73.001126 128.11403,73.796865 130.30232,73.796865 129.70551,71.807519 129.10871,69.81817 129.70551,67.828821 125.13001,67.232016 120.55451,66.635211 118.16729,67.828821 114.1886,68.027756 110.2099,68.22669 86.138783,67.828821 81.961153,69.221365 77.78352,70.613909 67.438909,72.802191 61.470865,73.001126 55.50282,73.200061 46.550751,74.79154 46.550751,74.79154 Z"
     id="path4859"
     inkscape:connector-curvature="0" />
  <path
     style="fill:#000000;stroke:#000000;stroke-width:0.26458332px;stroke-linecap:butt;stroke-linejoin:miter;stroke-opacity:1"
     d="M 80.767543,69.02243 C 77.982455,67.033081 74.799499,64.645865 78.380324,64.247995 81.961153,63.850125 85.939849,65.640539 86.934523,66.834146 87.929198,68.027756 89.122807,72.802191 88.327067,77.775564 87.531328,82.748934 86.337718,84.141478 86.536653,90.905263 86.735588,97.669047 87.133458,99.260524 87.332393,103.83603 87.531328,108.41153 87.133458,108.61046 84.746239,111.59449 82.359023,114.57851 81.961153,110.99768 79.971804,108.41153 77.982455,105.82537 76.819651,104.60838 75.794173,102.44348 74.00376,98.663716 78.579259,101.24987 80.568608,102.04561 82.557958,102.84135 83.353695,98.066917 83.55263,94.883958 83.751564,91.701002 84.547304,85.335088 84.547304,81.157455 84.547304,76.979824 84.945174,74.79154 83.751564,72.802191 82.557958,70.812844 80.767543,69.02243 80.767543,69.02243 Z"
     id="path4861"
     inkscape:connector-curvature="0"
     sodipodi:nodetypes="csssssccsssscc" />
  <path
     style="fill:#000000;stroke:#000000;stroke-width:0.26458332px;stroke-linecap:butt;stroke-linejoin:miter;stroke-opacity:1"
     d="M 63.460211,80.95852 C 63.858081,86.130825 66.2453,90.308458 65.05169,92.894609 63.858081,95.480763 62.863406,101.64774 60.87406,97.867982 58.884711,94.088219 58.884711,91.303133 59.879385,88.915914 60.87406,86.528695 63.460211,80.95852 63.460211,80.95852 Z"
     id="path4863"
     inkscape:connector-curvature="0" />
  <path
     style="fill:#000000;stroke:#000000;stroke-width:0.26458332px;stroke-linecap:butt;stroke-linejoin:miter;stroke-opacity:1"
     d="M 97.677003,77.775564 C 102.25251,80.16278 108.22055,83.146804 109.21522,85.136153 110.2099,87.125499 114.7854,94.486089 112.19925,95.082893 109.61309,95.679698 107.02694,94.088219 104.83866,89.910588 102.65037,85.732958 97.875938,78.571303 97.875938,78.571303 Z"
     id="path4865"
     inkscape:connector-curvature="0" />
</svg>
