<?xml version="1.0" encoding="UTF-8" standalone="no"?>
<svg
   xmlns:dc="http://purl.org/dc/elements/1.1/"
   xmlns:cc="http://creativecommons.org/ns#"
   xmlns:rdf="http://www.w3.org/1999/02/22-rdf-syntax-ns#"
   xmlns:svg="http://www.w3.org/2000/svg"
   xmlns="http://www.w3.org/2000/svg"
   id="svg8"
   version="1.1"
   viewBox="0 0 135.46666 135.46667"
   height="512"
   width="512">
  <defs
     id="defs2" />
  <metadata
     id="metadata5">
    <rdf:RDF>
      <cc:Work
         rdf:about="">
        <dc:format>image/svg+xml</dc:format>
        <dc:type
           rdf:resource="http://purl.org/dc/dcmitype/StillImage" />
        <dc:title></dc:title>
      </cc:Work>
    </rdf:RDF>
  </metadata>
  <path
     id="path4652"
     d="m 36.396341,20.469715 c -3.694323,1.179085 6.598554,3.686473 10.067072,5.420732 2.219853,1.109926 3.23138,2.469907 5.549799,3.355692 1.420872,0.542865 3.447532,1.726633 4.517276,0.645324 1.193903,-1.20681 -0.01665,-3.514447 -0.77439,-5.033536 -1.072805,-2.15073 -2.897477,-4.060877 -5.033537,-5.162602 -1.741289,-0.898112 -5.291666,-0.903455 -5.807927,-0.903455 -0.51626,0 -4.989368,0.551549 -8.518293,1.677845 z"
     style="fill:#000000;stroke:none;stroke-width:0.26458332px;stroke-linecap:butt;stroke-linejoin:miter;stroke-opacity:1" />
  <path
     id="path4654"
     d="m 17.552845,56.091666 c -1.554553,0.445687 1.180943,3.114337 2.323171,4.259146 1.074327,1.076755 2.616766,2.824527 4.001016,2.194105 8.852203,-4.031511 16.966879,-8.89865 25.942072,-13.551829 0.688549,-0.356977 0.377224,1.73563 -0.129063,2.323172 -13.187803,15.304348 -18.264883,24.288792 -29.94309,35.492884 -2.235425,2.144671 -6.045425,5.675436 -8.647358,7.356709 -0.614286,0.396929 -1.9325416,0.30116 -1.9359753,1.03252 -0.00253,0.539054 -0.3871949,0.903456 1.4197153,0.774391 1.806911,-0.129065 11.101155,-7.980659 15.61687,-12.26118 7.03762,-6.671076 12.067579,-13.653533 18.198171,-21.166667 3.628497,-4.446779 6.229169,-8.887917 10.196137,-13.035567 1.667615,-1.743569 4.638545,-2.782487 5.807926,-5.291668 0.701259,-1.504716 0.09804,-2.887959 -1.548778,-3.097561 -2.384212,-0.303455 -5.549799,3.742886 -6.195123,3.871951 -0.645324,0.129065 -5.779708,3.689195 -9.550813,5.033539 -3.178985,1.133261 -9.034552,2.065039 -10.97053,2.581299 -1.935974,0.516261 -10.35919,2.273413 -14.584348,3.484756 z"
     style="fill:#000000;stroke:none;stroke-width:0.26458332px;stroke-linecap:butt;stroke-linejoin:miter;stroke-opacity:1" />
  <path
     id="path4656"
     d="m 43.365853,59.189228 c 0.234651,1.589039 1.631227,2.911682 1.677845,4.517276 0.451323,15.544398 -1.563527,30.522056 -2.065041,44.011176 -0.04441,1.19452 0.614076,3.02003 1.806911,3.09756 1.193608,0.0776 1.198456,-1.05043 1.548782,-2.1941 0.795419,-2.59673 0.158619,-6.06076 0.129065,-8.776427 -0.112456,-10.33355 0.731786,-20.656569 1.290648,-30.975609 0.17488,-3.229056 1.569054,-6.282501 0.645327,-9.679876 -0.465398,-1.711688 -3.396827,-2.99964 -4.904473,-2.065041 -0.586194,0.363385 -0.229817,1.38275 -0.129064,2.065041 z"
     style="fill:#000000;stroke:none;stroke-width:0.26458332px;stroke-linecap:butt;stroke-linejoin:miter;stroke-opacity:1" />
  <path
     id="path4660"
     d="m 53.303862,65.900609 c 0.225589,0.751962 2.39353,2.566755 4.259147,4.388212 1.145196,1.118088 2.581298,2.839429 3.871949,2.839429 1.290651,0 1.382722,-0.533008 2.065042,-1.548779 0.686943,-1.022653 1.435847,-1.671048 0.77439,-2.710367 -0.956313,-1.502613 -2.770254,-2.249086 -4.259146,-3.226625 -1.610331,-1.05727 -3.129665,-2.545738 -5.033537,-2.839432 -0.825565,-0.127353 -2.036615,-0.208333 -2.452235,0.51626 -0.135381,0.236023 0,0 0.77439,2.581302 z"
     style="fill:#000000;stroke:none;stroke-width:0.26458332px;stroke-linecap:butt;stroke-linejoin:miter;stroke-opacity:1" />
  <path
     id="path4662"
     d="m 77.826218,41.507317 c 0.85614,3.129052 1.364465,6.315126 3.871952,7.743902 1.573935,0.896834 3.656194,0.02267 5.420731,-0.387194 3.346191,-0.777252 9.496925,-5.357053 9.808942,-1.935977 0.487546,5.345638 -2.335932,8.26012 -1.54878,13.2937 0.172821,1.105132 0.645325,3.484754 1.29065,3.097559 0.645326,-0.387196 4.259147,-2.452235 4.259147,-3.742885 0,-1.290651 2.84166,-8.993617 3.74289,-13.551829 0,0 5.36376,-2.207196 5.80792,-4.646343 0.28683,-1.575173 -1.31071,-3.00742 -2.45223,-4.130079 -0.49459,-0.486419 -1.24966,-0.619363 -1.80691,-1.032521 -0.85564,-0.634394 0.38719,-2.323171 -2.32317,-2.194105 -2.71037,0.129064 -4.517279,1.806909 -4.775409,2.452235 -0.25813,0.645324 -2.359449,2.710219 -4.001016,3.097562 -4.264891,1.00634 -7.756427,3.313941 -12.519311,4.001016 -1.716492,0.247614 -5.233094,-3.737816 -4.775406,-2.065041 z"
     style="fill:#000000;stroke:none;stroke-width:0.26458332px;stroke-linecap:butt;stroke-linejoin:miter;stroke-opacity:1" />
  <path
     id="path4664"
     d="m 77.826218,64.997155 c 4.228671,-0.385556 13.293699,-3.613821 14.068089,-3.742886 0.77439,-0.129066 6.761677,-1.939576 10.196143,-1.677847 2.07554,0.15817 4.56802,0.36792 5.93699,1.935974 0.63267,0.724679 1.10931,2.081985 0.51626,2.839432 -0.85036,1.086085 -2.75245,0.188596 -4.13008,0.25813 -3.3539,0.169284 -9.550814,0.258132 -10.067075,0.387197 -0.516261,0.129065 -4.525789,1.818554 -6.840448,2.581298 -2.250661,0.741654 -4.628467,2.786078 -6.840447,1.935978 -1.660139,-0.638018 -4.610604,-4.355787 -2.839432,-4.517276 z"
     style="fill:#000000;stroke:none;stroke-width:0.26458332px;stroke-linecap:butt;stroke-linejoin:miter;stroke-opacity:1" />
  <path
     id="path4666"
     d="m 66.726625,36.990041 c 3.160736,0.328632 6.327348,2.064047 8.518292,4.388209 1.968597,2.088295 2.939053,5.055424 3.484758,7.872969 0.720299,3.718995 -0.516262,10.841463 -0.387197,11.357723 0.129065,0.51626 -0.977553,10.171191 -0.51626,15.229676 0.291983,3.201847 0.130273,6.853916 2.065041,9.421746 1.471131,1.952489 5.936991,3.871951 6.453251,3.484756 0.51626,-0.387195 11.349152,1.177422 17.03659,1.03252 5.79903,-0.147745 12.41146,-2.313801 18.0691,-1.677844 2.66921,0.300037 3.79984,1.720741 6.06606,4.001016 1.82213,1.83343 -4.43939,2.568313 -6.96951,3.09756 -4.18611,0.875643 -12.64838,0.516262 -13.16464,0.516262 -0.51626,0 -17.384331,-1.477676 -18.585362,-1.677848 0,0 -8.776424,-3.613819 -8.905489,-4.130079 C 79.762194,89.390446 75.388217,86.100215 75.244917,83.453453 74.739628,74.120737 75.165803,62.099061 73.050812,51.703454 72.28861,47.957078 71.00593,44.287346 69.307926,40.86199 68.61899,39.47221 65.183774,36.829626 66.726625,36.990041 Z"
     style="fill:#000000;stroke:none;stroke-width:0.26458332px;stroke-linecap:butt;stroke-linejoin:miter;stroke-opacity:1" />
</svg>
