<?xml version="1.0" encoding="UTF-8" standalone="no"?>
<svg
   xmlns:dc="http://purl.org/dc/elements/1.1/"
   xmlns:cc="http://creativecommons.org/ns#"
   xmlns:rdf="http://www.w3.org/1999/02/22-rdf-syntax-ns#"
   xmlns:svg="http://www.w3.org/2000/svg"
   xmlns="http://www.w3.org/2000/svg"
   id="svg8"
   version="1.1"
   viewBox="0 0 135.46666 135.46667"
   height="512"
   width="512">
  <defs
     id="defs2" />
  <metadata
     id="metadata5">
    <rdf:RDF>
      <cc:Work
         rdf:about="">
        <dc:format>image/svg+xml</dc:format>
        <dc:type
           rdf:resource="http://purl.org/dc/dcmitype/StillImage" />
        <dc:title></dc:title>
      </cc:Work>
    </rdf:RDF>
  </metadata>
  <g
     id="g4695" />
  <path
     id="path4777"
     d="m 51.496952,35.312193 c -0.481102,1.02888 0.502993,1.967675 0.387194,3.097562 -0.185105,1.806136 -0.678644,3.388328 -2.194105,4.388213 -4.498542,2.968089 -7.308661,4.82547 -13.035569,6.969511 -0.324834,0.121612 -0.671843,0.593456 -0.51626,0.903457 0.797066,1.588163 3.792668,0.0066 5.549797,-0.258131 3.960943,-0.596721 7.081373,-2.309625 10.712397,-4.001018 1.430229,-0.666225 2.423255,-1.28149 4.001016,-1.290649 0.80829,-0.0047 1.647217,0.330944 2.452235,0.258131 1.105746,-0.100013 2.415223,-0.865665 2.710367,-1.935977 0.399463,-1.448614 -0.66419,-3.154251 -1.806911,-4.13008 -0.777651,-0.664076 -1.4922,-0.159765 -2.194105,-0.903455 -0.752855,-0.797667 -0.72862,-2.245829 -1.419717,-3.097564 -0.41288,-0.508852 -1.153198,-0.728999 -1.806911,-0.774387 -0.978688,-0.06795 -2.423879,-0.114301 -2.839428,0.774387 z"
     style="fill:#000000;stroke:none;stroke-width:0.26458332px;stroke-linecap:butt;stroke-linejoin:miter;stroke-opacity:1" />
  <path
     id="path4779"
     d="m 40.268292,49.638415 c 1.084952,2.367762 4.185987,4.113458 4.001016,6.711381 -1.435995,20.168645 -2.576962,33.957979 -2.581299,51.109754 -1.24e-4,0.49052 -0.414843,1.20484 -0.903457,1.16159 -0.920119,-0.0814 -0.678196,-1.76076 -1.290651,-2.45224 -0.902034,-1.01843 -1.871657,-1.54189 -3.226624,-1.41971 -0.545365,0.0492 -1.236695,-0.28678 -1.290652,0.25813 -0.09171,0.92617 1.100659,1.50745 1.548781,2.32317 1.381826,2.51533 2.693574,5.11427 3.484756,7.87296 0.16773,0.58484 -0.143451,1.34985 0.25813,1.80691 0.530482,0.60377 1.29065,1.93598 2.323171,0.64533 1.032521,-1.29065 1.269686,-3.2967 1.419714,-5.03354 1.534048,-17.759377 -0.211318,-38.020293 3.613822,-54.336379 0.250355,-1.067887 3.226626,-0.903454 2.452235,-2.194105 -0.77439,-1.290651 -2.581298,-5.549797 -3.097559,-6.066057 -0.51626,-0.51626 -5.395963,-2.557414 -6.840447,-0.77439 -0.08564,0.10571 0.07239,0.263515 0.129064,0.387196 z"
     style="fill:#000000;stroke:none;stroke-width:0.26458332px;stroke-linecap:butt;stroke-linejoin:miter;stroke-opacity:1" />
  <path
     id="path4781"
     d="m 1.1615854,68.99817 c 1.5239007,2.13827 4.0942116,3.364281 6.453252,4.517277 1.0514485,0.513902 2.1961718,1.191126 3.3556906,1.03252 2.684007,-0.367134 4.438698,-3.135104 6.840447,-4.388212 2.599555,-1.356313 5.359959,-2.39754 8.131098,-3.355692 5.702386,-1.971663 11.576535,-3.416388 17.42378,-4.90447 3.378139,-0.859712 6.737443,-1.889167 10.196137,-2.323171 3.330674,-0.41794 6.821207,0.597685 10.067073,-0.258131 1.4144,-0.372925 3.762766,-0.606384 3.871952,-2.065041 0.156073,-2.085038 -2.951927,-3.546303 -5.033536,-3.742885 -3.045831,-0.28764 -6.756301,2.583352 -9.679877,3.484755 -5.610688,1.729898 -10.260929,1.877424 -16.004066,3.097562 -6.902035,1.466348 -19.876016,5.549798 -20.392276,5.678863 -0.51626,0.129065 -5.862584,1.932801 -8.9054877,2.323169 -2.1762704,0.279189 -5.2610363,-1.751661 -6.58231704,0 -0.18860934,0.250045 0.0763561,0.648399 0.25813014,0.903456 z"
     style="fill:#000000;stroke:none;stroke-width:0.26458332px;stroke-linecap:butt;stroke-linejoin:miter;stroke-opacity:1" />
  <path
     id="path4783"
     d="m 44.269308,64.480894 c 1.307434,-0.157725 3.603305,1.236306 3.097561,2.452235 -1.77743,4.273364 -1.78889,5.416294 -2.065041,8.389229 -0.219752,2.365766 -4.228724,2.236451 -6.066057,3.742885 -4.001679,3.280987 -6.417433,8.287937 -10.583333,11.357724 -3.268481,2.408492 -7.043773,4.259969 -10.970528,5.291667 -1.292576,0.339606 -4.517276,0.77439 -4.001016,0.25813 0.51626,-0.516261 5.196924,-2.619856 7.485772,-4.388213 4.814627,-3.719767 8.997877,-8.243894 12.906505,-12.906504 2.798561,-3.338408 4.900058,-7.206544 7.485771,-10.712397 0.87347,-1.184298 1.249391,-3.308508 2.710366,-3.484756 z"
     style="fill:#000000;stroke:none;stroke-width:0.26458332px;stroke-linecap:butt;stroke-linejoin:miter;stroke-opacity:1" />
  <path
     id="path4785"
     d="m 46.721545,71.837602 c -0.915653,1.60973 1.658478,3.34887 2.839429,4.775406 0.952331,1.150373 2.061909,2.222562 3.355692,2.968496 1.178604,0.679527 2.667272,1.922798 3.871952,1.29065 1.229718,-0.645286 1.615253,-2.688467 1.161584,-4.001016 -0.674747,-1.952168 -3.182391,-2.697577 -5.033536,-3.613822 -1.45141,-0.718391 -3.044644,-1.18047 -4.646343,-1.419714 -0.510595,-0.07627 -1.293523,-0.448741 -1.548778,0 z"
     style="fill:#000000;stroke:none;stroke-width:0.26458332px;stroke-linecap:butt;stroke-linejoin:miter;stroke-opacity:1" />
  <path
     id="path4787"
     d="m 64.145323,43.830488 c -0.843832,1.619632 2.226739,2.982905 3.742889,4.001016 0.80262,0.538969 1.762696,0.841185 2.710365,1.032521 1.223678,0.247063 2.561064,0.531213 3.742886,0.129063 1.215041,-0.413453 1.935974,-1.935974 2.968495,-2.452235 1.03252,-0.51626 10.210501,-3.417585 15.487806,-4.388212 3.865238,-0.710913 7.888796,-0.273692 11.744916,-1.032521 1.28175,-0.25223 4.12716,0.545881 3.09756,-0.258129 -2.5267,-1.973093 -3.03978,-2.321176 -4.90447,-2.968496 -1.32384,-0.459569 -2.61473,-1.495563 -4.001016,-1.290651 -1.345842,0.198934 -2.122442,1.748749 -3.355691,2.323171 -3.11258,1.449776 -6.642851,1.744989 -9.938007,2.710366 -2.898877,0.849279 -5.665123,2.229698 -8.647358,2.710367 -2.676169,0.431338 -5.425769,0.29976 -8.131096,0.129064 -1.518028,-0.09578 -3.814476,-1.994269 -4.517279,-0.645324 z"
     style="fill:#000000;stroke:none;stroke-width:0.26458332px;stroke-linecap:butt;stroke-linejoin:miter;stroke-opacity:1" />
  <path
     id="path4797"
     d="m 74.986787,24.341666 c 2.935774,-0.07912 2.701429,5.285241 4.646343,7.485773 1.134642,1.283767 3.168854,1.728968 4.001015,3.226626 1.2,2.159665 1.167369,4.900185 0.903455,7.356707 -0.501421,4.667239 -2.588144,11.410695 -4.38821,15.745935 -2.309504,5.562158 -4.706368,8.855908 -8.131098,13.80996 -1.955456,2.828669 -4.306452,5.478483 -7.098578,7.485772 -1.078363,0.775246 -2.310267,1.932057 -3.613819,1.677844 -0.86641,-0.168963 -2.673507,-1.76797 -1.806911,-1.935975 0,0 5.033537,-2.83943 7.227643,-4.259147 1.196865,-0.774443 6.287349,-10.31935 8.51829,-16.004064 1.530906,-3.90094 3.355693,-8.905488 4.001017,-10.583333 0.645324,-1.677845 1.576177,-5.940384 0.903456,-8.260162 -1.088285,-3.752789 -5.179029,-7.192227 -5.162602,-11.099594 0.0064,-1.521033 -1.520495,-4.605362 -10e-7,-4.646342 z"
     style="fill:#000000;stroke:none;stroke-width:0.26458332px;stroke-linecap:butt;stroke-linejoin:miter;stroke-opacity:1" />
  <path
     id="path4799"
     d="m 93.443088,28.600812 c 2.705023,-0.517198 4.414551,-0.647003 6.582322,-1.161584 1.74806,-0.414952 3.36865,-1.646951 5.1626,-1.548781 2.75263,0.150632 6.84044,2.581302 7.61483,3.226626 0.77439,0.645324 4.18134,4.686579 2.83943,6.711381 -0.54663,0.824803 -0.90345,1.161587 -2.96849,0 -2.06504,-1.161585 -4.4834,-2.863715 -6.96951,-3.742886 -1.52735,-0.540121 -3.176,-0.645728 -4.77541,-0.903454 -1.28549,-0.207142 -2.638394,-0.09945 -3.87195,-0.51626 -1.314402,-0.444128 -4.976545,-1.80449 -3.613822,-2.065042 z"
     style="fill:#000000;stroke:none;stroke-width:0.26458332px;stroke-linecap:butt;stroke-linejoin:miter;stroke-opacity:1" />
  <path
     id="path4801"
     d="m 89.054878,46.669917 c 1.848798,-1.117957 4.546593,1.714897 5.291667,3.742888 0.597335,1.625867 -0.798132,3.372911 -1.290651,5.033537 -0.994187,3.352097 -3.403502,6.441912 -3.355692,9.938006 0.02382,1.742083 0.450243,3.81137 1.806911,4.904473 2.908956,2.343823 10.583337,1.548781 11.099597,1.548781 0.51626,0 12.99444,-0.318368 19.23069,-1.935977 2.313,-0.599964 6.84044,-1.290651 6.58231,-2.839432 -0.25813,-1.548778 0.49576,-5.194985 -0.51626,-9.292682 -0.15779,-0.63891 1.39857,0.0073 1.93598,0.387196 2.12683,1.503332 3.04507,4.28866 4.00102,6.711381 0.74333,1.883871 2.27556,4.1674 1.29065,5.936993 -0.68822,1.236524 -2.83944,0.774393 -4.00102,1.419715 -1.16159,0.645326 -17.42378,2.065039 -18.06911,2.323171 -0.64532,0.258128 -11.22865,1.29065 -15.358735,0.51626 -4.130082,-0.774391 -7.227643,-1.80691 -8.260164,-3.226627 -0.996759,-1.370544 -4.263886,-5.27275 -3.411328,-7.940438 1.549195,-4.847489 1.217225,-4.191672 1.217225,-4.191672 0,0 0.129529,-0.238155 0.33197,-0.655817 0.503074,-1.037905 1.456415,-3.18434 1.991202,-5.539305 0.219125,-0.964931 0.129065,-2.452235 0,-2.968496 -0.129065,-0.51626 -1.630464,-3.198199 -0.51626,-3.871952 z"
     style="fill:#000000;stroke:none;stroke-width:0.26458332px;stroke-linecap:butt;stroke-linejoin:miter;stroke-opacity:1" />
  <path
     id="path4803"
     d="m 76.019307,72.87012 c 1.788279,-0.518391 3.967713,1.774872 4.259146,3.613822 0.371894,2.346664 -2.235471,4.229529 -3.742886,6.066057 -2.124456,2.588287 -4.561271,4.997059 -7.356707,6.840447 -2.749608,1.813168 -5.747215,4.204303 -9.034553,4.001016 -0.500758,-0.03097 -1.935975,0.129064 -1.29065,-0.77439 0.645325,-0.903454 4.259148,-2.065041 5.420733,-3.613822 1.161584,-1.548778 9.421749,-7.614835 9.421749,-8.518292 0,-0.903454 1.109971,-3.702484 1.677844,-5.549797 0.211906,-0.689339 -0.04733,-1.864251 0.645324,-2.065041 z"
     style="fill:#000000;stroke:none;stroke-width:0.26458332px;stroke-linecap:butt;stroke-linejoin:miter;stroke-opacity:1" />
  <path
     id="path4805"
     d="m 76.019307,81.517478 c -0.93838,0.935904 1.953729,1.954116 3.226628,2.323172 5.54674,1.608186 11.588432,-0.143182 17.294715,-1.032521 2.237257,-0.348682 6.71138,-1.161585 6.58232,-1.677845 -0.12907,-0.516261 -0.58499,-1.663846 -1.29065,-2.065041 -1.72079,-0.978342 -4.51728,-0.903456 -5.936997,-0.129066 -1.419715,0.77439 -9.550813,2.710368 -13.035568,2.839432 -3.484756,0.129066 -6.840448,-0.258131 -6.840448,-0.258131 z"
     style="fill:#000000;stroke:none;stroke-width:0.26458332px;stroke-linecap:butt;stroke-linejoin:miter;stroke-opacity:1" />
  <path
     id="path4807"
     d="m 64.145323,90.293901 c 1.419717,2.581301 7.263119,1.691392 9.163619,4.517276 0.673963,1.002126 0.273594,2.406245 0.25813,3.613822 -0.03985,3.111911 -0.849774,6.180981 -0.903454,9.292681 -0.04758,2.75835 0.51626,7.48577 0.51626,8.26016 0,0.77439 0.427115,5.87684 -1.548781,7.48578 -0.633852,0.51613 -2.581302,0.77439 -2.452237,0 0.129065,-0.77439 -1.935975,-3.09756 -1.935975,-4.38822 0,-1.29065 0.51626,-4.51727 1.032521,-6.84044 0.51626,-2.32317 0.671967,-7.95317 0.129066,-11.87399 C 68.195349,98.850689 67.67206,97.391584 67.113821,95.972764 66.69116,94.898529 66.101435,93.897407 65.56504,92.875202 65.108754,92.00566 63.672084,89.433467 64.145323,90.293901 Z"
     style="fill:#000000;stroke:none;stroke-width:0.26458332px;stroke-linecap:butt;stroke-linejoin:miter;stroke-opacity:1" />
  <path
     id="path4809"
     d="m 72.405488,89.51951 c 0,0 3.787346,0.371496 5.67886,0.25813 5.224439,-0.313123 10.267657,-2.959253 15.487806,-2.581298 2.25264,0.163098 5.178041,0.200952 6.453256,2.065038 1.19248,1.74315 -0.294122,4.214229 -0.387199,6.324187 -0.140354,3.181673 -0.25813,7.872973 -0.25813,9.550813 0,1.67785 0.287182,9.81731 0.645329,14.71342 0.12305,1.68215 1.2478,3.51379 0.51626,5.03353 -0.31056,0.64517 -1.099185,1.27026 -1.806916,1.16159 -1.32847,-0.20399 -2.323171,-2.06504 -2.581301,-3.09756 -0.25813,-1.03252 -3.871953,-6.71139 -4.259146,-7.35671 -0.387197,-0.64533 2.312136,-0.47195 2.839432,-1.03252 0.647147,-0.68798 0.774389,-1.16159 0.645324,-2.45224 -0.129065,-1.29065 -0.416583,-9.20492 -0.387194,-13.809955 0.01346,-2.109775 0.986164,-4.34396 0.25813,-6.324187 -0.262643,-0.714381 -0.814001,-1.479302 -1.548781,-1.677847 -3.258093,-0.88037 -9.034552,2.968495 -9.679876,2.968495 -0.645327,0 -6.050352,1.122311 -8.647359,-0.129064 -1.404372,-0.676701 -4.527287,-3.594999 -2.968495,-3.613822 z"
     style="fill:#000000;stroke:none;stroke-width:0.26458332px;stroke-linecap:butt;stroke-linejoin:miter;stroke-opacity:1" />
  <path
     id="path4811"
     d="m 72.534552,114.68719 c 5.163254,-0.0891 9.713368,-2.85903 14.584349,-2.1941 1.774505,0.24224 4.646342,1.67784 4.904472,2.1941 0.25813,0.51626 4.64634,1.93598 1.935975,2.19411 -2.710365,0.25813 -7.399897,0.42733 -11.099593,0.64532 -2.882586,0.16984 -5.759826,0.49886 -8.647359,0.51626 -0.904462,0.005 -2.452236,1.03252 -2.710365,-0.12906 -0.258131,-1.16159 -0.09658,-3.20716 1.032521,-3.22663 z"
     style="fill:#000000;stroke:none;stroke-width:0.26458332px;stroke-linecap:butt;stroke-linejoin:miter;stroke-opacity:1" />
  <path
     id="path4813"
     d="m 73.825203,104.49106 c 0.434865,1.38462 4.101549,0.55118 5.549796,0.64532 2.713162,0.17636 7.743903,0.12907 8.131098,-0.64532 0.387195,-0.77439 1.29065,-2.32318 0.51626,-2.45224 -0.774391,-0.12907 -2.909897,-0.62396 -4.388212,-0.64533 -2.209007,-0.0319 -6.195122,0.25813 -6.582317,0.77439 -0.387195,0.51626 -3.509345,1.42299 -3.226625,2.32318 z"
     style="fill:#000000;stroke:none;stroke-width:0.26458332px;stroke-linecap:butt;stroke-linejoin:miter;stroke-opacity:1" />
</svg>
