<?xml version="1.0" encoding="UTF-8" standalone="no"?>
<!-- Created with Inkscape (http://www.inkscape.org/) -->

<svg
   xmlns:dc="http://purl.org/dc/elements/1.1/"
   xmlns:cc="http://creativecommons.org/ns#"
   xmlns:rdf="http://www.w3.org/1999/02/22-rdf-syntax-ns#"
   xmlns:svg="http://www.w3.org/2000/svg"
   xmlns="http://www.w3.org/2000/svg"
   xmlns:sodipodi="http://sodipodi.sourceforge.net/DTD/sodipodi-0.dtd"
   xmlns:inkscape="http://www.inkscape.org/namespaces/inkscape"
   width="512"
   height="512"
   viewBox="0 0 135.46666 135.46667"
   version="1.1"
   id="svg8"
   inkscape:version="0.92.4 (5da689c313, 2019-01-14)"
   sodipodi:docname="U+7B8B.svg">
  <defs
     id="defs2" />
  <sodipodi:namedview
     id="base"
     pagecolor="#ffffff"
     bordercolor="#666666"
     borderopacity="1.0"
     inkscape:pageopacity="0.0"
     inkscape:pageshadow="2"
     inkscape:zoom="1.33"
     inkscape:cx="343.02163"
     inkscape:cy="231.33689"
     inkscape:document-units="mm"
     inkscape:current-layer="svg8"
     showgrid="false"
     units="px"
     inkscape:window-width="1680"
     inkscape:window-height="971"
     inkscape:window-x="-9"
     inkscape:window-y="-9"
     inkscape:window-maximized="1" />
  <metadata
     id="metadata5">
    <rdf:RDF>
      <cc:Work
         rdf:about="">
        <dc:format>image/svg+xml</dc:format>
        <dc:type
           rdf:resource="http://purl.org/dc/dcmitype/StillImage" />
        <dc:title></dc:title>
      </cc:Work>
    </rdf:RDF>
  </metadata>
  <g
     inkscape:label="圖層 1"
     inkscape:groupmode="layer"
     id="layer1"
     transform="translate(0,-161.53332)" />
  <path
     style="fill:#000000;stroke:none;stroke-width:0.26458332px;stroke-linecap:butt;stroke-linejoin:miter;stroke-opacity:1"
     d="M 19.296679,29.235463 C 22.651719,35.903714 22.796001,39.237337 26.657268,42.961967 29.79597,45.989601 25.000446,51.544462 24.66792,55.892731 24.445443,58.801948 24.792117,61.730798 24.667919,64.645865 24.435618,70.098247 24.214151,75.582543 23.275376,80.95852 22.389955,86.028958 21.533751,91.24303 19.296679,95.878633 16.927606,100.78776 13.499557,105.25278 9.5488722,109.00833 7.8159972,110.65561 3.5808271,112.98703 3.5808271,112.98703 1.1792046,114.04242 4.4221759,107.6786 5.7691101,105.42751 7.911961,101.84622 12.424291,100.15887 14.721178,96.674373 17.65582,92.222365 19.275652,86.946287 20.490288,81.754259 21.157661,78.90154 21.035016,75.920096 21.286027,73.001126 21.707828,68.096066 22.247751,63.197648 22.479636,58.27995 22.713907,53.311657 24.133351,48.116141 22.678571,43.359837 21.828488,40.580549 18.257345,39.051639 17.7052,36.198182 17.252911,33.860777 18.226637,27.108719 19.296679,29.235463 Z"
     id="path4812"
     inkscape:connector-curvature="0"
     sodipodi:nodetypes="ssaaaaasaaaaaaas" />
  <path
     style="fill:#000000;stroke:none;stroke-width:0.26458332px;stroke-linecap:butt;stroke-linejoin:miter;stroke-opacity:1"
     d="M 39.786967,16.105764 C 42.190078,21.338335 47.630185,21.583607 48.739035,25.853571 49.527351,28.889219 47.970059,32.207759 46.550751,35.004573 45.763064,36.556747 44.568133,37.948031 43.168858,38.983271 40.613958,40.873488 37.390884,41.645501 34.415727,42.763032 30.764259,44.134599 24.348711,42.593876 23.275376,46.343858 22.964637,47.429509 24.458221,48.41592 25.463659,48.930012 27.003269,49.717232 28.937644,49.653189 30.635964,49.327882 37.59731,47.994462 42.16956,44.017726 49.733707,39.977943 51.180727,39.205133 48.248582,36.817856 48.540101,35.203508 48.768904,33.936463 49.931313,33.031707 50.728382,32.020552 52.385244,29.918672 56.145661,28.728505 56.099625,26.052506 56.055258,23.473544 52.837773,21.966744 50.728382,20.482331 48.349681,18.8084 45.465838,17.996064 42.770991,16.901503 42.051886,16.609426 41.347093,16.24043 40.582707,16.105764 40.321483,16.059743 39.676266,15.864723 39.786967,16.105764 Z"
     id="path4814"
     inkscape:connector-curvature="0"
     sodipodi:nodetypes="saaaaaaasaaaaaas" />
  <path
     style="fill:#000000;stroke:none;stroke-width:0.26458332px;stroke-linecap:butt;stroke-linejoin:miter;stroke-opacity:1"
     d="M 21.683897,62.656515 C 21.286027,66.834146 23.275376,67.828821 23.275376,67.828821 23.275376,67.828821 24.27005,66.237341 29.840224,65.242669 35.410401,64.247995 41.577381,59.871427 42.572056,61.860776 43.566728,63.850125 42.572056,66.436276 42.572056,71.807519 42.572056,77.178759 44.163532,83.743608 41.776316,86.72763 39.389097,89.711653 38.195488,92.894609 39.786967,94.486089 41.378446,96.077568 45.556077,102.64242 45.556077,97.867982 45.556077,93.093544 44.959272,86.130825 45.357142,77.974499 45.755012,69.81817 46.152882,65.242669 48.142231,62.656515 50.131577,60.070362 46.948621,57.48421 43.765663,56.290601 40.582707,55.096991 40.383772,60.468231 37.399748,60.070362 34.415727,59.672492 22.081767,61.462906 21.683897,62.656515 Z"
     id="path4816"
     inkscape:connector-curvature="0" />
  <path
     style="fill:#000000;stroke:none;stroke-width:0.26458332px;stroke-linecap:butt;stroke-linejoin:miter;stroke-opacity:1"
     d="M 62.863409,8.7451755 C 66.651524,15.898325 71.417605,18.492982 75.197368,26.450376 78.977129,34.407768 79.374999,39.182206 83.15476,42.763032 86.934523,46.343858 90.316414,49.526816 91.907893,50.123621 93.499373,50.720426 97.279133,52.908707 91.311089,46.343858 85.343044,39.779008 84.547304,36.596052 81.364348,30.230138 78.18139,23.864223 77.982455,18.890852 74.003759,14.912155 70.025061,10.933458 65.250626,4.368609 63.261277,5.562218 61.27193,6.7558269 62.516441,8.0899911 62.863409,8.7451755 Z"
     id="path4818"
     inkscape:connector-curvature="0"
     sodipodi:nodetypes="sssssssss" />
  <path
     style="fill:#000000;stroke:none;stroke-width:0.26458332px;stroke-linecap:butt;stroke-linejoin:miter;stroke-opacity:1"
     d="M 66.444235,32.020552 C 77.584585,34.009898 79.812284,35.100868 85.144109,31.423747 90.913218,27.44505 100.06423,18.691917 99.069546,15.310024 99.865287,8.3473056 97.677003,6.5568922 99.865287,8.3473056 102.05357,10.137719 105.23653,10.933458 106.82801,15.50896 108.41949,20.084461 108.81736,23.466353 107.82268,24.461027 106.82801,25.455701 109.21522,24.461027 100.85996,27.445049 92.504698,30.429073 90.714284,35.203508 84.945174,37.192857 79.176064,39.182206 81.563283,40.972618 74.998434,38.386467 68.433584,35.800313 66.444235,32.020552 66.444235,32.020552 Z"
     id="path4822"
     inkscape:connector-curvature="0"
     sodipodi:nodetypes="cscsscsssc" />
  <path
     style="fill:#000000;stroke:none;stroke-width:0.26458332px;stroke-linecap:butt;stroke-linejoin:miter;stroke-opacity:1"
     d="M 98.273808,41.768357 C 102.45144,43.757707 104.63972,44.553446 104.24185,46.343858 103.84398,48.134272 103.64505,49.128947 100.06422,50.720426 96.483394,52.311905 94.494047,53.505512 90.316414,56.091666 86.138783,58.67782 82.75689,60.866101 79.374999,63.054385 75.993108,65.242669 72.41228,69.81817 69.030389,72.006454 65.648495,74.194735 78.977129,62.258646 80.966478,59.274625 82.955825,56.290601 91.311089,47.935337 92.902568,46.144926 94.494047,44.354511 98.273808,41.768357 98.273808,41.768357 Z"
     id="path4824"
     inkscape:connector-curvature="0" />
  <path
     style="fill:#000000;stroke:none;stroke-width:0.26458332px;stroke-linecap:butt;stroke-linejoin:miter;stroke-opacity:1"
     d="M 82.160088,57.285275 C 72.01441,49.725751 74.401626,51.118295 67.239975,43.956641 60.065899,36.782562 59.481516,40.375813 58.088971,41.171553 56.696427,41.967292 56.895362,40.176878 60.675125,47.736402 64.454886,55.295926 72.810149,68.425625 77.186715,73.796865 81.563283,79.168108 97.279133,97.072242 101.0589,101.84668 104.83866,106.62111 110.8067,109.00833 115.97901,113.78277 121.15132,118.55721 131.09806,124.32632 131.69486,123.53058 132.29166,122.73484 129.90445,118.15934 128.11403,114.97638 126.32362,111.79342 128.11403,96.077568 128.11403,96.077568 128.11403,96.077568 124.93108,100.852 121.35025,105.82537 117.76942,110.79875 104.24185,100.2552 93.897242,88.716979 83.55263,77.178759 66.2453,50.123621 70.223996,52.709775 74.202694,55.295926 82.160088,57.285275 82.160088,57.285275 Z"
     id="path4826"
     inkscape:connector-curvature="0"
     sodipodi:nodetypes="csssssssccsssc" />
  <path
     style="fill:#000000;stroke:none;stroke-width:0.26458332px;stroke-linecap:butt;stroke-linejoin:miter;stroke-opacity:1"
     d="M 87.531328,60.269297 C 96.085524,61.860776 97.478068,59.871427 98.273808,60.070362 99.069548,60.269297 102.84931,62.258646 102.45144,64.04906 102.05357,65.839474 98.273808,67.828821 92.902568,70.21604 87.531328,72.603259 83.751564,74.592605 76.58991,79.565975 69.428259,84.539348 71.61654,86.329761 66.2453,84.738283 59.791125,82.825935 60.476189,76.780889 64.454886,76.979824 70.415485,77.277854 68.433584,76.581954 77.982455,73.796865 87.531328,71.011779 93.499373,66.237341 93.499373,65.043734 93.499373,63.850125 88.128133,60.667166 88.128133,60.667166 Z"
     id="path4828"
     inkscape:connector-curvature="0"
     sodipodi:nodetypes="csssssssscc" />
  <path
     style="fill:#000000;stroke:none;stroke-width:0.26458332px;stroke-linecap:butt;stroke-linejoin:miter;stroke-opacity:1"
     d="M 60.675125,103.43816 C 66.64317,105.62644 67.438909,105.02964 67.438909,105.02964 67.438909,105.02964 80.369674,98.066917 85.343044,93.491414 90.316414,88.915914 100.66103,77.178759 102.45144,74.194735 104.24185,71.210714 110.40883,55.892731 110.40883,55.892731 L 110.2099,66.038406 C 110.2099,66.038406 110.2099,70.414974 104.04292,77.775564 97.875938,85.136153 91.510023,94.883958 83.55263,100.852 75.595238,106.82005 68.433584,112.58916 65.05169,112.98703 61.6698,113.3849 58.884711,113.58383 59.68045,108.8094 60.47619,104.03496 60.675125,103.43816 60.675125,103.43816 Z"
     id="path4830"
     inkscape:connector-curvature="0" />
</svg>
