<?xml version="1.0" encoding="UTF-8" standalone="no"?>
<!-- Created with Inkscape (http://www.inkscape.org/) -->

<svg
   xmlns:dc="http://purl.org/dc/elements/1.1/"
   xmlns:cc="http://creativecommons.org/ns#"
   xmlns:rdf="http://www.w3.org/1999/02/22-rdf-syntax-ns#"
   xmlns:svg="http://www.w3.org/2000/svg"
   xmlns="http://www.w3.org/2000/svg"
   xmlns:sodipodi="http://sodipodi.sourceforge.net/DTD/sodipodi-0.dtd"
   xmlns:inkscape="http://www.inkscape.org/namespaces/inkscape"
   width="512"
   height="512"
   viewBox="0 0 135.46666 135.46667"
   version="1.1"
   id="svg8"
   inkscape:version="0.92.4 (5da689c313, 2019-01-14)"
   sodipodi:docname="U+7C21.svg">
  <defs
     id="defs2" />
  <sodipodi:namedview
     id="base"
     pagecolor="#ffffff"
     bordercolor="#666666"
     borderopacity="1.0"
     inkscape:pageopacity="0.0"
     inkscape:pageshadow="2"
     inkscape:zoom="1.33"
     inkscape:cx="332.53049"
     inkscape:cy="260.17067"
     inkscape:document-units="mm"
     inkscape:current-layer="svg8"
     showgrid="false"
     units="px"
     inkscape:window-width="1680"
     inkscape:window-height="971"
     inkscape:window-x="-9"
     inkscape:window-y="-9"
     inkscape:window-maximized="1" />
  <metadata
     id="metadata5">
    <rdf:RDF>
      <cc:Work
         rdf:about="">
        <dc:format>image/svg+xml</dc:format>
        <dc:type
           rdf:resource="http://purl.org/dc/dcmitype/StillImage" />
        <dc:title></dc:title>
      </cc:Work>
    </rdf:RDF>
  </metadata>
  <g
     inkscape:label="圖層 1"
     inkscape:groupmode="layer"
     id="layer1"
     transform="translate(0,-161.53332)" />
  <path
     style="fill:#000000;stroke:none;stroke-width:0.26458332px;stroke-linecap:butt;stroke-linejoin:miter;stroke-opacity:1"
     d="M 32.824248,6.5568922 C 38.991227,12.127067 41.179511,10.336654 39.985902,15.11109 38.792292,19.885526 36.604008,23.068483 32.227443,27.047179 27.850877,31.025877 25.264724,34.805638 21.882832,36.397117 18.50094,37.988597 17.108396,35.999248 16.511591,35.004573 15.914787,34.009898 13.925438,31.224812 16.909461,29.832268 19.893483,28.439723 19.694549,33.413094 22.280701,30.429073 24.866854,27.445049 29.840224,23.665288 31.431703,21.079135 33.023183,18.492982 36.206141,16.304699 34.813597,14.116416 33.421052,11.928133 32.028508,9.9387844 32.426378,8.5462405 32.824248,7.1536967 32.824248,6.5568922 32.824248,6.5568922 Z"
     id="path4878"
     inkscape:connector-curvature="0" />
  <path
     style="fill:#000000;stroke:none;stroke-width:0.26458332px;stroke-linecap:butt;stroke-linejoin:miter;stroke-opacity:1"
     d="M 42.174186,15.906829 C 45.755012,17.498308 45.357142,20.482331 48.142231,19.885526 50.927317,19.288722 54.906015,20.084461 56.895362,19.089787 58.884711,18.095112 64.057016,16.105764 59.68045,15.310025 55.303885,14.514286 54.70708,14.514286 52.717731,14.912155 50.728382,15.310025 48.341166,15.906829 46.152882,15.906829 43.964598,15.906829 42.174186,15.906829 42.174186,15.906829 Z"
     id="path4880"
     inkscape:connector-curvature="0" />
  <path
     style="fill:#000000;stroke:none;stroke-width:0.26458332px;stroke-linecap:butt;stroke-linejoin:miter;stroke-opacity:1"
     d="M 41.179511,26.052506 C 42.770991,30.031203 41.776316,31.224812 42.969926,33.214159 44.163532,35.203508 43.964598,40.574748 46.152882,37.192857 48.341166,33.810964 49.932642,33.810964 48.93797,31.025877 47.943296,28.240789 46.550751,27.445049 45.158207,26.450376 43.765663,25.455701 42.969926,24.659962 42.174186,25.057832 41.378446,25.455701 41.179511,26.052506 41.179511,26.052506 Z"
     id="path4882"
     inkscape:connector-curvature="0" />
  <path
     style="fill:#000000;stroke:none;stroke-width:0.26458332px;stroke-linecap:butt;stroke-linejoin:miter;stroke-opacity:1"
     d="M 31.431703,41.768357 C 33.222117,43.359837 33.023183,45.150251 35.012532,45.747056 37.001878,46.343858 44.561402,42.564097 46.351816,42.166227 48.142231,41.768357 49.136905,41.768357 48.739035,43.757707 48.341166,45.747056 48.341166,45.548121 48.142231,50.322556 47.943296,55.096991 47.346491,55.096991 47.346491,58.876755 47.346491,62.656515 46.351816,65.441604 48.739035,63.65119 51.126252,61.860776 50.728382,60.269297 50.728382,57.086341 50.728382,53.903382 49.33584,52.51084 51.325187,48.930012 53.314536,45.349186 54.508145,45.548121 55.10495,43.359837 55.701755,41.171553 55.90069,40.773683 53.911341,38.784336 51.921991,36.794987 51.524122,36.794987 50.131577,36.993922 50.131577,36.993922 47.545426,40.375815 46.152882,40.17688 44.760338,39.977945 38.991228,41.768358 38.991228,41.768358 38.991228,41.768358 35.609336,40.574749 34.216792,41.171554 32.824248,41.768358 31.431703,41.768357 31.431703,41.768357 Z"
     id="path4884"
     inkscape:connector-curvature="0" />
  <path
     style="fill:#000000;stroke:none;stroke-width:0.26458332px;stroke-linecap:butt;stroke-linejoin:miter;stroke-opacity:1"
     d="M 37.200813,53.306577 C 38.195488,54.898056 39.588032,57.285275 42.174186,55.693796 44.760337,54.102317 50.529447,52.11297 46.749686,51.7151 42.969926,51.317231 41.179511,51.516166 39.786967,51.914035 38.394423,52.311905 37.200813,53.306577 37.200813,53.306577 Z"
     id="path4886"
     inkscape:connector-curvature="0" />
  <path
     style="fill:#000000;stroke:none;stroke-width:0.26458332px;stroke-linecap:butt;stroke-linejoin:miter;stroke-opacity:1"
     d="M 35.410401,61.263971 C 38.195488,65.043734 38.394423,67.430951 40.383772,66.038406 42.373121,64.645865 45.556077,62.457581 48.739035,61.263971 51.921991,60.070362 56.298557,57.086341 52.120926,58.081015 47.943296,59.07569 44.362467,59.672492 42.373121,60.269297 40.383772,60.866101 35.410401,61.263971 35.410401,61.263971 Z"
     id="path4888"
     inkscape:connector-curvature="0" />
  <path
     style="fill:#000000;stroke:none;stroke-width:0.26458332px;stroke-linecap:butt;stroke-linejoin:miter;stroke-opacity:1"
     d="M 22.877506,46.741728 C 31.033833,50.919361 37.001878,53.306577 34.216792,56.091666 31.431703,58.876755 26.458333,103.83603 25.861529,108.61046 25.264724,113.3849 27.254073,114.97638 24.27005,117.9604 21.286027,120.94442 20.490288,119.15401 19.495614,114.57851 18.50094,110.00301 18.302005,105.02964 20.092418,104.8307 21.882832,104.63177 23.275376,106.42218 24.071115,101.44881 24.866854,96.475438 26.856203,83.345739 27.055138,78.969173 27.254073,74.592605 30.238094,64.44693 29.243422,59.672492 28.248747,54.898056 25.065789,55.494861 24.468985,52.709775 23.87218,49.924686 22.877506,46.741728 22.877506,46.741728 Z"
     id="path4898"
     inkscape:connector-curvature="0" />
  <path
     style="fill:#000000;stroke:none;stroke-width:0.26458332px;stroke-linecap:butt;stroke-linejoin:miter;stroke-opacity:1"
     d="M 50.131577,68.62456 C 51.126252,73.9958 53.115601,78.571303 51.126252,84.539348 49.136905,90.507393 47.147556,90.507393 47.147556,92.496739 47.147556,94.486089 45.556077,97.669047 48.142231,99.061592 50.728382,100.45413 51.524122,96.475438 51.325187,93.491414 51.126252,90.507393 53.513471,83.942543 53.911341,79.963845 54.30921,75.985149 53.115601,70.812844 52.120926,70.017105 51.126252,69.221365 50.131577,68.62456 50.131577,68.62456 Z"
     id="path4900"
     inkscape:connector-curvature="0" />
  <path
     style="fill:#000000;stroke:none;stroke-width:0.26458332px;stroke-linecap:butt;stroke-linejoin:miter;stroke-opacity:1"
     d="M 57.691101,71.210714 C 54.110275,72.802191 50.131577,68.62456 50.131577,68.62456 50.131577,68.62456 55.10495,68.22669 57.691101,67.033081 60.277255,65.839474 65.250625,63.054385 69.030389,62.85545 72.810149,62.656515 75.197368,65.242669 75.993108,67.232016 76.788845,69.221365 76.19204,70.414974 75.197368,76.581954 74.202694,82.748934 74.998434,84.738283 74.600564,93.093544 74.202694,101.44881 75.794173,104.2339 74.202694,106.82005 72.611215,109.4062 69.030389,108.41153 68.632519,104.63177 68.234649,100.852 72.213345,96.873307 71.61654,93.491414 71.019735,90.109523 70.621865,86.926564 70.621865,80.56065 70.621865,74.194735 74.003759,69.4203 69.826126,69.02243 65.648495,68.62456 64.057016,68.823495 62.067669,69.81817 60.07832,70.812844 57.691101,71.210714 57.691101,71.210714 Z"
     id="path4902"
     inkscape:connector-curvature="0" />
  <path
     style="fill:#000000;stroke:none;stroke-width:0.26458332px;stroke-linecap:butt;stroke-linejoin:miter;stroke-opacity:1"
     d="M 56.895362,79.168108 C 58.884711,81.157455 58.884711,82.748934 61.072995,81.953194 63.261276,81.157455 66.842105,82.152129 66.842105,81.157455 66.842105,80.16278 66.842105,77.775564 63.858081,78.173433 60.87406,78.571303 56.895362,79.168108 56.895362,79.168108 Z"
     id="path4904"
     inkscape:connector-curvature="0" />
  <path
     style="fill:#000000;stroke:none;stroke-width:0.26458332px;stroke-linecap:butt;stroke-linejoin:miter;stroke-opacity:1"
     d="M 52.717731,87.722304 C 52.518012,90.96814 58.685776,91.303133 61.868734,91.104198 65.05169,90.905263 68.831454,92.496739 70.8208,91.502067 72.810149,90.507393 74.998434,90.706328 73.804824,88.716979 72.611215,86.72763 70.422931,86.32976 66.2453,86.72763 62.067669,87.125499 57.293231,86.72763 56.099625,86.926564 54.906015,87.125499 52.788854,86.566407 52.717731,87.722304 Z"
     id="path4906"
     inkscape:connector-curvature="0"
     sodipodi:nodetypes="asssssa" />
  <path
     style="fill:#000000;stroke:none;stroke-width:0.26458332px;stroke-linecap:butt;stroke-linejoin:miter;stroke-opacity:1"
     d="M 66.64317,36.198182 C 70.223996,40.773683 71.815475,40.773683 71.019735,43.757707 70.223996,46.741728 71.019735,48.731077 71.61654,53.306577 72.213345,57.88208 67.836779,65.242669 73.009084,60.269297 78.18139,55.295926 76.19204,48.333207 75.993108,46.144926 75.794173,43.956641 76.58991,40.773683 73.804824,38.983271 71.019735,37.192857 66.64317,36.198182 66.64317,36.198182 Z"
     id="path4908"
     inkscape:connector-curvature="0" />
  <path
     style="fill:#000000;stroke:none;stroke-width:0.26458332px;stroke-linecap:butt;stroke-linejoin:miter;stroke-opacity:1"
     d="M 92.902568,36.993922 C 87.929198,38.784336 86.735588,39.182206 81.762218,39.182206 76.788845,39.182206 74.998434,41.171553 73.009084,39.182206 71.019735,37.192857 73.208019,38.187532 75.993108,37.192857 78.778194,36.198182 86.536653,35.601378 88.724937,34.805638 90.913219,34.009898 91.708958,31.622682 93.897242,31.821617 96.085524,32.020552 98.870613,32.816292 101.45677,37.789662 104.04292,42.763032 106.2312,39.779008 102.65037,45.747056 99.069548,51.7151 97.478068,66.635211 97.478068,70.613909 97.478068,74.592605 98.273808,83.345739 98.472743,89.114848 98.671678,94.883958 102.25251,106.22324 101.45677,112.78809 100.66103,119.35294 99.666352,122.13803 99.666352,128.50395 99.666352,134.86986 99.865287,139.04749 97.875938,134.47199 95.886592,129.89649 91.112154,123.72951 90.117479,120.74549 89.122807,117.76147 87.730263,112.98703 89.719609,115.37425 91.708958,117.76147 94.494047,123.53058 95.488722,122.93377 96.483394,122.33697 94.891917,109.80407 94.891917,103.43816 94.891917,97.072242 94.891917,92.695674 94.891917,86.926564 94.891917,81.157455 94.494047,81.157455 94.096177,74.194735 93.698308,67.232016 92.703633,66.436276 93.698308,59.871427 94.692982,53.306577 95.090852,53.306577 95.090852,48.134272 95.090852,42.961967 95.886592,38.983271 94.891917,38.386467 93.897242,37.789662 92.902568,36.993922 92.902568,36.993922 Z"
     id="path4910"
     inkscape:connector-curvature="0" />
  <path
     style="fill:#000000;stroke:none;stroke-width:0.26458332px;stroke-linecap:butt;stroke-linejoin:miter;stroke-opacity:1"
     d="M 85.740914,50.123621 C 81.563283,50.720426 76.390975,51.317231 76.788845,49.128947 77.186715,46.940663 79.772869,45.747056 81.165413,45.945991 82.557958,46.144926 87.133458,46.940663 86.934523,47.935337 86.735588,48.930012 85.740914,50.123621 85.740914,50.123621 Z"
     id="path4912"
     inkscape:connector-curvature="0" />
  <path
     style="fill:#000000;stroke:none;stroke-width:0.26458332px;stroke-linecap:butt;stroke-linejoin:miter;stroke-opacity:1"
     d="M 76.58991,62.258646 C 73.208019,60.866101 76.98778,57.88208 77.982455,58.081015 78.977129,58.27995 85.144109,55.295926 87.133458,57.285275 89.122807,59.274625 92.305763,62.656515 88.128133,62.85545 83.950499,63.054385 76.58991,62.258646 76.58991,62.258646 Z"
     id="path4918"
     inkscape:connector-curvature="0" />
  <path
     style="fill:#000000;stroke:none;stroke-width:0.26458332px;stroke-linecap:butt;stroke-linejoin:miter;stroke-opacity:1"
     d="M 72.213345,1.5835213 C 74.998434,1.3845864 78.18139,2.5781955 77.982455,5.5622179 77.78352,8.5462405 74.003759,14.71322 71.815475,16.503634 69.627191,18.294047 67.637844,18.691917 66.842105,18.890852 66.046365,19.089787 69.030389,14.116416 70.621865,11.132393 72.213345,8.1483707 72.213345,1.5835213 72.213345,1.5835213 Z"
     id="path4920"
     inkscape:connector-curvature="0" />
  <path
     style="fill:#000000;stroke:none;stroke-width:0.26458332px;stroke-linecap:butt;stroke-linejoin:miter;stroke-opacity:1"
     d="M 91.112154,15.310025 C 86.735588,15.50896 84.746239,14.514286 81.961153,13.519611 79.176064,12.524937 79.772869,11.530263 79.772869,11.530263 79.772869,11.530263 85.541979,13.718546 88.724937,11.928133 91.907893,10.137719 98.074873,7.949436 100.46209,8.1483707 102.84931,8.3473056 107.02694,7.3526316 107.42481,9.9387844 107.82268,12.524937 109.21522,13.718546 103.64505,14.912155 98.074873,16.105764 91.112154,15.310025 91.112154,15.310025 Z"
     id="path4922"
     inkscape:connector-curvature="0" />
  <path
     style="fill:#000000;stroke:none;stroke-width:0.26458332px;stroke-linecap:butt;stroke-linejoin:miter;stroke-opacity:1"
     d="M 79.971804,16.901503 C 82.955825,17.896178 82.75689,19.686591 85.144109,20.482331 87.531328,21.27807 90.316414,20.482331 88.128133,23.267418 85.939849,26.052506 84.945174,27.445049 83.751564,28.837593 83.751564,28.837593 83.353697,32.617356 80.966479,31.821617 78.579261,31.025877 77.584586,28.837594 77.584586,28.837594 77.584586,28.837594 78.97713,27.246115 79.77287,25.057832 80.568609,22.869549 79.971804,16.901503 79.971804,16.901503 Z"
     id="path4924"
     inkscape:connector-curvature="0" />
</svg>
