<?xml version="1.0" encoding="UTF-8" standalone="no"?>
<!-- Created with Inkscape (http://www.inkscape.org/) -->

<svg
   xmlns:dc="http://purl.org/dc/elements/1.1/"
   xmlns:cc="http://creativecommons.org/ns#"
   xmlns:rdf="http://www.w3.org/1999/02/22-rdf-syntax-ns#"
   xmlns:svg="http://www.w3.org/2000/svg"
   xmlns="http://www.w3.org/2000/svg"
   xmlns:sodipodi="http://sodipodi.sourceforge.net/DTD/sodipodi-0.dtd"
   xmlns:inkscape="http://www.inkscape.org/namespaces/inkscape"
   width="512"
   height="512"
   viewBox="0 0 135.46666 135.46667"
   version="1.1"
   id="svg8"
   inkscape:version="0.92.4 (5da689c313, 2019-01-14)"
   sodipodi:docname="U+8981.svg">
  <defs
     id="defs2" />
  <sodipodi:namedview
     id="base"
     pagecolor="#ffffff"
     bordercolor="#666666"
     borderopacity="1.0"
     inkscape:pageopacity="0.0"
     inkscape:pageshadow="2"
     inkscape:zoom="1.33"
     inkscape:cx="332.53049"
     inkscape:cy="260.17067"
     inkscape:document-units="mm"
     inkscape:current-layer="svg8"
     showgrid="false"
     units="px"
     inkscape:window-width="1680"
     inkscape:window-height="971"
     inkscape:window-x="-9"
     inkscape:window-y="-9"
     inkscape:window-maximized="1" />
  <metadata
     id="metadata5">
    <rdf:RDF>
      <cc:Work
         rdf:about="">
        <dc:format>image/svg+xml</dc:format>
        <dc:type
           rdf:resource="http://purl.org/dc/dcmitype/StillImage" />
        <dc:title></dc:title>
      </cc:Work>
    </rdf:RDF>
  </metadata>
  <g
     inkscape:label="圖層 1"
     inkscape:groupmode="layer"
     id="layer1"
     transform="translate(0,-161.53332)" />
  <path
     style="fill:#000000;stroke:none;stroke-width:0.26458332px;stroke-linecap:butt;stroke-linejoin:miter;stroke-opacity:1"
     d="M 48.739035,20.084461 C 50.728382,25.654636 51.524122,27.643984 54.70708,26.649309 57.890036,25.654636 64.852756,23.466353 67.836779,23.068483 70.8208,22.670614 83.751564,22.073809 86.934523,21.67594 90.117479,21.27807 96.085524,23.267418 93.897242,20.482331 91.708958,17.697243 91.708958,13.320677 87.929198,15.50896 84.149434,17.697243 88.327067,17.299373 80.170739,18.691917 72.01441,20.084461 63.460211,19.487656 59.282581,20.084461 55.10495,20.681266 50.529447,19.089787 49.733707,19.288722 48.93797,19.487656 48.739035,20.084461 48.739035,20.084461 Z"
     id="path4937"
     inkscape:connector-curvature="0" />
  <path
     style="fill:#000000;stroke:none;stroke-width:0.26458332px;stroke-linecap:butt;stroke-linejoin:miter;stroke-opacity:1"
     d="M 35.808271,35.402443 C 39.389097,34.208833 42.572056,33.612029 44.959272,36.596052 47.346491,39.580073 51.723057,48.731077 51.921991,51.914035 52.120926,55.096991 55.50282,60.667166 51.921991,59.871427 48.341166,59.07569 48.142231,56.688471 46.152882,52.11297 44.163532,47.537467 43.566728,41.967292 41.179511,39.977943 38.792292,37.988597 35.808271,35.402443 35.808271,35.402443 Z"
     id="path4939"
     inkscape:connector-curvature="0" />
  <path
     style="fill:#000000;stroke:none;stroke-width:0.26458332px;stroke-linecap:butt;stroke-linejoin:miter;stroke-opacity:1"
     d="M 66.046365,38.585401 C 60.277255,39.580073 60.07832,42.961967 55.90069,41.171553 51.723057,39.381141 48.142231,37.789662 48.93797,35.999248 49.733707,34.208833 51.126252,36.198182 53.911341,36.397117 56.696427,36.596052 61.868734,33.612029 68.234649,33.612029 74.600564,33.612029 90.117479,33.015224 92.106828,32.219487 94.096177,31.423747 95.886592,28.041854 97.677003,29.235463 99.467417,30.429073 104.44079,30.031203 103.44611,34.009898 102.45144,37.988597 100.85996,37.192857 99.666352,39.381141 98.472743,41.569423 97.677003,43.956641 96.085524,50.123621 94.494047,56.290601 95.886592,59.07569 91.708958,60.269297 87.531328,61.462906 85.144109,60.866101 86.138783,57.88208 87.133458,54.898056 89.719609,54.500187 90.913219,47.338532 92.106828,40.176878 95.090852,37.391792 92.106828,36.993922 89.122807,36.596052 88.128133,34.606703 81.563283,36.397117 74.998434,38.187532 66.046365,38.585401 66.046365,38.585401 Z"
     id="path4941"
     inkscape:connector-curvature="0" />
  <path
     style="fill:#000000;stroke:none;stroke-width:0.26458332px;stroke-linecap:butt;stroke-linejoin:miter;stroke-opacity:1"
     d="M 57.094297,30.628008 C 58.287906,34.208833 59.68045,36.596052 60.277255,39.381141 60.87406,42.166227 61.6698,43.160902 62.266604,47.338532 62.863406,51.516166 61.27193,54.898056 64.057016,52.908707 66.842105,50.919361 67.239975,51.317231 66.64317,44.951316 66.046365,38.585401 66.046365,38.585401 66.046365,38.585401 66.046365,38.585401 65.250625,33.214159 63.261276,32.219487 61.27193,31.224812 58.685776,29.434398 58.685776,29.434398 Z"
     id="path4943"
     inkscape:connector-curvature="0" />
  <path
     style="fill:#000000;stroke:none;stroke-width:0.26458332px;stroke-linecap:butt;stroke-linejoin:miter;stroke-opacity:1"
     d="M 72.810149,27.047179 C 73.804824,30.429073 73.605889,32.219487 74.202694,35.601378 74.799499,38.983271 74.998434,39.779008 74.600564,45.548121 74.202694,51.317231 75.794173,51.914035 76.98778,48.532142 78.18139,45.150251 79.374999,41.569423 79.971804,37.988597 80.568608,34.407768 81.762218,32.418422 78.18139,30.230138 74.600564,28.041854 72.810149,27.047179 72.810149,27.047179 Z"
     id="path4945"
     inkscape:connector-curvature="0" />
  <path
     style="fill:#000000;stroke:none;stroke-width:0.26458332px;stroke-linecap:butt;stroke-linejoin:miter;stroke-opacity:1"
     d="M 43.765663,59.274625 C 44.362467,60.866101 46.948621,63.452255 49.136905,62.457581 51.325187,61.462906 60.277256,59.274624 63.062342,59.672494 65.847431,60.070364 83.950499,57.285275 86.735588,58.081015 89.520674,58.876754 90.316414,55.295926 88.128133,55.096991 85.939849,54.898056 77.982455,55.494861 74.600564,55.892731 71.21867,56.290601 63.460211,56.688471 60.277255,56.489536 57.094297,56.290601 43.765663,59.274625 43.765663,59.274625 Z"
     id="path4947"
     inkscape:connector-curvature="0"
     sodipodi:nodetypes="cssssssc" />
  <path
     style="fill:#000000;stroke:none;stroke-width:0.26458332px;stroke-linecap:butt;stroke-linejoin:miter;stroke-opacity:1"
     d="M 4.3765663,80.95852 C 5.5701755,84.340413 7.3605889,88.716979 10.344611,87.921239 13.328634,87.125499 30.039159,82.351064 32.426378,82.152129 34.813597,81.953194 61.6698,79.36704 68.632519,77.775564 75.595238,76.184084 106.82801,80.16278 110.8067,80.16278 114.7854,80.16278 120.15664,85.534023 122.54386,82.748934 124.93108,79.963845 125.72682,74.39367 119.75877,74.194735 113.79073,73.9958 79.374999,73.200061 75.595238,74.194735 71.815475,75.18941 37.001878,76.780889 33.222117,77.974499 29.442357,79.168108 4.3765663,80.95852 4.3765663,80.95852 Z"
     id="path4949"
     inkscape:connector-curvature="0" />
  <path
     style="fill:#000000;stroke:none;stroke-width:0.26458332px;stroke-linecap:butt;stroke-linejoin:miter;stroke-opacity:1"
     d="M 64.653821,62.85545 C 68.831454,65.242669 72.213345,65.043734 69.030389,69.4203 65.84743,73.796865 58.088971,83.544674 56.895362,85.732958 55.701755,87.921239 60.675125,89.512718 64.653821,89.910588 68.632519,90.308458 80.170739,96.475438 87.929198,99.260524 95.687657,102.04561 102.25251,106.42218 102.65037,108.61046 103.04824,110.79875 104.24185,114.18064 100.66103,112.58916 97.080198,110.99768 81.165413,101.05094 78.18139,99.658394 75.197368,98.265852 60.07832,89.711653 55.10495,90.706328 50.131577,91.701002 47.943296,93.889284 47.346491,91.104198 46.749686,88.319109 45.556077,88.518044 49.33584,86.926564 53.115601,85.335088 55.90069,83.544674 57.094297,78.969173 58.287906,74.39367 63.659146,68.62456 63.858081,66.436276 64.057016,64.247995 64.653821,62.85545 64.653821,62.85545 Z"
     id="path4951"
     inkscape:connector-curvature="0" />
  <path
     style="fill:#000000;stroke:none;stroke-width:0.26458332px;stroke-linecap:butt;stroke-linejoin:miter;stroke-opacity:1"
     d="M 79.176064,67.828821 C 82.557958,68.425625 84.746239,70.017105 84.149434,73.001126 83.55263,75.985149 83.353695,81.157455 79.573934,84.141478 75.794173,87.125499 71.61654,94.088219 67.239975,97.867982 62.863406,101.64774 61.072995,107.01898 53.911341,109.00833 46.749686,110.99768 43.566728,111.99236 40.184837,110.00301 36.802943,108.01366 34.813597,105.42751 33.818922,105.02964 32.824248,104.63177 43.168858,108.61046 46.749686,106.22324 50.330512,103.83603 59.68045,99.260524 63.261276,96.077568 66.842105,92.894609 74.401629,86.528695 76.58991,82.152129 78.778194,77.775564 78.579259,76.383019 78.778194,72.802191 78.977129,69.221365 79.176064,67.828821 79.176064,67.828821 Z"
     id="path4953"
     inkscape:connector-curvature="0" />
</svg>
