<?xml version="1.0" encoding="UTF-8" standalone="no"?>
<svg
   xmlns:dc="http://purl.org/dc/elements/1.1/"
   xmlns:cc="http://creativecommons.org/ns#"
   xmlns:rdf="http://www.w3.org/1999/02/22-rdf-syntax-ns#"
   xmlns:svg="http://www.w3.org/2000/svg"
   xmlns="http://www.w3.org/2000/svg"
   id="svg8"
   version="1.1"
   viewBox="0 0 135.46666 135.46667"
   height="512"
   width="512">
  <defs
     id="defs2" />
  <metadata
     id="metadata5">
    <rdf:RDF>
      <cc:Work
         rdf:about="">
        <dc:format>image/svg+xml</dc:format>
        <dc:type
           rdf:resource="http://purl.org/dc/dcmitype/StillImage" />
        <dc:title></dc:title>
      </cc:Work>
    </rdf:RDF>
  </metadata>
  <g
     transform="translate(0,-161.53332)"
     id="layer1" />
  <path
     id="path3724"
     d="M 41.577381,9.5409146 C 44.106975,8.187117 46.828082,12.175288 48.739035,14.315351 50.477327,16.262053 51.951331,18.694372 52.319861,21.27807 52.958929,25.758459 50.763401,30.19966 49.733707,34.606703 48.591755,39.494206 47.910236,44.596097 45.755011,49.128948 45.020176,50.674447 44.410042,53.798574 42.770991,53.306577 41.054992,52.791482 42.346477,49.71272 42.572056,47.935337 42.981501,44.709242 44.859345,41.799049 45.357142,38.585401 45.92567,34.91513 45.762204,31.153367 45.556077,27.445049 45.355681,23.839827 45.167605,20.170944 44.163532,16.702569 43.594287,14.736222 42.01879,13.131322 41.577381,11.132393 41.462992,10.61438 41.109659,9.7912318 41.577381,9.5409146 Z"
     style="fill:#000000;stroke:none;stroke-width:0.26458332px;stroke-linecap:butt;stroke-linejoin:miter;stroke-opacity:1;fill-opacity:1" />
  <path
     id="path3726"
     d="M 30.039159,34.606703 C 27.691511,34.961385 33.475168,38.344013 35.808271,38.784336 37.625792,39.127354 39.374288,37.794548 41.179511,37.391792 44.340226,36.686617 47.513411,35.990418 50.728382,35.601378 54.288759,35.170541 61.470865,35.004573 61.470865,35.004573 62.810677,35.092701 63.401988,32.45477 62.863409,31.224812 62.028622,29.318401 59.172912,28.940729 57.094298,28.837594 53.427636,28.655664 50.11795,31.153021 46.550752,32.020551 43.732567,32.705924 40.862491,33.166715 37.996554,33.61203 35.355143,34.022457 30.039159,34.606703 30.039159,34.606703 Z"
     style="fill:#000000;stroke:none;stroke-width:0.26458332px;stroke-linecap:butt;stroke-linejoin:miter;stroke-opacity:1;fill-opacity:1" />
  <path
     id="path3728"
     d="M 25.264724,50.123621 C 25.264724,50.123621 30.980383,52.160904 33.222117,54.102317 35.419131,56.005001 37.326897,58.490412 38.195488,61.263971 39.146735,64.301462 39.413553,67.872175 38.195488,70.812844 37.800725,71.765887 37.014945,73.221557 36.007206,73.001126 34.142038,72.593143 34.721561,69.404739 34.017857,67.629886 32.63788,64.149365 31.449513,60.563796 29.641292,57.285275 28.744013,55.658402 27.38166,54.322007 26.458333,52.709775 25.98649,51.885884 24.3157,50.151634 25.264724,50.123621 Z"
     style="fill:#000000;stroke:none;stroke-width:0.26458332px;stroke-linecap:butt;stroke-linejoin:miter;stroke-opacity:1;fill-opacity:1" />
  <path
     id="path3730"
     d="M 57.293231,41.370488 C 59.894314,40.702787 62.889874,43.328536 64.057016,45.747056 65.244267,48.207245 64.716094,51.591326 63.261276,53.903382 60.036562,59.028228 58.127846,63.239322 56.298557,67.629886 55.772796,68.891789 54.318054,70.86637 53.115601,70.21604 51.415076,69.296334 53.157166,66.298781 53.712406,64.44693 54.785682,60.86731 57.940683,58.116043 58.884711,54.500187 59.42101,52.446034 59.731123,50.156136 59.083646,48.134272 58.549723,46.467001 56.038096,45.701917 55.90069,43.956641 55.823845,42.980583 56.344899,41.613926 57.293231,41.370488 Z"
     style="fill:#000000;stroke:none;stroke-width:0.26458332px;stroke-linecap:butt;stroke-linejoin:miter;stroke-opacity:1;fill-opacity:1" />
  <path
     id="path3732"
     d="M 17.904135,64.8448 C 16.237592,65.271379 18.940241,68.355486 20.291353,69.4203 21.365042,70.266476 22.920193,70.631096 24.27005,70.414974 27.830615,69.844902 30.190981,66.248752 33.421052,64.645865 36.466136,63.134776 39.706139,62.015626 42.969926,61.065036 48.826179,59.359381 54.822639,58.050299 60.87406,57.285275 63.903166,56.902334 67.138426,57.882122 70.025061,56.887406 70.564373,56.701563 71.303719,56.451681 71.417605,55.892731 71.696882,54.522049 70.623552,52.19835 69.229324,52.311905 62.856349,52.83096 56.300158,54.391734 49.932642,55.892731 42.680567,57.602242 35.630791,60.080329 28.447681,62.05971 24.943237,63.025397 17.904135,64.8448 17.904135,64.8448 Z"
     style="fill:#000000;stroke:none;stroke-width:0.26458332px;stroke-linecap:butt;stroke-linejoin:miter;stroke-opacity:1;fill-opacity:1" />
  <path
     id="path3734"
     d="M 10.543546,83.942543 C 21.993491,80.858714 33.689886,78.346474 45.357142,75.985149 48.723046,75.303927 52.176184,75.047302 55.50282,74.194735 59.30142,73.221211 62.807895,69.5978 66.64317,70.414974 69.029651,70.923457 72.168891,72.953189 72.01441,75.388345 71.942181,76.526924 70.292496,77.791512 69.229324,77.377694 65.480984,75.918728 61.95258,76.010617 58.287906,76.184084 49.428415,76.603448 40.809119,79.314504 32.227443,81.555324 26.505286,83.049475 21.223872,87.236443 15.317982,86.926564 14.161491,86.865884 13.091547,86.186877 12.135025,85.534023 11.515369,85.11109 9.8191298,84.137651 10.543546,83.942543 Z"
     style="fill:#000000;stroke:none;stroke-width:0.26458332px;stroke-linecap:butt;stroke-linejoin:miter;stroke-opacity:1;fill-opacity:1" />
  <path
     id="path3738"
     d="M 43.964598,66.038406 C 44.786206,65.263708 46.307646,65.794623 47.346491,66.237341 49.591204,67.193956 52.512831,68.779281 52.717731,71.210714 52.80906,72.294463 51.087234,72.770181 50.728384,73.796865 48.124356,81.247086 50.003621,89.584686 50.330514,97.470109 50.440927,100.13352 51.608709,102.80584 51.126253,105.42751 50.589529,108.34408 50.089695,113.01305 47.147556,113.3849 43.836506,113.80338 42.437752,108.59972 40.582707,105.82538 39.1816,103.72993 34.98437,97.861018 37.200815,99.061591 41.975251,101.64774 40.246484,101.11174 41.975251,101.64774 43.185306,102.02292 45.907475,103.30329 45.755013,102.04561 45.755013,102.04561 45.348211,98.336871 45.357143,96.475438 45.368954,94.013885 45.854399,91.574417 45.953947,89.11485 46.058534,86.530813 45.867885,83.941112 45.953947,81.356391 46.05347,78.367401 47.414926,75.267393 46.550752,72.404323 46.140682,71.045731 44.419654,70.366625 43.964599,69.022431 43.645649,68.08028 43.2409,66.720784 43.964598,66.038406 Z"
     style="fill:#000000;stroke:none;stroke-width:0.26458332px;stroke-linecap:butt;stroke-linejoin:miter;stroke-opacity:1;fill-opacity:1" />
  <path
     id="path3740"
     d="M 53.314536,80.95852 C 60.675125,86.926564 58.920966,84.299734 60.675125,86.926564 61.712149,88.479493 62.501606,90.4453 62.266604,92.297807 62.120623,93.448564 61.621845,95.100096 60.47619,95.281828 58.480004,95.598477 57.016162,92.988584 55.90069,91.303133 54.36142,88.977332 53.750937,86.100418 53.314536,83.345739 53.190026,82.559801 52.696441,80.457362 53.314536,80.95852 Z"
     style="fill:#000000;stroke:none;stroke-width:0.26458332px;stroke-linecap:butt;stroke-linejoin:miter;stroke-opacity:1;fill-opacity:1" />
  <path
     id="path3742"
     d="M 32.426378,83.743608 C 34.936397,83.921989 34.632383,88.395447 34.813597,90.905263 35.002814,93.525921 35.081236,96.627196 33.421052,98.663722 32.067245,100.32442 29.161821,102.34348 27.453008,101.05094 26.442614,100.28668 27.637405,98.519945 27.850877,97.271178 28.333289,94.449172 28.862039,91.606563 29.840226,88.915915 30.498834,87.104315 30.503623,83.606962 32.426378,83.743608 Z"
     style="fill:#000000;stroke:none;stroke-width:0.26458332px;stroke-linecap:butt;stroke-linejoin:miter;stroke-opacity:1;fill-opacity:1" />
  <path
     id="path3744"
     d="M 71.417605,27.842919 C 70.657958,30.990288 79.374999,33.413094 79.374999,33.413094 83.364384,30.796239 85.429299,30.125088 88.724937,29.235463 94.71313,27.61901 101.02464,27.119795 107.22588,27.246114 110.37625,27.310287 113.42481,28.649918 116.57581,28.638658 118.72352,28.630983 122.12693,29.631143 122.94173,27.643984 123.78703,25.582445 120.81016,23.518777 118.96303,22.272744 117.42969,21.238382 115.41927,20.594985 113.59179,20.880201 112.11944,21.10999 109.81203,23.267418 109.81203,23.267418 101.89015,23.666471 98.705187,22.805555 93.300438,23.864223 90.459411,24.420716 87.98819,26.307576 85.144109,26.848244 82.537498,27.343768 79.831303,26.832416 77.186715,27.047179 75.251841,27.204307 71.873064,25.955862 71.417605,27.842919 Z"
     style="fill:#000000;stroke:none;stroke-width:0.26458332px;stroke-linecap:butt;stroke-linejoin:miter;stroke-opacity:1;fill-opacity:1" />
  <path
     id="path3746"
     d="M 87.332393,29.235464 C 89.810898,28.23421 91.834766,32.554003 92.902568,35.004574 93.884088,37.257131 94.720341,40.359852 93.300438,42.365163 90.328791,46.561981 87.828366,48.435011 84.945174,51.914036 83.999028,53.05571 81.827784,53.492774 80.568609,52.709773 79.748694,52.199919 79.103009,50.620028 79.772869,49.924687 79.772869,49.924687 83.397311,45.66959 84.547304,43.160902 86.02842,39.929874 86.573705,36.326264 87.133458,32.81629 87.280033,31.897176 87.299216,30.961339 87.332393,30.031203 87.341848,29.766125 87.086456,29.334816 87.332393,29.235464 Z"
     style="fill:#000000;stroke:none;stroke-width:0.26458332px;stroke-linecap:butt;stroke-linejoin:miter;stroke-opacity:1;fill-opacity:1" />
  <path
     id="path3748"
     d="M 73.605889,46.74173 C 76.059348,46.672868 78.115723,49.210473 79.374999,51.31723 81.690751,55.191461 81.512616,60.139195 81.762218,64.645864 82.092986,70.618004 81.594883,76.657408 80.568608,82.549998 80.071619,85.403578 80.019524,93.143828 78.181389,90.905262 78.181389,90.905262 76.149011,87.460901 75.794173,85.53402 75.349174,83.117541 76.057582,80.626862 76.192042,78.173433 76.388296,74.592457 76.892721,71.015795 76.788845,67.43095 76.636131,62.16066 77.216827,56.498196 74.998433,51.7151 74.34709,50.310734 71.74657,49.879733 71.815475,48.333206 71.851017,47.535501 72.807707,46.764133 73.605889,46.74173 Z"
     style="fill:#000000;stroke:none;stroke-width:0.26458332px;stroke-linecap:butt;stroke-linejoin:miter;stroke-opacity:1;fill-opacity:1" />
  <path
     id="path3750"
     d="M 94.096177,42.961967 C 93.381552,44.899652 96.652917,46.703805 98.671678,47.139597 101.60288,47.772359 104.51473,43.073098 107.22588,44.354511 108.70659,45.054364 108.77624,47.309924 109.01629,48.930012 109.38678,51.430395 108.50305,53.963236 108.41949,56.489536 108.2463,61.72571 108.54558,66.966857 108.61842,72.205388 108.67928,76.582034 109.22961,77.375322 108.81736,85.335088 108.76153,86.413118 107.42707,82.732806 106.43014,83.146805 104.95908,83.757696 106.0883,86.334805 106.2312,87.921241 106.47511,90.629054 108.0827,93.160544 108.02162,95.878634 107.98764,97.390389 105.96822,99.011289 106.82801,100.2552 107.62339,101.40591 109.85016,101.4415 111.00564,100.65307 112.99949,99.292595 112.6602,96.080799 112.99499,93.690351 113.85036,87.582979 113.0209,81.356337 112.99499,75.189411 112.96183,67.29812 113.28365,59.770694 112.79605,51.516165 112.69924,49.877223 115.44831,49.48825 116.37688,48.134273 117.26836,46.834388 119.19759,44.950568 118.16729,43.757707 118.16729,43.757707 114.156,39.277877 111.40351,38.585401 109.38421,38.077381 107.18836,38.854783 105.23653,39.580075 103.3389,40.285227 102.00265,42.179325 100.06422,42.763033 98.158303,43.336951 94.784916,41.094471 94.096177,42.961967 Z"
     style="fill:#000000;stroke:none;stroke-width:0.26458332px;stroke-linecap:butt;stroke-linejoin:miter;stroke-opacity:1;fill-opacity:1" />
  <path
     id="path3752"
     d="M 84.149434,61.462906 C 84.713778,63.251565 88.174935,63.322491 89.719609,62.258646 89.719609,62.258646 96.909406,59.57931 101.0589,57.48421 102.89774,56.555771 97.943625,54.211615 95.886592,54.102317 92.688177,53.932374 89.952096,56.63609 87.332393,58.478885 86.142885,59.315628 83.71184,60.075974 84.149434,61.462906 Z"
     style="fill:#000000;stroke:none;stroke-width:0.26458332px;stroke-linecap:butt;stroke-linejoin:miter;stroke-opacity:1;fill-opacity:1" />
  <path
     id="path3754"
     d="M 81.563283,75.388345 C 81.775385,77.348489 85.370725,78.260827 87.133458,77.377694 91.389968,75.245173 96.770946,76.846211 99.268482,73.398996 99.813158,72.647209 99.910194,71.284775 99.268482,70.613909 97.203798,68.455423 93.216466,69.500723 90.316414,70.21604 87.633143,70.877887 85.520446,72.964854 83.15476,74.39367 82.619269,74.717093 81.495983,74.766393 81.563283,75.388345 Z"
     style="fill:#000000;stroke:none;stroke-width:0.26458332px;stroke-linecap:butt;stroke-linejoin:miter;stroke-opacity:1;fill-opacity:1" />
  <path
     id="path3756"
     d="M 73.605889,90.308458 C 73.167696,91.755713 74.949388,94.345772 76.390978,93.889284 82.640405,91.910367 87.218188,89.207592 92.902568,87.722304 97.512104,86.517866 102.26437,85.405903 107.02694,85.53402 108.31401,85.568644 110.06927,87.385201 110.8067,86.32976 111.88159,84.791324 109.53431,82.325064 107.82268,81.555324 102.36427,79.100617 95.908917,83.029685 90.117479,84.539348 86.301813,85.533983 82.704473,87.231382 78.977127,88.518042 77.193163,89.133856 74.152786,88.502175 73.605889,90.308458 Z"
     style="fill:#000000;stroke:none;stroke-width:0.26458332px;stroke-linecap:butt;stroke-linejoin:miter;stroke-opacity:1;fill-opacity:1" />
  <path
     id="path3758"
     d="M 83.9505,94.883958 C 86.066229,94.892547 86.476569,98.320272 87.332393,100.2552 87.833492,101.38813 88.766679,102.67785 88.327068,103.83603 87.850584,105.09135 86.123789,105.38109 84.945174,106.02431 82.261934,107.48866 79.326134,108.44128 76.58991,109.80407 75.102427,110.54492 73.66528,112.99959 72.213345,112.19129 71.168842,111.60981 71.00352,109.24858 72.01441,108.61046 76.479807,105.79168 76.970479,104.94838 78.97713,102.64242 80.993671,100.32509 80.878644,94.871488 83.9505,94.883958 Z"
     style="fill:#000000;stroke:none;stroke-width:0.26458332px;stroke-linecap:butt;stroke-linejoin:miter;stroke-opacity:1;fill-opacity:1" />
  <path
     id="path3760"
     d="M 97.080198,93.292479 C 101.27127,96.696581 106.88149,98.474587 110.60777,102.44348 111.50297,103.39697 112.05579,104.63479 112.59712,105.82537 113.63865,108.11606 116.76367,111.2077 114.98434,112.98703 113.79812,114.17325 111.62579,112.29526 110.2099,111.39555 107.04288,109.3831 104.91881,106.06624 102.45144,103.23922 100.21784,100.68005 96.443382,98.659737 96.085524,95.281828 96.007418,94.544567 96.504721,92.825061 97.080198,93.292479 Z"
     style="fill:#000000;stroke:none;stroke-width:0.26458332px;stroke-linecap:butt;stroke-linejoin:miter;stroke-opacity:1;fill-opacity:1" />
</svg>
