<?xml version="1.0" encoding="UTF-8" standalone="no"?>
<!-- Created with Inkscape (http://www.inkscape.org/) -->

<svg
   xmlns:dc="http://purl.org/dc/elements/1.1/"
   xmlns:cc="http://creativecommons.org/ns#"
   xmlns:rdf="http://www.w3.org/1999/02/22-rdf-syntax-ns#"
   xmlns:svg="http://www.w3.org/2000/svg"
   xmlns="http://www.w3.org/2000/svg"
   xmlns:sodipodi="http://sodipodi.sourceforge.net/DTD/sodipodi-0.dtd"
   xmlns:inkscape="http://www.inkscape.org/namespaces/inkscape"
   width="512"
   height="512"
   viewBox="0 0 135.46666 135.46667"
   version="1.1"
   id="svg8"
   inkscape:version="0.92.4 (5da689c313, 2019-01-14)"
   sodipodi:docname="U+796D.svg"
   inkscape:export-filename="C:\Users\NTUTCSIE\Desktop\圖畫1.png"
   inkscape:export-xdpi="96"
   inkscape:export-ydpi="96">
  <defs
     id="defs2" />
  <sodipodi:namedview
     id="base"
     pagecolor="#ffffff"
     bordercolor="#666666"
     borderopacity="1.0"
     inkscape:pageopacity="0.0"
     inkscape:pageshadow="2"
     inkscape:zoom="2.05"
     inkscape:cx="271.57076"
     inkscape:cy="255.04078"
     inkscape:document-units="px"
     inkscape:current-layer="svg8"
     showgrid="false"
     units="px"
     inkscape:window-width="1920"
     inkscape:window-height="1017"
     inkscape:window-x="-8"
     inkscape:window-y="-8"
     inkscape:window-maximized="1"
     inkscape:snap-text-baseline="true">
    <inkscape:grid
       type="xygrid"
       id="grid3746" />
  </sodipodi:namedview>
  <metadata
     id="metadata5">
    <rdf:RDF>
      <cc:Work
         rdf:about="">
        <dc:format>image/svg+xml</dc:format>
        <dc:type
           rdf:resource="http://purl.org/dc/dcmitype/StillImage" />
        <dc:title></dc:title>
      </cc:Work>
    </rdf:RDF>
  </metadata>
  <path
     style="fill:#000000;stroke:none;stroke-width:0.26458332px;stroke-linecap:butt;stroke-linejoin:miter;stroke-opacity:1"
     d="m 31.595875,16.018851 c 0.77874,3.118817 1.611382,2.662826 2.836154,6.169719 0.260289,0.745285 2.608313,5.372536 2.558263,6.160378 -0.144245,2.270554 -2.311206,4.180603 -3.394281,6.181396 -2.502804,4.623493 -3.868399,7.212954 -7.219411,11.264056 -1.545585,1.868486 -2.77688,3.255101 -5.121194,5.394418 -0.260781,0.237977 -2.217723,1.770913 -1.94059,1.98963 1.893976,1.494748 5.303442,-1.177454 7.143517,-2.738076 1.959054,-1.661532 3.2594,-3.91882 4.864317,-5.924518 2.390674,-2.987673 4.630754,-6.577469 6.848108,-9.69594 1.268842,-1.784491 3.362295,-2.77984 3.681514,-4.946051 0.372808,-2.529865 -0.529838,-5.239285 -1.803977,-7.456439 -1.384442,-2.409093 -3.585682,-4.420959 -6.013258,-5.772727 -0.73336,-0.408363 -2.642507,-1.440234 -2.439162,-0.625846 z"
     id="path4619"
     inkscape:connector-curvature="0"
     sodipodi:nodetypes="ssssssssssssss" />
  <path
     style="fill:#000000;stroke:none;stroke-width:0.26458332px;stroke-linecap:butt;stroke-linejoin:miter;stroke-opacity:1"
     d="m 40.40909,30.114393 c -1.574041,0.446979 2.598311,2.23891 4.20928,2.52557 3.374952,0.600547 6.876915,-0.763198 10.102273,-1.924243 0.860952,-0.30992 1.504174,-1.481836 2.405303,-1.322917 0.419669,0.07401 0.781727,0.540238 0.841857,0.96212 0.361886,2.539058 -1.951658,4.76191 -3.24716,6.97538 -3.017806,5.156167 -7.208995,9.541672 -10.463067,14.552083 -2.857382,4.399613 -4.880898,9.326349 -7.9375,13.589963 -3.774941,5.265616 -8.187253,10.070663 -12.748107,14.672347 -3.918439,3.953518 -7.971799,7.837753 -12.507575,11.064393 -2.9983554,2.132956 -5.8537709,4.13782 -9.6212122,5.411933 -0.97042031,0.328187 1.6230788,1.505175 2.6458332,1.563447 2.4545196,0.139848 4.6390534,-1.721381 6.734849,-3.00663 6.682152,-4.097837 12.771604,-9.216084 18.280302,-14.792613 5.957528,-6.030885 11.150593,-13.007515 15.995264,-19.964014 5.316192,-7.63356 9.599015,-15.792205 14.311553,-23.812499 1.445917,-2.460814 4.656859,-4.637582 4.209283,-7.45644 -0.307008,-1.933554 -1.787769,-3.468359 -3.728221,-3.728221 -1.474971,-0.197525 -3.10708,1.531585 -4.570076,1.803978 -5.024871,0.935575 -10.906345,1.748632 -14.912879,2.886363 z"
     id="path4621"
     inkscape:connector-curvature="0"
     sodipodi:nodetypes="ssssssssssssssssssss" />
  <path
     style="fill:#000000;stroke:none;stroke-width:0.26458332px;stroke-linecap:butt;stroke-linejoin:miter;stroke-opacity:1"
     d="m 39.206439,49.236553 c 1.846541,0.295452 2.306593,-0.791512 3.00663,-2.525569 0.808147,-2.001856 0.587205,-5.400003 -1.443183,-6.133523 -3.514693,-1.269757 -7.386204,-2.873764 -10.222538,-0.72159 -0.934898,0.709388 -0.875796,2.644577 0.24053,3.006629 4.44981,1.443182 3.225036,0.377567 4.44981,1.443182 1.479467,1.287213 2.032326,4.621038 3.968751,4.930871 z"
     id="path4623"
     inkscape:connector-curvature="0"
     sodipodi:nodetypes="sssssss" />
  <path
     style="fill:#000000;stroke:none;stroke-width:0.26458332px;stroke-linecap:butt;stroke-linejoin:miter;stroke-opacity:1"
     d="m 23.8125,58.857766 c -0.569639,0.44476 -1.212876,1.081345 -1.202652,1.803976 0.01668,1.178917 0.914647,2.549409 2.044508,2.886364 5.036506,1.502022 6.679176,-2.432504 11.425188,-4.690341 2.285519,-1.087298 7.233782,-3.747128 9.140151,-5.411932 1.250097,-1.091692 4.642924,-1.982559 3.728221,-3.367424 -0.364384,-0.551679 -1.290251,0.293498 -1.924243,0.48106 -2.844665,0.841572 -5.62347,1.892465 -8.41856,2.886364 -3.824071,1.359792 -7.609849,2.825181 -11.42519,4.20928 -1.120463,0.406473 -2.427951,0.469135 -3.367423,1.202653 z"
     id="path4625"
     inkscape:connector-curvature="0"
     sodipodi:nodetypes="ssssssssss" />
  <path
     style="fill:#000000;stroke:none;stroke-width:0.26458332px;stroke-linecap:butt;stroke-linejoin:miter;stroke-opacity:1"
     d="m 68.190341,26.145644 c -1.925287,2.207228 1.327216,5.779009 3.247158,8.418559 0.527288,0.724919 1.763957,0.641795 2.645833,0.481063 3.21951,-0.586793 5.396552,-3.795336 8.41856,-5.051137 3.932593,-1.634196 6.494317,-2.645834 10.944128,-3.487691 2.044092,-0.386721 -0.166646,4.209219 -1.202651,6.013258 -1.650248,2.873647 -3.321996,5.822165 -5.65246,8.17803 -2.831648,2.862513 -5.449759,4.827419 -9.741478,6.73485 -4.329544,1.924242 -6.253788,3.006628 -9.019885,1.803978 -0.922032,-0.400884 1.769624,1.790474 2.766097,1.92424 4.174885,0.560436 9.70929,-1.348975 13.469697,-3.247157 4.023661,-2.031068 5.469019,-5.417619 8.178031,-9.019888 2.761542,-3.67212 4.518159,-8.572925 7.817239,-11.906248 0.57031,-0.576231 1.30068,0.714553 1.68371,-1e-6 0.98284,-1.833545 -1.38396,-3.998518 -2.645838,-5.652462 -1.500736,-1.967016 -3.210969,-5.211211 -5.65246,-4.810607 -1.384014,0.227091 -1.773531,2.261109 -2.164773,3.607955 -0.447456,1.540362 0.942654,3.609302 -0.120267,4.810606 -1.450151,1.638949 -4.361802,0.470722 -6.494316,0.962121 -3.113431,0.717434 -5.961075,2.567561 -9.140151,2.886363 -1.88533,0.189063 -3.816763,-0.131837 -5.652463,-0.601326 -1.009795,-0.25826 -0.998572,-2.829979 -1.683711,-2.044506 z"
     id="path4627"
     inkscape:connector-curvature="0"
     sodipodi:nodetypes="ssssssssssssssssssssss" />
  <path
     style="fill:#000000;stroke:none;stroke-width:0.26458332px;stroke-linecap:butt;stroke-linejoin:miter;stroke-opacity:1"
     d="m 68.190339,36.849243 c 1.578034,-0.109697 3.263164,0.0394 4.690343,0.72159 5.53016,2.643408 8.76553,8.606418 13.58996,12.38731 3.798059,2.976528 7.809302,5.712543 12.026517,8.057766 7.651911,4.255283 15.859751,7.43481 23.932761,10.823863 3.76162,1.579131 7.63147,1.902464 11.90625,3.607954 0.35126,0.140142 -0.61139,0.459852 -0.96212,0.601326 -2.69789,1.088232 -5.63,1.844524 -8.53882,1.803977 -5.12211,-0.0714 -7.08594,3.549137 -9.98201,1.803977 -5.28435,-3.184333 -9.71598,-7.19637 -14.55208,-10.823863 -3.136412,-2.352581 -6.526113,-4.408058 -9.380688,-7.095644 -3.995294,-3.761575 -6.866446,-8.584808 -10.703596,-12.507576 -2.144059,-2.191899 -3.489145,-4.683111 -6.855114,-6.133523 -1.362187,-0.586973 -2.729305,1.542006 -4.20928,1.443183 -0.536647,-0.03583 -1.10664,-0.302051 -1.443183,-0.72159 -0.413703,-0.515728 -0.353964,-1.275419 -0.48106,-1.924243 -0.108984,-0.556362 -0.545857,-1.20602 -0.24053,-1.683714 0.225404,-0.352653 0.785123,-0.331769 1.20265,-0.360793 z"
     id="path4629"
     inkscape:connector-curvature="0"
     sodipodi:nodetypes="ssssssssssssssssss" />
  <path
     style="fill:#000000;stroke:none;stroke-width:0.26458332px;stroke-linecap:butt;stroke-linejoin:miter;stroke-opacity:1"
     d="m 44.979166,63.788636 c 1.093953,-1.250047 3.298776,1.030815 4.93087,0.72159 8.908122,-1.687779 16.362141,-2.732869 25.255683,-4.44981 1.458505,-0.281571 2.981677,-1.163944 3.728219,0.120265 0.450509,0.774971 -0.759207,1.58536 -1.44318,2.164773 -1.248135,1.05733 -2.122129,1.493729 -3.728222,1.803978 -2.36983,0.457781 -4.836187,0.1981 -7.215907,0.601324 -3.796253,0.643244 -7.448718,1.954675 -11.18466,2.886363 -2.160451,0.538784 -4.339468,2.124212 -6.494319,1.563447 -1.372751,-0.357236 -2.383255,-1.678446 -3.126894,-2.886363 -0.459006,-0.745579 -1.298187,-1.866696 -0.72159,-2.525567 z"
     id="path4631"
     inkscape:connector-curvature="0"
     sodipodi:nodetypes="sssssssssss" />
  <path
     style="fill:#000000;stroke:none;stroke-width:0.26458332px;stroke-linecap:butt;stroke-linejoin:miter;stroke-opacity:1"
     d="m 36.9214,83.271589 c -1.279256,0.641032 -0.112428,3.143091 0.841856,4.20928 0.617244,0.689625 1.77223,1.147454 2.645834,0.841857 6.296438,-2.202569 11.733351,-5.539814 18.039773,-6.734847 6.854435,-1.298879 13.95957,0.0098 20.926136,-0.360797 2.250698,-0.119725 4.061026,-0.797848 6.013259,-1.924243 1.146389,-0.661441 3.31432,-0.63698 3.006627,-1.92424 -0.337705,-1.412817 -2.419339,-1.784441 -3.848486,-2.04451 -3.69839,-0.673015 -7.452334,0.995072 -11.184657,1.443183 -10.091964,1.211664 -20.209092,2.134283 -30.306819,3.367424 -2.27794,0.278183 -6.133523,3.126893 -6.133523,3.126893 z"
     id="path4633"
     inkscape:connector-curvature="0"
     sodipodi:nodetypes="sssssssssss" />
  <path
     style="fill:#000000;stroke:none;stroke-width:0.26458332px;stroke-linecap:butt;stroke-linejoin:miter;stroke-opacity:1"
     d="m 59.170453,85.075566 c 0.214514,-0.874962 1.385283,-1.398304 2.285039,-1.44318 2.417284,-0.120563 4.622605,1.712723 6.494317,3.247159 0.706955,0.579564 1.790884,1.256919 1.683713,2.164771 -0.120373,1.019683 -1.718835,1.160695 -2.405303,1.924243 -1.144985,1.27355 -1.451516,2.653631 -1.803979,4.329546 -0.484258,2.30258 -0.395514,4.679651 0.120266,6.975375 0.494922,2.20289 1.855397,4.23757 1.924243,6.49432 0.125851,4.12537 -1.195176,5.06534 -3.24716,8.53883 -0.41287,0.69888 -1.471962,-0.74751 -2.044506,-1.32292 -1.678551,-1.68695 -3.367421,-5.41193 -3.848484,-6.01326 -0.48106,-0.60132 -5.072001,-4.37595 -7.095646,-6.61458 -0.406813,-0.45003 1.207437,-0.3508 1.803979,-0.24053 2.557785,0.4728 4.262673,3.51597 6.855114,3.72822 0.97296,0.0797 1.238327,-0.16648 1.803976,-0.96212 1.579534,-2.22176 1.049921,-5.45343 0.962121,-8.178031 -0.08022,-2.489355 0.244326,-5.073765 -0.48106,-7.45644 -0.580732,-1.907529 -3.481428,-3.234787 -3.00663,-5.171403 z"
     id="path4635"
     inkscape:connector-curvature="0"
     sodipodi:nodetypes="ssssssssssssssssss" />
  <path
     style="fill:#000000;stroke:none;stroke-width:0.26458332px;stroke-linecap:butt;stroke-linejoin:miter;stroke-opacity:1"
     d="m 43.295453,92.411742 c -1.373701,3.457644 -2.292462,8.167008 -2.886363,11.785988 -0.147183,0.89687 1.166846,1.56787 2.044509,1.80397 0.789574,0.2124 1.684404,-0.0952 2.405301,-0.48106 0.949719,-0.50827 2.285039,-1.80397 2.285039,-2.28503 0,-0.48106 -1.803976,-6.374058 -2.044507,-7.215914 C 44.8589,95.177839 43.79191,91.162145 43.295453,92.411742 Z"
     id="path4637"
     inkscape:connector-curvature="0"
     sodipodi:nodetypes="sssssss" />
  <path
     style="fill:#000000;stroke:none;stroke-width:0.26458332px;stroke-linecap:butt;stroke-linejoin:miter;stroke-opacity:1"
     d="m 77.450756,87.240339 c 1.460166,2.76938 3.391964,4.71315 5.051136,7.095643 1.912648,2.746474 4.074463,6.027078 5.652463,8.298298 0.773999,1.11402 2.696373,2.03898 3.848484,1.32292 1.338741,-0.83206 1.082387,-3.60796 0.601327,-4.690345 -0.481061,-1.082386 -2.697224,-5.300179 -4.690341,-7.456439 -1.594587,-1.725109 -3.848486,-4.089015 -5.652463,-4.20928 -1.803976,-0.120265 -5.560589,-1.78323 -4.810606,-0.360797 z"
     id="path4639"
     inkscape:connector-curvature="0"
     sodipodi:nodetypes="ssssssss" />
</svg>
