<?xml version="1.0" encoding="UTF-8" standalone="no"?>
<svg
   xmlns:dc="http://purl.org/dc/elements/1.1/"
   xmlns:cc="http://creativecommons.org/ns#"
   xmlns:rdf="http://www.w3.org/1999/02/22-rdf-syntax-ns#"
   xmlns:svg="http://www.w3.org/2000/svg"
   xmlns="http://www.w3.org/2000/svg"
   id="svg8"
   version="1.1"
   viewBox="0 0 135.46666 135.46667"
   height="512"
   width="512">
  <defs
     id="defs2" />
  <metadata
     id="metadata5">
    <rdf:RDF>
      <cc:Work
         rdf:about="">
        <dc:format>image/svg+xml</dc:format>
        <dc:type
           rdf:resource="http://purl.org/dc/dcmitype/StillImage" />
        <dc:title></dc:title>
      </cc:Work>
    </rdf:RDF>
  </metadata>
  <path
     id="path3754"
     d="M 41.190814,17.230989 C 42.866456,15.99911 45.354223,18.262365 46.978575,19.561127 48.286779,20.607111 49.246591,22.126991 49.834871,23.695241 50.22456,24.734082 50.811842,26.069968 50.210701,27.002533 49.283424,28.441042 46.80622,27.723733 45.324929,28.581014 42.484801,30.224707 40.266714,32.790937 38.033854,35.195597 37.147158,36.150517 36.552217,37.358182 35.62855,38.277389 35.134783,38.768772 34.486006,39.081881 33.974905,39.555208 33.206988,40.266371 31.785862,40.842117 31.870266,41.885346 31.909079,42.365074 32.544789,42.624637 32.997751,42.787334 34.577806,43.354864 36.368676,42.648379 38.033854,42.862499 39.49244,43.050054 41.078976,43.123158 42.318299,43.914819 42.859106,44.260278 43.798941,44.839743 43.520952,45.418134 43.195343,46.095605 42.017487,45.433158 41.26598,45.418134 40.012466,45.393074 38.756378,45.155065 37.507693,45.267803 35.564343,45.443259 33.673118,46.016056 31.795098,46.545618 29.858088,47.091815 27.961771,47.779723 26.082504,48.499929 24.887476,48.957909 23.632211,49.320571 22.549716,50.003244 21.588767,50.609264 21.06913,51.890852 19.994081,52.258213 19.257568,52.509891 18.359502,52.457155 17.663944,52.107882 17.076212,51.812754 16.592361,51.229066 16.386127,50.604568 16.268012,50.246904 16.338885,49.833301 16.461292,49.477083 16.766171,48.589854 17.661883,48.005622 18.039772,47.146945 18.693361,45.661796 18.437009,43.860498 19.167258,42.411504 19.447349,41.855735 19.784882,41.19566 20.36991,40.983357 21.996217,40.39318 23.766624,41.654081 25.481179,41.885346 26.279235,41.992991 27.105691,42.307936 27.886482,42.110842 28.762386,41.889739 29.453968,41.193581 30.141452,40.607527 31.544687,39.411322 32.72963,37.973647 33.899739,36.548578 35.334058,34.801729 36.65537,32.958952 37.883523,31.061482 38.840983,29.582227 39.704938,28.041563 40.514322,26.476372 41.199164,25.15202 42.179828,23.892983 42.393465,22.417424 42.516843,21.565269 42.383931,20.641033 42.017637,19.86179 41.874238,19.556728 41.474372,19.419771 41.341145,19.110132 41.092787,18.532912 40.684527,17.603195 41.190814,17.230989 Z"
     style="fill:#000000;stroke:none;stroke-width:0.26458332px;stroke-linecap:butt;stroke-linejoin:miter;stroke-opacity:1;fill-opacity:1" />
  <path
     id="path3733"
     d="m 47.658654,37.063542 c 0,0 3.848602,-1.244448 5.600179,-0.571447 1.007096,0.386952 2.238289,1.323271 2.171496,2.400078 -0.180609,2.911705 -4.430414,3.796697 -6.62878,5.714465 -5.552534,4.843813 -21.589817,18.268498 -14.797109,15.355111 19.069929,-2.786596 11.458169,-5.183618 19.012369,-4.484177 2.406383,0.222806 -4.045813,2.660204 -6.191795,3.771549 -3.60614,1.86752 -7.629747,3.299822 -11.180185,4.84049 -4.438797,1.926159 -6.577681,5.339252 -11.415489,5.432104 -1.500549,0.0288 -3.311632,-0.560553 -4.114416,-1.828628 -0.856102,-1.352296 -0.731611,-3.441452 0.114289,-4.800153 1.044682,-1.677988 3.36942,-2.157387 5.25731,-2.742943 1.209541,-0.375156 1.357052,0.488549 3.771549,-0.860532 2.414497,-1.349082 6.087487,-6.194233 8.914569,-9.486016 2.695583,-3.13867 7.657385,-9.768376 7.657385,-9.768376 z"
     style="fill:#000000;stroke:none;stroke-width:0.26458332px;stroke-linecap:butt;stroke-linejoin:miter;stroke-opacity:1;fill-opacity:1" />
  <path
     id="path3735"
     d="m 53.245387,50.596746 c -1.718562,0.856274 -2.261623,3.105528 -3.469018,4.598464 -2.841171,3.513089 -5.680252,7.049997 -8.874231,10.245704 -3.975474,3.977625 -8.04547,7.966181 -12.746622,11.052452 -0.623394,0.409254 -1.943914,0.225948 -2.016871,0.968098 -0.05262,0.535252 0.755138,0.919797 1.290796,0.968097 0.77855,0.0702 1.408457,-0.679683 2.097545,-1.048772 4.342806,-2.32609 7.714827,-4.777199 11.455827,-7.341409 2.666359,-1.827614 5.270422,-3.747654 7.825459,-5.727914 2.748737,-2.130386 6.65763,-3.436275 8.067481,-6.615335 0.665821,-1.501354 0.37324,-3.398393 -0.242022,-4.921165 -0.428356,-1.06018 -1.182064,-2.966179 -2.258896,-2.581595 l -1.129448,0.403375 c 0,0 0.07221,-0.03598 0,0 z"
     style="fill:#000000;stroke:none;stroke-width:0.26458332px;stroke-linecap:butt;stroke-linejoin:miter;stroke-opacity:1;fill-opacity:1" />
  <path
     id="path3737"
     d="m 7.9061333,82.94735 c -1.7654705,2.223873 2.0783707,5.443872 4.0337417,7.502761 0.714592,0.752423 1.631349,1.495233 2.662269,1.613495 3.176668,0.364413 6.064579,-2.030355 9.116256,-2.984968 6.374326,-1.993992 13.019754,-3.197088 19.200609,-5.727912 2.816543,-1.153267 5.619731,-2.467051 8.067482,-4.275767 1.926927,-1.423864 5.819667,-2.802812 5.082516,-5.082514 -0.2598,-0.803454 -2.416329,1.084565 -3.630369,1.613498 -0.513712,0.223814 -1.019084,0.469515 -1.546025,0.660108 -0.621357,0.224742 -1.26186,0.393443 -1.89916,0.56792 -1.05029,0.287543 -2.111328,0.534502 -3.17015,0.788841 -7.300488,1.753643 -14.589965,3.566891 -21.943554,5.082516 -2.515935,0.518551 -5.022942,1.164823 -7.583434,1.37147 -1.501289,0.121163 -3.026604,0.131253 -4.51779,-0.08067 C 10.454528,83.807965 8.7376187,81.89997 7.9061333,82.94735 Z"
     style="fill:#000000;stroke:none;stroke-width:0.26458332px;stroke-linecap:butt;stroke-linejoin:miter;stroke-opacity:1;fill-opacity:1" />
  <path
     id="path3742"
     d="m 72.409307,22.7507 c 1.296288,-2.094731 5.507832,0.457223 8.204008,0 3.911262,-0.663279 7.451999,-2.732107 11.235928,-3.923656 3.769882,-1.187126 7.477541,-3.561536 11.414277,-3.210265 2.30403,0.205586 5.46397,0.853567 6.24218,3.031916 0.28636,0.80157 -0.38848,1.8087 -1.07009,2.318525 -1.63601,1.223682 -4.02828,0.717268 -6.06383,0.89174 -2.37003,0.203141 -4.794251,-0.250874 -7.133923,0.178348 -4.586352,0.841384 -8.541509,4.388198 -13.197755,4.637049 C 79.966584,26.785175 77.871505,26.096 75.976267,25.247573 74.6516,24.654569 71.532808,24.167075 72.409307,22.7507 Z"
     style="fill:#000000;stroke:none;stroke-width:0.26458332px;stroke-linecap:butt;stroke-linejoin:miter;stroke-opacity:1;fill-opacity:1" />
  <path
     id="path3744"
     d="m 84.077326,2.3088098 c 2.091707,1.1875567 3.611693,4.1549225 5.63174,5.4606548 1.607779,1.0392479 3.901048,1.0652875 5.172093,2.4968724 1.335594,1.504287 1.707705,3.711616 1.96183,5.707138 0.580028,4.554692 -1.217295,9.143683 -1.070089,13.732798 0.05391,1.680617 1.085351,3.35392 0.713394,4.993746 -0.189662,0.836151 -0.80001,1.555139 -1.426787,2.140178 -0.350378,0.327046 -0.778023,0.805246 -1.248434,0.71339 -1.038846,-0.202852 -1.324867,-1.651516 -1.96183,-2.496873 -0.794343,-1.054226 -3.031916,-2.67522 -2.318525,-3.210263 0.713393,-0.535043 1.070089,-4.250832 1.070089,-6.42053 0,-1.084849 -0.535043,-3.210265 -0.535043,-3.210265 0,0 -0.276866,-2.499347 -0.178348,-3.745309 0.11488,-1.452884 1.197975,-2.855471 0.891738,-4.280353 -0.33981,-1.581093 -1.871111,-2.639093 -2.853568,-3.923657 C 86.808248,8.8054155 85.171231,7.665512 84.46884,5.9656935 84.000663,4.8326849 84.077326,2.3088098 84.077326,2.3088098 Z"
     style="fill:#000000;stroke:none;stroke-width:0.26458332px;stroke-linecap:butt;stroke-linejoin:miter;stroke-opacity:1;fill-opacity:1" />
  <path
     id="path3746"
     d="m 65.270752,35.810375 c -0.388828,1.086074 0.852034,2.261615 1.750161,2.985571 1.546165,1.246323 3.678101,1.936453 5.662289,1.853113 2.903861,-0.121968 5.253225,-2.539507 8.030157,-3.397374 3.980332,-1.229629 8.149903,-1.739432 12.251135,-2.470817 3.96583,-0.707239 7.922326,-1.592337 11.942276,-1.853113 2.80892,-0.182216 5.9881,1.584952 8.44196,0.205902 1.13918,-0.640208 1.95394,-2.090624 1.95607,-3.397372 0.001,-0.830015 -0.52241,-1.737041 -1.23541,-2.161966 -1.26793,-0.755648 -2.95593,-0.225283 -4.42688,-0.102952 -3.2731,0.272206 -6.47419,1.127203 -9.677369,1.853113 -4.221247,0.956628 -8.276425,2.673825 -12.559988,3.294424 -1.087325,0.157531 -2.206207,-0.04831 -3.294422,0.10295 -2.102174,0.29219 -4.094705,1.133918 -6.177042,1.544262 -2.109381,0.415674 -4.236887,0.797261 -6.382943,0.926555 -1.43911,0.0867 -2.901697,-0.339176 -4.323932,-0.10295 -0.685473,0.113854 -1.721849,0.06645 -1.956062,0.720654 z"
     style="fill:#000000;stroke:none;stroke-width:0.26458332px;stroke-linecap:butt;stroke-linejoin:miter;stroke-opacity:1;fill-opacity:1" />
  <path
     id="path3748"
     d="m 64.344195,46.208396 c 0.480225,1.56598 1.032591,2.37084 1.554383,2.993815 0.551714,0.658699 1.069248,1.114055 1.431186,2.05077 1.288055,3.333547 1.117814,6.60415 2.161965,10.500975 1.044151,3.896825 1.862558,0.8056 2.470819,0.514752 0.983911,-0.470471 0.771223,-1.954536 0.823606,-2.985569 0.114792,-2.259401 -0.506494,-4.517806 -1.132459,-6.691797 -0.421443,-1.463679 -0.829659,-3.007455 -1.750163,-4.22098 -0.738503,-0.973588 -1.720288,-1.887759 -2.882619,-2.264915 -0.849307,-0.275585 -2.938503,-0.750712 -2.676718,0.102949 z"
     style="fill:#000000;stroke:none;stroke-width:0.26458332px;stroke-linecap:butt;stroke-linejoin:miter;stroke-opacity:1;fill-opacity:1" />
  <path
     id="path3750"
     d="m 74.536315,46.51725 c -1.117866,0.470384 0.343627,3.123076 1.544262,3.294422 0,0 4.117421,-0.976792 6.123585,-1.640811 3.452713,-1.142811 6.530901,-3.59407 10.142627,-4.021478 1.445854,-0.171101 2.87044,0.702181 4.32393,0.617704 5.102191,-0.296542 9.921871,-2.469698 14.824901,-3.912127 1.38467,-0.407359 2.67471,-1.347643 4.11803,-1.338358 2.0293,0.01306 4.94845,0.09835 5.76524,1.956062 1.40383,3.192866 -2.65877,6.455985 -4.22098,9.574417 -0.68825,1.373862 -3.30497,2.883946 -2.26491,4.015078 1.22644,1.333836 3.39485,-1.321113 4.94163,-2.264915 2.08627,-1.272988 3.99355,-2.846338 5.76524,-4.529831 1.28713,-1.223054 3.34768,-2.246105 3.50032,-4.015078 0.11384,-1.319303 -1.19539,-2.393545 -2.05901,-3.397375 -0.874,-1.015892 -1.80016,-2.20492 -3.08852,-2.573769 -0.96581,-0.276506 -1.98799,0.29317 -2.98557,0.411806 -3.76714,0.448003 -7.54949,0.757278 -11.32458,1.132456 -2.7795,0.276234 -5.56169,0.526244 -8.33901,0.823606 -0.89306,0.09562 -1.797675,0.124533 -2.676718,0.308853 -1.827303,0.383153 -3.805322,1.058921 -5.353437,1.647211 -2.427204,0.922348 -4.401026,0.488239 -6.588845,0.823606 -1.137735,0.174401 -2.276014,0.358075 -3.397375,0.617704 -2.952868,0.683678 -6.358586,1.464199 -8.75081,2.470817 z"
     style="fill:#000000;stroke:none;stroke-width:0.26458332px;stroke-linecap:butt;stroke-linejoin:miter;stroke-opacity:1;fill-opacity:1" />
  <path
     id="path3752"
     d="m 82.051717,45.590692 c -0.493134,1.33762 1.76946,2.326835 2.138439,3.703884 0.373241,1.392953 -1.058727,3.65598 0,4.635125 1.067377,0.987145 1.783285,2.660605 3.203234,2.894385 0.12752,0.02099 0.218532,-0.03811 0.355819,-0.15399 0.137287,-0.115882 0.311127,-0.357868 0.376601,-0.57843 0.175784,-0.592164 0,-1.235409 0,-1.853113 v -1.235408 c 0,-0.960873 -0.125419,-1.929966 0,-2.882619 0.08599,-0.653194 0.425558,-1.25595 0.511553,-1.909144 0.109543,-0.832066 0.321166,-1.742376 0,-2.517738 -0.324724,-0.783954 -0.972373,-1.61295 -1.800037,-1.800037 -1.650887,-0.373169 -4.200148,0.10903 -4.785609,1.697085 z"
     style="fill:#000000;stroke:none;stroke-width:0.26458332px;stroke-linecap:butt;stroke-linejoin:miter;stroke-opacity:1;fill-opacity:1" />
  <path
     id="path3755"
     d="m 98.21498,39.928405 c 1.76621,-0.02142 4.04318,-0.02984 5.11846,1.371486 0.57822,0.753551 0.19765,1.920453 0,2.849492 -0.32835,1.543421 -1.27518,2.886882 -1.92699,4.323931 -0.60888,1.342398 -1.03502,2.788907 -1.853112,4.015076 -0.983961,1.474778 -1.910353,3.385668 -3.603276,3.912129 -0.739302,0.229906 -1.894225,0.164961 -2.264915,-0.514754 -0.384629,-0.705275 0.392073,-1.587324 0.823606,-2.264916 0.547468,-0.859632 1.699494,-1.253777 2.161966,-2.161966 0.599076,-1.176448 0.634237,-2.592032 0.617704,-3.912126 -0.02141,-1.709523 -0.926558,-5.044586 -0.926558,-5.044586 0,0 -0.322359,-1.519247 0.102952,-2.059014 0.376357,-0.477638 1.14211,-0.507379 1.750163,-0.514752 z"
     style="fill:#000000;stroke:none;stroke-width:0.26458332px;stroke-linecap:butt;stroke-linejoin:miter;stroke-opacity:1;fill-opacity:1" />
  <path
     id="path3757"
     d="m 68.874025,62.165758 c 0.37184,1.164043 1.080906,2.580333 2.264918,2.88262 0.506454,0.129301 0.964545,-0.403439 1.44131,-0.617704 0.588095,-0.264299 1.163601,-0.555916 1.750161,-0.823606 1.775121,-0.810117 3.51205,-1.722396 5.353438,-2.367867 3.047795,-1.06836 6.205829,-1.816707 9.368515,-2.470817 2.922922,-0.604522 5.881197,-1.068567 8.85376,-1.338358 4.410883,-0.400333 8.865313,-0.759616 13.280643,-0.411802 1.46269,0.115222 2.85805,0.886264 4.32393,0.823605 2.02981,-0.08676 4.20539,-0.479837 5.86819,-1.647211 0.48322,-0.339244 1.03637,-0.85094 1.02951,-1.441312 -0.01,-0.857864 -0.86706,-1.532301 -1.54426,-2.059014 -1.05644,-0.821673 -2.37231,-1.435353 -3.70623,-1.544259 -2.53034,-0.206586 -4.93065,1.215411 -7.41245,1.75016 -6.83577,1.472893 -13.745606,2.583464 -20.590143,4.015079 -3.235295,0.6767 -6.391999,1.799451 -9.677366,2.161965 -2.114813,0.233353 -4.268311,-0.234959 -6.382946,0 -1.398387,0.155376 -3.213198,-0.150901 -4.118028,0.926555 -0.463975,0.552493 -0.322489,1.474707 -0.102952,2.161966 z"
     style="fill:#000000;stroke:none;stroke-width:0.26458332px;stroke-linecap:butt;stroke-linejoin:miter;stroke-opacity:1;fill-opacity:1" />
  <path
     id="path3759"
     d="m 73.403859,67.107392 c 0.119436,-0.431202 1.132456,-0.720654 1.132456,-0.720654 0,0 1.900779,0.471139 2.676718,1.029507 0.830982,0.597977 1.245368,1.630967 1.956065,2.367865 0.860587,0.892314 2.408222,1.288083 2.77967,2.470817 0.264359,0.841749 -0.378477,1.724535 -0.617704,2.573768 -0.361934,1.28483 -0.841989,2.533636 -1.235409,3.809177 -0.432084,1.400898 -1.027405,2.769792 -1.235411,4.22098 -0.180155,1.256879 0.04371,2.540202 0,3.809175 -0.03434,0.996963 -0.14141,1.990104 -0.205901,2.985571 -0.07335,1.132163 -0.215114,2.262876 -0.205902,3.397375 0.0073,0.894846 0.190184,1.781981 0.205902,2.676718 0.01448,0.824193 -0.01787,1.650898 -0.10295,2.470816 -0.08618,0.830506 -0.278717,1.646523 -0.411802,2.470813 -0.177157,1.09726 0.48072,2.80007 -0.514755,3.29443 -0.453806,0.22536 -1.036939,-0.31338 -1.338358,-0.72066 -0.936852,-1.26587 -0.82248,-3.06138 -0.926557,-4.63278 -0.104545,-1.578473 0.142161,-3.162608 0.308853,-4.735732 0.124268,-1.172759 0.420677,-2.32476 0.514752,-3.500326 0.199853,-2.497385 0.196479,-5.011778 0.102952,-7.5154 -0.101602,-2.71976 -0.343071,-5.437768 -0.720656,-8.133106 -0.252104,-1.799605 -0.446137,-3.632447 -1.029507,-5.353439 -0.270977,-0.799405 -1.35777,-1.451459 -1.132456,-2.264915 z"
     style="fill:#000000;stroke:none;stroke-width:0.26458332px;stroke-linecap:butt;stroke-linejoin:miter;stroke-opacity:1;fill-opacity:1" />
  <path
     id="path3761"
     d="m 82.566472,67.725096 c 0.38705,1.021347 1.329487,1.926199 2.367865,2.264915 0.987413,0.322091 2.096958,-0.102723 3.088521,-0.411802 1.802217,-0.561768 3.218435,-2.095496 5.044585,-2.573767 2.458616,-0.643914 5.158374,-0.947524 7.618357,-0.308853 0.70069,0.181915 0.90388,-0.560067 1.85311,1.132459 0.94923,1.692526 -0.0158,6.314349 0,9.471464 0.0343,6.863638 1.56626,16.826196 0.2059,20.590141 -0.23315,0.94221 -2.02453,0.865466 -2.882619,0.411804 -0.407721,-0.210949 -2.393122,-0.391589 -2.059013,0 3.158682,3.702093 3.314482,7.216853 5.765242,10.295073 0.44632,0.56058 1.4281,0.95742 2.05901,0.6177 0.94636,-0.50958 0.92656,-3.08852 0.92656,-3.08852 l 0.6177,-10.706873 -0.10295,-15.236705 0.72066,-7.721304 2.98557,-3.397372 -3.80918,-3.603275 -5.25049,-3.603276 c 0,0 -10.295068,1.956065 -10.706871,2.059014 -0.411803,0.102952 -5.456388,1.441312 -5.868191,1.647214 -0.411803,0.205901 -1.940182,0.225026 -2.470817,0.926555 -0.249285,0.329569 -0.249385,0.848994 -0.102949,1.235408 z"
     style="fill:#000000;stroke:none;stroke-width:0.26458332px;stroke-linecap:butt;stroke-linejoin:miter;stroke-opacity:1;fill-opacity:1" />
  <path
     id="path3763"
     d="m 81.48875,78.468272 c -1.490366,0.749009 1.878704,2.399952 3.863062,3.20707 3.005706,1.22254 6.405915,-3.084354 10.568757,-3.93595 0.831404,-0.170081 1.370782,-2.162406 0.583102,-2.47819 -1.71671,-0.688235 -3.980995,-0.702041 -5.612373,-0.218665 -3.453706,1.02333 -7.369771,2.404129 -9.402548,3.425735 z"
     style="fill:#000000;stroke:none;stroke-width:0.26458332px;stroke-linecap:butt;stroke-linejoin:miter;stroke-opacity:1;fill-opacity:1" />
  <path
     id="path3765"
     d="m 82.144742,90.130348 c 0.390163,1.443718 2.683793,2.956719 4.300389,2.551078 1.967012,-0.493569 2.747964,-2.071015 4.37328,-2.47819 1.792087,-0.448954 7.652887,-1.555524 5.976813,-3.061296 -1.25717,-1.129431 -1.410076,-1.702913 -2.769743,-1.676423 -2.408484,0.04692 -4.046144,1.472395 -6.049701,2.259528 -1.956946,0.768821 -6.379572,0.375566 -5.831038,2.405303 z"
     style="fill:#000000;stroke:none;stroke-width:0.26458332px;stroke-linecap:butt;stroke-linejoin:miter;stroke-opacity:1;fill-opacity:1" />
  <path
     id="path3767"
     d="m 59.476584,104.99949 c 0.522923,1.53688 2.84263,3.35285 2.84263,3.35285 0.580473,0.49506 1.603842,0.0256 2.259526,-0.36444 2.120229,-1.26115 3.428489,-1.69652 5.247936,-2.25953 3.618777,-1.11979 7.416468,-1.55709 11.151859,-2.18664 4.282675,-0.72179 8.561798,-1.64294 12.901171,-1.8222 4.206633,-0.17378 8.600054,2.01318 12.609614,0.72888 1.21777,-0.39006 4.03819,-1.39268 2.98841,-2.40529 -2.109,-2.034326 -4.16604,-1.566711 -6.73292,-2.153466 -2.04941,-0.468468 -4.213357,-0.33394 -6.314027,-0.251847 -4.729371,0.184822 -9.142552,1.511818 -13.775826,2.478193 -4.818567,1.00502 -9.592826,2.4502 -14.504705,2.76974 -2.064365,0.1343 -4.043128,-0.58941 -6.195478,-0.36444 -1.1619,0.12145 -2.854493,1.37223 -2.47819,2.47819 z"
     style="fill:#000000;stroke:none;stroke-width:0.26458332px;stroke-linecap:butt;stroke-linejoin:miter;stroke-opacity:1;fill-opacity:1" />
  <path
     style="fill:#000000;stroke:none;stroke-width:0.26458332px;stroke-linecap:butt;stroke-linejoin:miter;stroke-opacity:1;fill-opacity:1"
     d="m 59.476584,104.99949 c 0.522923,1.53688 2.84263,3.35285 2.84263,3.35285 0.580473,0.49506 1.603842,0.0256 2.259526,-0.36444 2.120229,-1.26115 3.428489,-1.69652 5.247936,-2.25953 3.618777,-1.11979 7.416468,-1.55709 11.151859,-2.18664 4.282675,-0.72179 8.561798,-1.64294 12.901171,-1.8222 4.206633,-0.17378 8.600054,2.01318 12.609614,0.72888 1.21777,-0.39006 4.03819,-1.39268 2.98841,-2.40529 -2.109,-2.034326 -4.16604,-1.566711 -6.73292,-2.153466 -2.04941,-0.468468 -4.213357,-0.33394 -6.314027,-0.251847 -4.729371,0.184822 -9.142552,1.511818 -13.775826,2.478193 -4.818567,1.00502 -9.592826,2.4502 -14.504705,2.76974 -2.064365,0.1343 -4.043128,-0.58941 -6.195478,-0.36444 -1.1619,0.12145 -2.854493,1.37223 -2.47819,2.47819 z"
     id="path3777" />
  <path
     id="path3769"
     d="m 77.990128,106.67592 c 0,0 2.484296,6.10328 2.988407,9.32966 0.17253,1.10422 0.412466,2.31412 0,3.35284 -0.431334,1.08623 -2.405303,2.55108 -2.405303,2.55108 0,0 -2.970034,2.92132 -5.612373,5.10217 -1.375559,1.13531 -2.52892,2.73597 -4.227505,3.27995 -0.578922,0.1854 -3.359141,1.7954 -3.935949,1.60352 -0.447626,-0.1489 -0.917544,-0.40089 -1.166207,-0.80177 -0.271674,-0.43798 -0.423338,-1.05764 -0.218665,-1.53065 0.554088,-1.28054 2.414431,-1.44402 3.425735,-2.4053 2.546868,-2.42088 4.651146,-5.31311 6.487031,-8.30923 1.470852,-2.4004 2.640643,-4.9964 3.571509,-7.65324 0.512457,-1.46263 -0.445586,-4.70256 1.09332,-4.51905 7e-6,0 0,2e-5 0,2e-5 z"
     style="fill:#000000;stroke:none;stroke-width:0.26458332px;stroke-linecap:butt;stroke-linejoin:miter;stroke-opacity:1;fill-opacity:1" />
  <path
     id="path3771"
     d="m 99.346302,113.52739 c 3.127868,-0.2538 7.412618,2.10721 10.933198,3.64439 1.57445,0.68745 3.27368,1.73208 4.51905,2.91553 1.2415,1.17977 1.84103,2.45245 2.69686,3.93594 1.07555,1.86435 2.59421,4.0591 2.33241,6.19548 -0.0879,0.71701 -0.0267,0.92364 -0.72888,1.09332 -1.00889,0.2438 -1.9907,-0.62214 -2.91552,-1.09332 -1.37496,-0.70052 -2.32105,-1.84535 -3.49862,-2.84263 -1.44306,-1.22213 -2.89862,-2.51767 -4.2275,-3.86306 -1.50953,-1.52829 -3.05964,-3.01869 -4.66483,-4.44617 -0.96702,-0.85997 -2.19351,-1.45701 -2.98841,-2.47819 -0.69424,-0.89186 -2.584275,-2.96988 -1.457758,-3.06129 z"
     style="fill:#000000;stroke:none;stroke-width:0.26458332px;stroke-linecap:butt;stroke-linejoin:miter;stroke-opacity:1;fill-opacity:1" />
</svg>
