
<svg version="1.1" baseProfile="full" xmlns="http://www.w3.org/2000/svg" width="512" height="512" viewBox="0,0,512,512">

  <rect width="512" height="512" stroke="red" fill="white"></rect>

  <text x="2" y="12" font-size="12" text-anchor="start" fill="red">0</text>
  <path d="M256  64 H0 H512" stroke="lightgray" fill="white"></path>
  <text x="2" y="64" font-size="12" text-anchor="start" fill="red">64</text>
  <path d="M256 128 H0 H512" stroke="lightgray" fill="white"></path>
  <text x="2" y="128" font-size="12" text-anchor="start" fill="red">128</text>
  <path d="M256 192 H0 H512" stroke="lightgray" fill="white"></path>
  <text x="2" y="192" font-size="12" text-anchor="start" fill="red">192</text>
  <path d="M256 256 H0 H512" stroke="lightgray" fill="white"></path>
  <text x="2" y="256" font-size="12" text-anchor="start" fill="red">256</text>
  <path d="M256 320 H0 H512" stroke="lightgray" fill="white"></path>
  <text x="2" y="320" font-size="12" text-anchor="start" fill="red">320</text>
  <path d="M256 384 H0 H512" stroke="lightgray" fill="white"></path>
  <text x="2" y="384" font-size="12" text-anchor="start" fill="red">384</text>
  <path d="M256 448 H0 H512" stroke="lightgray" fill="white"></path>
  <text x="2" y="448" font-size="12" text-anchor="start" fill="red">448</text>
  <text x="2" y="512" font-size="12" text-anchor="start" fill="red">512</text>

  <path d="M64  0 V512" stroke="lightgray" fill="white"></path>
  <text x="64" y="12" font-size="12" text-anchor="start" fill="red">64</text>
  <path d="M128  0 V512" stroke="lightgray" fill="white"></path>
  <text x="128" y="12" font-size="12" text-anchor="start" fill="red">128</text>
  <path d="M195  0 V512" stroke="lightgray" fill="white"></path>
  <text x="192" y="12" font-size="12" text-anchor="start" fill="red">192</text>
  <path d="M256  0 V512" stroke="lightgray" fill="white"></path>
  <text x="256" y="12" font-size="12" text-anchor="start" fill="red">256</text>
  <path d="M320  0 V512" stroke="lightgray" fill="white"></path>
  <text x="320" y="12" font-size="12" text-anchor="start" fill="red">320</text>
  <path d="M384  0 V512" stroke="lightgray" fill="white"></path>
  <text x="384" y="12" font-size="12" text-anchor="start" fill="red">384</text>
  <path d="M448  0 V512" stroke="lightgray" fill="white"></path>
  <text x="448" y="12" font-size="12" text-anchor="start" fill="red">448</text>
  <text x="512" y="12" font-size="12" text-anchor="start" fill="red">512</text>


  
  <circle cx="157" cy="256" r="99" fill="black"  stroke="black" stroke-width="5" transform="translate(100,50)"></circle>
  <circle cx="72" cy="156" r="55" fill="black"  stroke="black" stroke-width="5" transform="translate(100,50)"></circle>
  <circle cx="240" cy="156" r="55" fill="black"  stroke="black" stroke-width="5" transform="translate(100,50)"></circle>
  <ellipse fill="black" stroke="white" stroke-width="5" cx="242" cy="288" rx="9" ry="22"/>
  <ellipse fill="black" stroke="white" stroke-width="5" cx="272" cy="288" rx="9" ry="22"/>
  <path d="M175 366 Q140 320 ,200 333 C 172 300 ,220 170 , 256 256 C 293 175, 330 280 ,312 330 Q375 320, 339 366 " stroke="WHITE" stroke-width="5" fill="none"></path>
  <path d="M200 350 Q256 384 ,314 350 " stroke="WHITE" stroke-width="5" fill="none"></path>
  <ellipse fill="black" stroke="white" stroke-width="5" cx="256" cy="322" rx="22" ry="9"/>
  <path d="M220 360 Q256 400 ,300 357 " stroke="WHITE" stroke-width="5" fill="none"></path>
</svg>