
<svg version="1.1" baseProfile="full" xmlns="http://www.w3.org/2000/svg" width="512" height="512" viewBox="0,0,512,512">

  <rect width="512" height="512" stroke="red" fill="white"></rect>

  <text x="2" y="12" font-size="12" text-anchor="start" fill="red">0</text>
  <path d="M256  64 H0 H512" stroke="lightgray" fill="white"></path>
  <text x="2" y="64" font-size="12" text-anchor="start" fill="red">64</text>
  <path d="M256 128 H0 H512" stroke="lightgray" fill="white"></path>
  <text x="2" y="128" font-size="12" text-anchor="start" fill="red">128</text>
  <path d="M256 192 H0 H512" stroke="lightgray" fill="white"></path>
  <text x="2" y="192" font-size="12" text-anchor="start" fill="red">192</text>
  <path d="M256 256 H0 H512" stroke="lightgray" fill="white"></path>
  <text x="2" y="256" font-size="12" text-anchor="start" fill="red">256</text>
  <path d="M256 320 H0 H512" stroke="lightgray" fill="white"></path>
  <text x="2" y="320" font-size="12" text-anchor="start" fill="red">320</text>
  <path d="M256 384 H0 H512" stroke="lightgray" fill="white"></path>
  <text x="2" y="384" font-size="12" text-anchor="start" fill="red">384</text>
  <path d="M256 448 H0 H512" stroke="lightgray" fill="white"></path>
  <text x="2" y="448" font-size="12" text-anchor="start" fill="red">448</text>
  <text x="2" y="512" font-size="12" text-anchor="start" fill="red">512</text>

  <path d="M64  0 V512" stroke="lightgray" fill="white"></path>
  <text x="64" y="12" font-size="12" text-anchor="start" fill="red">64</text>
  <path d="M128  0 V512" stroke="lightgray" fill="white"></path>
  <text x="128" y="12" font-size="12" text-anchor="start" fill="red">128</text>
  <path d="M195  0 V512" stroke="lightgray" fill="white"></path>
  <text x="192" y="12" font-size="12" text-anchor="start" fill="red">192</text>
  <path d="M256  0 V512" stroke="lightgray" fill="white"></path>
  <text x="256" y="12" font-size="12" text-anchor="start" fill="red">256</text>
  <path d="M320  0 V512" stroke="lightgray" fill="white"></path>
  <text x="320" y="12" font-size="12" text-anchor="start" fill="red">320</text>
  <path d="M384  0 V512" stroke="lightgray" fill="white"></path>
  <text x="384" y="12" font-size="12" text-anchor="start" fill="red">384</text>
  <path d="M448  0 V512" stroke="lightgray" fill="white"></path>
  <text x="448" y="12" font-size="12" text-anchor="start" fill="red">448</text>
  <text x="512" y="12" font-size="12" text-anchor="start" fill="red">512</text>


  
  
  <ellipse fill="WHITE" stroke="BLACK" stroke-width="5" cx="256" cy="280" rx="100" ry="87"/>
  <path d="M180 220 C162 182,160 120,220 198" stroke="black" stroke-width="5" fill="none"></path>
  <path d="M280 195 C280 172,350 120,330 220" stroke="black" stroke-width="5" fill="none"></path>
<ellipse fill="BLACK" stroke="BLACK" stroke-width="5" cx="210" cy="270" rx="6" ry="11"/>
<ellipse fill="BLACK" stroke="BLACK" stroke-width="5" cx="300" cy="270" rx="6" ry="11"/>
<ellipse fill="GOLD" stroke="BLACK" stroke-width="3" cx="256" cy="290" rx="11" ry="8"/>
<path d="M170 280 T117 266" stroke="black" stroke-width="5" fill="none"></path>
<path d="M170 300 T117 296" stroke="black" stroke-width="5" fill="none"></path>
<path d="M170 320 T117 326" stroke="black" stroke-width="5" fill="none"></path>
<path d="M340 280 T390 266" stroke="black" stroke-width="5" fill="none"></path>
<path d="M340 300 T390 296" stroke="black" stroke-width="5" fill="none"></path>
<path d="M340 320 T390 326" stroke="black" stroke-width="5" fill="none"></path>
<ellipse fill="PINK" stroke="PINK" stroke-width="3" cx="300" cy="200" rx="22" ry="16"/>
<ellipse fill="PINK" stroke="PINK" stroke-width="3" cx="320" cy="205" rx="16" ry="22"/>
<ellipse fill="PINK" stroke="PINK" stroke-width="3" cx="280" cy="195" rx="16" ry="22"/>


</svg>