
<svg version="1.1" baseProfile="full" xmlns="http://www.w3.org/2000/svg" width="512" height="512" viewBox="0,0,512,512">

  <rect width="512" height="512" stroke="red" fill="white"></rect>

  <text x="2" y="12" font-size="12" text-anchor="start" fill="red">0</text>
  <path d="M256  64 H0 H512" stroke="lightgray" fill="white"></path>
  <text x="2" y="64" font-size="12" text-anchor="start" fill="red">64</text>
  <path d="M256 128 H0 H512" stroke="lightgray" fill="white"></path>
  <text x="2" y="128" font-size="12" text-anchor="start" fill="red">128</text>
  <path d="M256 192 H0 H512" stroke="lightgray" fill="white"></path>
  <text x="2" y="192" font-size="12" text-anchor="start" fill="red">192</text>
  <path d="M256 256 H0 H512" stroke="lightgray" fill="white"></path>
  <text x="2" y="256" font-size="12" text-anchor="start" fill="red">256</text>
  <path d="M256 320 H0 H512" stroke="lightgray" fill="white"></path>
  <text x="2" y="320" font-size="12" text-anchor="start" fill="red">320</text>
  <path d="M256 384 H0 H512" stroke="lightgray" fill="white"></path>
  <text x="2" y="384" font-size="12" text-anchor="start" fill="red">384</text>
  <path d="M256 448 H0 H512" stroke="lightgray" fill="white"></path>
  <text x="2" y="448" font-size="12" text-anchor="start" fill="red">448</text>
  <text x="2" y="512" font-size="12" text-anchor="start" fill="red">512</text>

  <path d="M64  0 V512" stroke="lightgray" fill="white"></path>
  <text x="64" y="12" font-size="12" text-anchor="start" fill="red">64</text>
  <path d="M128  0 V512" stroke="lightgray" fill="white"></path>
  <text x="128" y="12" font-size="12" text-anchor="start" fill="red">128</text>
  <path d="M195  0 V512" stroke="lightgray" fill="white"></path>
  <text x="192" y="12" font-size="12" text-anchor="start" fill="red">192</text>
  <path d="M256  0 V512" stroke="lightgray" fill="white"></path>
  <text x="256" y="12" font-size="12" text-anchor="start" fill="red">256</text>
  <path d="M320  0 V512" stroke="lightgray" fill="white"></path>
  <text x="320" y="12" font-size="12" text-anchor="start" fill="red">320</text>
  <path d="M384  0 V512" stroke="lightgray" fill="white"></path>
  <text x="384" y="12" font-size="12" text-anchor="start" fill="red">384</text>
  <path d="M448  0 V512" stroke="lightgray" fill="white"></path>
  <text x="448" y="12" font-size="12" text-anchor="start" fill="red">448</text>
  <text x="512" y="12" font-size="12" text-anchor="start" fill="red">512</text>


  
  
  <ellipse fill="#ffd8af" stroke="BLACK" stroke-width="5" cx="256" cy="270" rx="100" ry="100"/>

<ellipse fill="WHITE" stroke="BLACK" stroke-width="3" cx="320" cy="260" rx="15" ry="15"/>
<ellipse fill="WHITE" stroke="BLACK" stroke-width="3" cx="190" cy="260" rx="15" ry="15"/>

<path d="M256 290 T220 210" stroke="black" stroke-width="5" fill="none"></path>
<path d="M235 240 T275 240" stroke="black" stroke-width="5" fill="none"></path>
<path d="M256 290 T290 210" stroke="black" stroke-width="5" fill="none"></path>

<path d="M256 72 T200 190" stroke="blUE" stroke-width="5" fill="none"></path>
<path d="M230 130 T285 130" stroke="blUE" stroke-width="5" fill="none"></path>
<path d="M256 72 T310 187" stroke="blUE" stroke-width="5" fill="none"></path>
<path d="M236 110 T190 99" stroke="blUE" stroke-width="5" fill="none"></path>
<path d="M276 110 T325 99" stroke="blUE" stroke-width="5" fill="none"></path>
<path d="M285 132 T325 99" stroke="blUE" stroke-width="5" fill="none"></path>
<path d="M230 132 T190 99" stroke="blUE" stroke-width="5" fill="none"></path>

<path d="M200 190 T64 280" stroke="ORANGE" stroke-width="5" fill="none"></path>
<path d="M200 190 T84 310" stroke="ORANGE" stroke-width="5" fill="none"></path>
<path d="M200 190 T104 340" stroke="ORANGE" stroke-width="5" fill="none"></path>
<path d="M200 190 T124 370" stroke="ORANGE" stroke-width="5" fill="none"></path>

<path d="M304 180 T445 250" stroke="ORANGE" stroke-width="5" fill="none"></path>
<path d="M304 180 T425 280" stroke="ORANGE" stroke-width="5" fill="none"></path>
<path d="M304 180 T405 310" stroke="ORANGE" stroke-width="5" fill="none"></path>
<path d="M304 180 T385 340" stroke="ORANGE" stroke-width="5" fill="none"></path>
<path d="M304 180 T365 370" stroke="ORANGE" stroke-width="5" fill="none"></path>

<path d="M220 310 Q 230 340 , 256 310 Q256 310, 270 322 T 295 310" stroke="black" stroke-width="5" fill="none"></path>
<text x="150" y="420" font-size="42" text-anchor="start" fill="lightblue">北海小英雄</text>
<text x="160" y="460" font-size="42" text-anchor="start" fill="lightblue">VOYAGER</text>

</svg>